{"glyphs":{"0":{"x_min":42,"x_max":653,"ha":668,"o":"m 404 645 l 404 645 q 482 645 532 623 q 582 601 611 555 l 611 555 q 631 524 642 485 q 653 445 653 395 l 653 395 q 653 353 645 309 q 637 265 622 224 q 607 183 587 147 q 566 110 541 83 l 541 83 q 496 33 438 13 q 380 -8 297 -8 l 297 -8 q 217 -8 168 10 q 118 28 89 68 l 89 68 q 65 97 54 142 q 42 186 42 245 l 42 245 q 42 298 52 349 q 62 399 82 443 q 101 487 129 523 q 157 559 193 584 l 193 584 q 235 614 287 630 q 338 645 404 645 m 295 62 l 295 62 q 315 62 334 83 q 352 104 368 139 q 384 173 397 218 q 409 262 418 310 q 427 357 432 403 q 437 448 437 486 l 437 486 q 437 537 428 557 q 419 576 402 576 l 402 576 q 381 576 362 556 q 343 535 327 502 q 311 468 298 424 q 284 380 275 334 q 265 288 260 243 q 255 198 255 161 l 255 161 q 255 105 266 84 q 277 62 295 62"},"1":{"x_min":57,"x_max":418,"ha":397,"o":"m 57 465 l 72 532 q 134 541 185 569 q 235 597 265 635 l 265 635 l 418 635 l 282 0 l 66 0 l 165 465 l 57 465"},"2":{"x_min":-3,"x_max":586,"ha":593,"o":"m -3 0 l 19 98 q 88 120 153 154 q 218 187 269 235 q 320 282 351 345 q 381 408 381 490 l 381 490 q 381 530 373 552 q 365 574 345 574 l 345 574 q 327 574 312 557 q 296 540 284 514 q 271 488 261 456 q 250 424 243 394 l 243 394 l 62 394 l 95 544 q 151 592 213 619 q 275 645 353 645 l 353 645 q 401 645 444 634 q 486 623 518 600 q 549 576 568 541 q 586 505 586 456 l 586 456 q 586 419 574 383 q 561 347 530 309 q 498 270 445 229 q 391 187 309 139 l 309 139 l 532 139 l 512 0 l -3 0"},"3":{"x_min":5,"x_max":584,"ha":604,"o":"m 234 -8 l 234 -8 q 163 -8 109 11 q 55 29 5 76 l 5 76 l 37 226 l 206 226 q 206 227 205 219 q 203 211 202 198 q 200 185 199 169 q 197 153 197 138 l 197 138 q 197 97 208 80 q 218 62 237 62 l 237 62 q 258 62 277 76 q 295 90 308 111 q 321 132 329 158 q 336 183 336 207 l 336 207 q 336 253 313 276 q 289 298 255 298 l 255 298 q 258 317 262 332 l 262 332 q 265 345 268 356 q 270 366 270 367 l 270 367 q 303 367 326 378 q 348 388 363 407 q 377 425 383 451 q 389 476 389 505 l 389 505 q 389 517 388 530 q 386 542 382 553 q 378 563 371 570 q 363 576 350 576 l 350 576 q 323 576 298 544 q 272 512 252 435 l 252 435 l 80 435 l 110 576 q 140 595 179 610 l 179 610 q 212 623 259 634 q 305 645 365 645 l 365 645 q 404 645 443 639 q 482 632 514 615 q 545 598 565 569 q 584 540 584 495 l 584 495 q 584 461 573 436 q 561 410 539 390 q 517 370 487 354 q 456 338 417 324 l 417 324 q 447 321 473 312 q 499 303 519 287 q 538 271 550 248 q 561 225 561 193 l 561 193 q 561 150 538 113 q 515 76 473 49 q 430 22 370 7 q 309 -8 234 -8"},"4":{"x_min":-1,"x_max":586,"ha":607,"o":"m 477 160 l 443 0 l 227 0 l 260 160 l -1 160 l 24 277 l 322 635 l 580 635 l 495 244 l 586 244 l 568 160 l 477 160 m 116 244 l 278 244 l 338 522 l 116 244"},"5":{"x_min":1,"x_max":545,"ha":563,"o":"m 545 635 l 516 497 l 227 497 l 210 411 q 233 422 261 430 q 288 437 326 437 l 326 437 q 386 437 426 420 q 466 403 491 375 q 515 347 526 313 q 536 278 536 244 l 536 244 q 536 190 514 144 q 491 98 450 64 q 408 30 348 11 q 288 -8 213 -8 l 213 -8 q 184 -8 157 -4 q 130 -1 105 9 q 79 18 54 34 q 28 50 1 76 l 1 76 l 30 215 l 188 215 q 186 200 185 189 q 184 178 184 154 l 184 154 q 184 104 197 83 q 210 62 234 62 l 234 62 q 259 62 277 81 q 295 100 306 129 q 317 157 322 190 q 327 223 327 252 l 327 252 q 327 272 324 291 q 321 309 314 323 q 307 337 295 346 q 283 354 265 354 l 265 354 q 247 354 227 343 q 207 332 188 300 l 188 300 l 65 300 l 137 635 l 545 635"},"6":{"x_min":41,"x_max":602,"ha":616,"o":"m 415 645 l 415 645 q 434 645 459 643 q 483 641 509 637 q 534 632 559 625 q 583 617 602 605 l 602 605 l 570 465 l 415 465 q 416 476 417 486 q 418 496 418 507 l 418 507 q 418 533 412 555 q 406 576 389 576 l 389 576 q 377 576 361 563 q 345 550 328 522 q 311 494 296 450 q 281 406 271 345 l 271 345 l 281 345 q 310 377 353 394 q 395 411 440 411 l 440 411 q 517 411 550 365 q 583 318 583 238 l 583 238 q 583 177 564 133 q 545 88 503 55 l 503 55 q 467 27 413 10 q 358 -8 284 -8 l 284 -8 q 231 -8 187 4 q 142 15 110 44 q 77 72 59 121 q 41 169 41 243 l 41 243 q 41 322 64 395 q 86 468 132 524 q 178 579 249 612 q 319 645 415 645 m 279 60 l 279 60 q 303 60 321 82 q 339 104 350 136 q 361 168 367 205 q 372 241 372 270 l 372 270 q 372 294 367 307 q 361 320 341 320 l 341 320 q 314 320 295 298 q 276 275 264 244 q 251 212 246 178 q 240 144 240 121 l 240 121 q 240 93 249 77 q 258 60 279 60"},"7":{"x_min":66,"x_max":600,"ha":531,"o":"m 600 635 l 578 538 q 510 506 460 450 q 410 393 378 321 q 346 249 331 167 q 315 84 315 0 l 315 0 l 99 0 q 99 25 105 63 q 111 100 124 145 q 137 190 158 239 q 179 288 209 335 q 239 382 279 424 q 319 466 370 497 l 370 497 l 66 497 l 96 635 l 600 635"},"8":{"x_min":24,"x_max":588,"ha":620,"o":"m 269 -8 l 269 -8 q 147 -8 86 39 q 24 86 24 171 l 24 171 q 24 229 56 274 q 87 318 165 344 l 165 344 q 133 355 109 384 q 85 413 85 461 l 85 461 q 85 507 109 542 q 133 576 172 599 q 211 622 262 633 q 313 644 367 644 l 367 644 q 434 644 477 629 q 520 614 545 591 q 570 567 579 539 q 588 510 588 484 l 588 484 q 588 446 575 420 q 561 393 542 376 q 523 359 503 350 q 482 340 469 337 l 469 337 q 515 326 545 290 q 574 253 574 198 l 574 198 q 574 155 553 118 q 532 80 493 52 q 454 24 398 8 q 341 -8 269 -8 m 320 370 l 320 370 q 341 370 356 384 q 370 398 379 419 q 388 440 392 465 q 396 489 396 511 l 396 511 q 396 522 395 534 q 394 545 390 555 q 386 564 378 570 q 370 576 356 576 l 356 576 q 335 576 321 563 q 306 549 297 529 q 288 509 284 484 q 279 459 279 437 l 279 437 q 279 425 280 414 q 281 402 286 392 q 290 382 298 376 q 306 370 320 370 m 282 61 l 282 61 q 303 61 318 77 q 332 93 341 118 q 349 143 353 172 q 356 201 356 228 l 356 228 q 356 258 350 280 q 343 301 317 301 l 317 301 q 296 301 281 286 q 266 270 257 247 q 247 223 243 195 q 238 166 238 141 l 238 141 q 238 110 247 86 q 256 61 282 61"},"9":{"x_min":30,"x_max":602,"ha":619,"o":"m 236 -8 l 236 -8 q 218 -8 191 -6 q 164 -5 135 0 q 106 4 79 12 q 51 19 30 31 l 30 31 l 63 171 l 217 171 q 217 164 217 153 q 216 142 216 130 l 216 130 q 216 118 218 106 q 219 93 223 83 q 226 73 234 67 q 241 60 253 60 l 253 60 q 286 60 319 116 q 352 171 372 296 l 372 296 l 362 296 q 333 264 291 248 q 249 231 204 231 l 204 231 q 165 231 138 244 q 110 256 93 278 q 75 300 67 331 q 59 361 59 397 l 59 397 q 59 463 83 510 q 106 557 146 587 q 186 617 240 631 q 293 645 353 645 l 353 645 q 408 645 454 633 q 499 620 532 591 q 565 561 584 512 q 602 463 602 390 l 602 390 q 602 316 582 245 q 561 173 517 117 q 472 61 403 27 q 333 -8 236 -8 m 364 576 l 364 576 q 339 576 322 555 q 304 534 293 504 q 281 473 276 438 q 271 403 271 376 l 271 376 q 271 352 277 340 q 282 327 302 327 l 302 327 q 329 327 348 349 q 367 370 379 400 q 391 430 397 463 q 403 495 403 517 l 403 517 q 403 543 394 560 q 385 576 364 576"}," ":{"x_min":0,"x_max":0,"ha":191,"o":""},"Ă":{"x_min":-47,"x_max":574,"ha":602,"o":"m 485 635 l 554 0 l 320 0 l 306 159 l 121 159 l 50 0 l -47 0 l 248 635 l 485 635 m 276 504 l 154 232 l 299 232 l 276 504 m 383 693 l 383 693 q 324 693 289 723 q 254 752 244 818 l 244 818 l 295 839 q 301 819 312 807 q 323 794 337 787 q 350 780 365 778 q 379 775 391 775 l 391 775 q 433 775 472 797 q 510 819 536 854 l 536 854 l 574 820 q 536 751 488 722 q 440 693 383 693"},"Â":{"x_min":-47,"x_max":554,"ha":602,"o":"m 485 635 l 554 0 l 320 0 l 306 159 l 121 159 l 50 0 l -47 0 l 248 635 l 485 635 m 276 504 l 154 232 l 299 232 l 276 504 m 261 693 l 175 693 l 321 839 l 470 839 l 553 693 l 477 693 l 394 786 l 261 693"},"Ä":{"x_min":-47,"x_max":554,"ha":602,"o":"m 485 635 l 554 0 l 320 0 l 306 159 l 121 159 l 50 0 l -47 0 l 248 635 l 485 635 m 276 504 l 154 232 l 299 232 l 276 504 m 269 835 l 269 835 q 305 835 322 815 q 339 794 339 765 l 339 765 q 339 733 319 708 q 298 682 258 682 l 258 682 q 221 682 204 703 q 187 723 187 752 l 187 752 q 187 784 208 810 q 229 835 269 835 m 481 835 l 481 835 q 518 835 535 815 q 552 794 552 765 l 552 765 q 552 733 531 708 q 510 682 470 682 l 470 682 q 433 682 416 703 q 399 723 399 752 l 399 752 q 399 784 420 810 q 441 835 481 835"},"À":{"x_min":-47,"x_max":554,"ha":602,"o":"m 485 635 l 554 0 l 320 0 l 306 159 l 121 159 l 50 0 l -47 0 l 248 635 l 485 635 m 276 504 l 154 232 l 299 232 l 276 504 m 329 693 l 144 839 l 317 839 l 422 693 l 329 693"},"Ā":{"x_min":-47,"x_max":583,"ha":602,"o":"m 485 635 l 554 0 l 320 0 l 306 159 l 121 159 l 50 0 l -47 0 l 248 635 l 485 635 m 276 504 l 154 232 l 299 232 l 276 504 m 209 730 l 228 807 l 583 807 l 565 730 l 209 730"},"Ą":{"x_min":-47,"x_max":554,"ha":602,"o":"m 485 635 l 554 0 l 511 0 q 497 -9 484 -19 q 470 -30 459 -42 q 447 -55 440 -69 q 433 -84 433 -100 l 433 -100 q 433 -120 442 -129 q 451 -138 464 -138 l 464 -138 q 473 -138 486 -132 q 498 -127 516 -112 l 516 -112 l 539 -154 q 509 -179 469 -191 q 429 -204 391 -204 l 391 -204 q 305 -204 305 -130 l 305 -130 q 305 -105 315 -84 q 325 -64 341 -48 q 357 -32 377 -20 q 396 -8 416 0 l 416 0 l 320 0 l 306 159 l 121 159 l 50 0 l -47 0 l 248 635 l 485 635 m 276 504 l 154 232 l 299 232 l 276 504"},"Å":{"x_min":-47,"x_max":554,"ha":602,"o":"m 485 635 l 554 0 l 320 0 l 306 159 l 121 159 l 50 0 l -47 0 l 248 635 l 485 635 m 276 504 l 154 232 l 299 232 l 276 504 m 466 775 l 466 775 q 466 755 458 738 q 449 721 436 709 q 422 696 404 689 q 386 682 367 682 l 367 682 q 331 682 307 704 q 283 726 283 763 l 283 763 q 283 783 291 800 q 299 817 313 829 q 327 841 345 848 q 362 855 382 855 l 382 855 q 418 855 442 833 q 466 810 466 775 m 408 771 l 408 771 q 408 784 399 792 q 390 799 377 799 l 377 799 q 363 799 352 790 q 340 781 340 766 l 340 766 q 340 753 349 745 q 358 736 371 736 l 371 736 q 385 736 397 746 q 408 756 408 771"},"Ǻ":{"x_min":-47,"x_max":575,"ha":602,"o":"m 484 625 l 554 0 l 319 0 l 305 159 l 122 159 l 50 0 l -47 0 l 248 625 l 484 625 m 474 734 l 474 734 q 474 713 466 696 q 457 679 444 667 q 430 654 412 647 q 393 640 374 640 l 374 640 q 339 640 315 663 q 290 685 290 721 l 290 721 q 290 762 320 788 q 350 814 390 814 l 390 814 q 425 814 450 792 q 474 769 474 734 m 275 493 l 156 232 l 298 232 l 275 493 m 441 831 l 363 831 l 454 976 l 575 976 l 441 831 m 415 730 l 415 730 q 415 743 406 751 q 397 758 385 758 l 385 758 q 371 758 360 749 q 348 739 348 724 l 348 724 q 348 712 357 704 q 365 695 378 695 l 378 695 q 392 695 404 705 q 415 715 415 730"},"Ã":{"x_min":-47,"x_max":614,"ha":602,"o":"m 485 635 l 554 0 l 320 0 l 306 159 l 121 159 l 50 0 l -47 0 l 248 635 l 485 635 m 276 504 l 154 232 l 299 232 l 276 504 m 579 844 l 614 819 q 584 764 554 737 q 524 710 479 710 l 479 710 q 461 710 437 716 q 412 722 387 729 q 361 735 339 741 q 316 747 302 747 l 302 747 q 284 747 265 735 q 246 723 237 712 l 237 712 l 204 741 q 235 792 267 818 q 298 844 341 844 l 341 844 q 357 844 381 839 q 404 834 429 828 q 453 821 476 816 q 499 811 514 811 l 514 811 q 528 811 548 821 q 567 830 579 844 l 579 844"},"B":{"x_min":0,"x_max":613,"ha":622,"o":"m 613 490 l 613 490 q 613 461 605 438 q 596 415 581 397 q 566 379 546 365 q 526 351 502 339 l 502 339 q 513 335 528 327 q 543 318 557 303 q 571 288 581 265 q 590 241 590 207 l 590 207 q 590 162 571 124 q 552 86 515 59 q 477 31 423 16 q 368 0 297 0 l 297 0 l 0 0 l 135 635 l 398 635 q 437 635 476 630 q 514 624 545 608 q 575 592 594 564 q 613 535 613 490 m 295 369 l 341 369 q 363 369 379 382 q 394 395 404 415 q 414 434 419 457 q 424 479 424 497 l 424 497 q 424 526 411 547 q 397 567 368 567 l 368 567 l 338 567 l 295 369 m 229 63 l 269 63 q 299 63 319 80 q 339 97 352 122 q 365 147 371 175 q 376 202 376 223 l 376 223 q 376 258 362 279 q 347 299 315 299 l 315 299 l 278 299 l 229 63"},"C":{"x_min":34,"x_max":661,"ha":639,"o":"m 604 243 l 564 54 q 539 42 513 31 q 486 19 456 11 q 426 2 391 -3 q 355 -8 313 -8 l 313 -8 q 179 -8 107 52 q 34 112 34 252 l 34 252 q 34 333 59 405 q 84 476 133 530 q 182 583 254 614 q 326 645 419 645 l 419 645 q 463 645 500 639 q 536 633 566 624 q 595 614 619 603 q 642 592 661 582 l 661 582 l 625 396 l 445 396 q 446 406 448 422 q 449 438 450 455 q 451 471 452 487 q 453 503 453 514 l 453 514 q 453 522 452 533 q 451 543 447 553 q 443 563 435 570 q 426 576 412 576 l 412 576 q 386 576 365 555 q 343 533 326 498 q 309 462 296 417 q 283 372 275 326 q 266 279 262 234 q 257 189 257 155 l 257 155 q 257 145 258 130 q 259 115 264 101 q 269 87 280 77 q 290 67 308 67 l 308 67 q 339 67 368 106 q 397 144 419 243 l 419 243 l 604 243"},"Ć":{"x_min":34,"x_max":661,"ha":639,"o":"m 604 243 l 564 54 q 539 42 513 31 q 486 19 456 11 q 426 2 391 -3 q 355 -8 313 -8 l 313 -8 q 179 -8 107 52 q 34 112 34 252 l 34 252 q 34 333 59 405 q 84 476 133 530 q 182 583 254 614 q 326 645 419 645 l 419 645 q 463 645 500 639 q 536 633 566 624 q 595 614 619 603 q 642 592 661 582 l 661 582 l 625 396 l 445 396 q 446 406 448 422 q 449 438 450 455 q 451 471 452 487 q 453 503 453 514 l 453 514 q 453 522 452 533 q 451 543 447 553 q 443 563 435 570 q 426 576 412 576 l 412 576 q 386 576 365 555 q 343 533 326 498 q 309 462 296 417 q 283 372 275 326 q 266 279 262 234 q 257 189 257 155 l 257 155 q 257 145 258 130 q 259 115 264 101 q 269 87 280 77 q 290 67 308 67 l 308 67 q 339 67 368 106 q 397 144 419 243 l 419 243 l 604 243 m 468 693 l 382 693 l 475 839 l 647 839 l 468 693"},"Č":{"x_min":34,"x_max":661,"ha":639,"o":"m 604 243 l 564 54 q 539 42 513 31 q 486 19 456 11 q 426 2 391 -3 q 355 -8 313 -8 l 313 -8 q 179 -8 107 52 q 34 112 34 252 l 34 252 q 34 333 59 405 q 84 476 133 530 q 182 583 254 614 q 326 645 419 645 l 419 645 q 463 645 500 639 q 536 633 566 624 q 595 614 619 603 q 642 592 661 582 l 661 582 l 625 396 l 445 396 q 446 406 448 422 q 449 438 450 455 q 451 471 452 487 q 453 503 453 514 l 453 514 q 453 522 452 533 q 451 543 447 553 q 443 563 435 570 q 426 576 412 576 l 412 576 q 386 576 365 555 q 343 533 326 498 q 309 462 296 417 q 283 372 275 326 q 266 279 262 234 q 257 189 257 155 l 257 155 q 257 145 258 130 q 259 115 264 101 q 269 87 280 77 q 290 67 308 67 l 308 67 q 339 67 368 106 q 397 144 419 243 l 419 243 l 604 243 m 566 839 l 652 839 l 506 693 l 357 693 l 274 839 l 351 839 l 434 747 l 566 839"},"Ç":{"x_min":34,"x_max":661,"ha":639,"o":"m 604 243 l 564 54 q 517 31 464 13 q 410 -5 336 -7 l 336 -7 l 321 -68 q 327 -66 342 -60 q 357 -54 379 -54 l 379 -54 q 415 -54 435 -70 q 455 -87 455 -117 l 455 -117 q 455 -143 442 -161 q 428 -180 407 -191 q 386 -203 360 -208 q 333 -214 307 -214 l 307 -214 q 275 -214 257 -205 q 239 -197 226 -184 l 226 -184 l 249 -154 q 254 -161 271 -167 q 287 -173 301 -173 l 301 -173 q 308 -173 317 -171 q 326 -169 334 -163 q 341 -158 347 -149 q 352 -140 352 -126 l 352 -126 q 352 -113 346 -106 q 339 -100 330 -100 l 330 -100 q 324 -100 316 -104 q 308 -108 304 -119 l 304 -119 l 229 -119 l 259 -5 q 151 5 93 66 q 34 126 34 252 l 34 252 q 34 333 59 405 q 84 476 133 530 q 182 583 254 614 q 326 645 419 645 l 419 645 q 463 645 500 639 q 536 633 566 624 q 595 614 619 603 q 642 592 661 582 l 661 582 l 625 396 l 445 396 q 446 406 448 422 q 449 438 450 455 q 451 471 452 487 q 453 503 453 514 l 453 514 q 453 522 452 533 q 451 543 447 553 q 443 563 435 570 q 426 576 412 576 l 412 576 q 386 576 365 555 q 343 533 326 498 q 309 462 296 417 q 283 372 275 326 q 266 279 262 234 q 257 189 257 155 l 257 155 q 257 145 258 130 q 259 115 264 101 q 269 87 280 77 q 290 67 308 67 l 308 67 q 339 67 368 106 q 397 144 419 243 l 419 243 l 604 243"},"Ĉ":{"x_min":34,"x_max":661,"ha":639,"o":"m 604 243 l 564 54 q 539 42 513 31 q 486 19 456 11 q 426 2 391 -3 q 355 -8 313 -8 l 313 -8 q 179 -8 107 52 q 34 112 34 252 l 34 252 q 34 333 59 405 q 84 476 133 530 q 182 583 254 614 q 326 645 419 645 l 419 645 q 463 645 500 639 q 536 633 566 624 q 595 614 619 603 q 642 592 661 582 l 661 582 l 625 396 l 445 396 q 446 406 448 422 q 449 438 450 455 q 451 471 452 487 q 453 503 453 514 l 453 514 q 453 522 452 533 q 451 543 447 553 q 443 563 435 570 q 426 576 412 576 l 412 576 q 386 576 365 555 q 343 533 326 498 q 309 462 296 417 q 283 372 275 326 q 266 279 262 234 q 257 189 257 155 l 257 155 q 257 145 258 130 q 259 115 264 101 q 269 87 280 77 q 290 67 308 67 l 308 67 q 339 67 368 106 q 397 144 419 243 l 419 243 l 604 243 m 318 693 l 232 693 l 378 839 l 527 839 l 610 693 l 534 693 l 451 786 l 318 693"},"Ċ":{"x_min":34,"x_max":661,"ha":639,"o":"m 604 243 l 564 54 q 539 42 513 31 q 486 19 456 11 q 426 2 391 -3 q 355 -8 313 -8 l 313 -8 q 179 -8 107 52 q 34 112 34 252 l 34 252 q 34 333 59 405 q 84 476 133 530 q 182 583 254 614 q 326 645 419 645 l 419 645 q 463 645 500 639 q 536 633 566 624 q 595 614 619 603 q 642 592 661 582 l 661 582 l 625 396 l 445 396 q 446 406 448 422 q 449 438 450 455 q 451 471 452 487 q 453 503 453 514 l 453 514 q 453 522 452 533 q 451 543 447 553 q 443 563 435 570 q 426 576 412 576 l 412 576 q 386 576 365 555 q 343 533 326 498 q 309 462 296 417 q 283 372 275 326 q 266 279 262 234 q 257 189 257 155 l 257 155 q 257 145 258 130 q 259 115 264 101 q 269 87 280 77 q 290 67 308 67 l 308 67 q 339 67 368 106 q 397 144 419 243 l 419 243 l 604 243 m 544 765 l 544 765 q 544 742 535 725 q 525 708 510 696 q 494 684 474 678 q 454 672 433 672 l 433 672 q 393 672 366 691 q 339 710 339 751 l 339 751 q 339 773 348 791 q 357 808 373 820 q 388 831 409 837 q 429 843 451 843 l 451 843 q 490 843 517 824 q 544 805 544 765"},"D":{"x_min":0,"x_max":651,"ha":662,"o":"m 287 0 l 0 0 l 135 635 l 404 635 q 466 635 513 623 q 559 610 590 581 q 620 552 636 505 q 651 458 651 390 l 651 390 q 651 317 633 247 q 614 177 571 122 q 528 67 459 34 q 389 0 287 0 l 287 0 m 231 70 l 274 70 q 307 70 333 98 q 358 125 377 168 q 395 210 408 262 q 420 313 428 361 q 435 409 439 447 q 442 485 442 501 l 442 501 q 442 532 430 550 q 417 567 386 567 l 386 567 l 338 567 l 231 70"},"Ď":{"x_min":0,"x_max":651,"ha":662,"o":"m 287 0 l 0 0 l 135 635 l 404 635 q 466 635 513 623 q 559 610 590 581 q 620 552 636 505 q 651 458 651 390 l 651 390 q 651 317 633 247 q 614 177 571 122 q 528 67 459 34 q 389 0 287 0 l 287 0 m 231 70 l 274 70 q 307 70 333 98 q 358 125 377 168 q 395 210 408 262 q 420 313 428 361 q 435 409 439 447 q 442 485 442 501 l 442 501 q 442 532 430 550 q 417 567 386 567 l 386 567 l 338 567 l 231 70 m 523 839 l 609 839 l 463 693 l 314 693 l 231 839 l 308 839 l 391 747 l 523 839"},"Đ":{"x_min":6,"x_max":662,"ha":673,"o":"m 6 288 l 25 365 l 88 365 l 146 635 l 415 635 q 477 635 524 623 q 570 610 601 581 q 631 552 647 505 q 662 458 662 390 l 662 390 q 662 317 644 247 q 625 177 582 122 q 539 67 470 34 q 400 0 298 0 l 298 0 l 11 0 l 72 288 l 6 288 m 242 70 l 285 70 q 318 70 344 98 q 369 125 388 168 q 406 210 419 262 q 431 313 439 361 q 446 409 450 447 q 453 485 453 501 l 453 501 q 453 532 441 550 q 428 567 397 567 l 397 567 l 349 567 l 305 365 l 380 365 l 362 288 l 289 288 l 242 70"},"Ḍ":{"x_min":0,"x_max":651,"ha":662,"o":"m 287 0 l 0 0 l 135 635 l 404 635 q 466 635 513 623 q 559 610 590 581 q 620 552 636 505 q 651 458 651 390 l 651 390 q 651 317 633 247 q 614 177 571 122 q 528 67 459 34 q 389 0 287 0 l 287 0 m 231 70 l 274 70 q 307 70 333 98 q 358 125 377 168 q 395 210 408 262 q 420 313 428 361 q 435 409 439 447 q 442 485 442 501 l 442 501 q 442 532 430 550 q 417 567 386 567 l 386 567 l 338 567 l 231 70 m 296 -144 l 296 -144 q 296 -162 289 -176 q 281 -190 269 -199 q 256 -208 240 -213 q 223 -218 206 -218 l 206 -218 q 174 -218 152 -203 q 129 -188 129 -154 l 129 -154 q 129 -118 157 -99 q 184 -81 220 -81 l 220 -81 q 252 -81 274 -96 q 296 -111 296 -144"},"E":{"x_min":0,"x_max":556,"ha":503,"o":"m 0 0 l 135 635 l 556 635 l 540 559 l 336 559 l 294 366 l 465 366 l 449 291 l 278 291 l 232 77 l 436 77 l 421 0 l 0 0"},"É":{"x_min":0,"x_max":568,"ha":503,"o":"m 0 0 l 135 635 l 556 635 l 540 559 l 336 559 l 294 366 l 465 366 l 449 291 l 278 291 l 232 77 l 436 77 l 421 0 l 0 0 m 389 693 l 303 693 l 396 839 l 568 839 l 389 693"},"Ĕ":{"x_min":0,"x_max":556,"ha":503,"o":"m 0 0 l 135 635 l 556 635 l 540 559 l 336 559 l 294 366 l 465 366 l 449 291 l 278 291 l 232 77 l 436 77 l 421 0 l 0 0 m 346 693 l 346 693 q 287 693 252 723 q 217 752 207 818 l 207 818 l 258 839 q 264 819 275 807 q 286 794 300 787 q 313 780 328 778 q 342 775 354 775 l 354 775 q 396 775 435 797 q 473 819 499 854 l 499 854 l 537 820 q 499 751 451 722 q 403 693 346 693"},"Ě":{"x_min":0,"x_max":567,"ha":503,"o":"m 0 0 l 135 635 l 556 635 l 540 559 l 336 559 l 294 366 l 465 366 l 449 291 l 278 291 l 232 77 l 436 77 l 421 0 l 0 0 m 481 839 l 567 839 l 421 693 l 272 693 l 189 839 l 266 839 l 349 747 l 481 839"},"Ê":{"x_min":0,"x_max":556,"ha":503,"o":"m 0 0 l 135 635 l 556 635 l 540 559 l 336 559 l 294 366 l 465 366 l 449 291 l 278 291 l 232 77 l 436 77 l 421 0 l 0 0 m 261 693 l 175 693 l 321 839 l 470 839 l 553 693 l 477 693 l 394 786 l 261 693"},"Ë":{"x_min":0,"x_max":556,"ha":503,"o":"m 0 0 l 135 635 l 556 635 l 540 559 l 336 559 l 294 366 l 465 366 l 449 291 l 278 291 l 232 77 l 436 77 l 421 0 l 0 0 m 254 835 l 254 835 q 290 835 307 815 q 324 794 324 765 l 324 765 q 324 733 304 708 q 283 682 243 682 l 243 682 q 206 682 189 703 q 172 723 172 752 l 172 752 q 172 784 193 810 q 214 835 254 835 m 466 835 l 466 835 q 503 835 520 815 q 537 794 537 765 l 537 765 q 537 733 516 708 q 495 682 455 682 l 455 682 q 418 682 401 703 q 384 723 384 752 l 384 752 q 384 784 405 810 q 426 835 466 835"},"Ė":{"x_min":0,"x_max":556,"ha":503,"o":"m 0 0 l 135 635 l 556 635 l 540 559 l 336 559 l 294 366 l 465 366 l 449 291 l 278 291 l 232 77 l 436 77 l 421 0 l 0 0 m 465 765 l 465 765 q 465 742 456 725 q 446 708 431 696 q 415 684 395 678 q 375 672 354 672 l 354 672 q 314 672 287 691 q 260 710 260 751 l 260 751 q 260 773 269 791 q 278 808 294 820 q 309 831 330 837 q 350 843 372 843 l 372 843 q 411 843 438 824 q 465 805 465 765"},"Ẹ":{"x_min":0,"x_max":556,"ha":503,"o":"m 0 0 l 135 635 l 556 635 l 540 559 l 336 559 l 294 366 l 465 366 l 449 291 l 278 291 l 232 77 l 436 77 l 421 0 l 0 0 m 271 -144 l 271 -144 q 271 -162 264 -176 q 256 -190 244 -199 q 231 -208 215 -213 q 198 -218 181 -218 l 181 -218 q 149 -218 127 -203 q 104 -188 104 -154 l 104 -154 q 104 -118 132 -99 q 159 -81 195 -81 l 195 -81 q 227 -81 249 -96 q 271 -111 271 -144"},"È":{"x_min":0,"x_max":556,"ha":503,"o":"m 0 0 l 135 635 l 556 635 l 540 559 l 336 559 l 294 366 l 465 366 l 449 291 l 278 291 l 232 77 l 436 77 l 421 0 l 0 0 m 317 693 l 132 839 l 305 839 l 410 693 l 317 693"},"Ē":{"x_min":0,"x_max":556,"ha":503,"o":"m 0 0 l 135 635 l 556 635 l 540 559 l 336 559 l 294 366 l 465 366 l 449 291 l 278 291 l 232 77 l 436 77 l 421 0 l 0 0 m 177 730 l 196 807 l 551 807 l 533 730 l 177 730"},"Ŋ":{"x_min":0,"x_max":670,"ha":644,"o":"m 670 635 l 545 49 q 532 -11 504 -52 q 476 -93 437 -119 q 398 -145 351 -156 q 304 -168 254 -168 l 254 -168 q 223 -168 188 -164 q 153 -160 114 -151 l 114 -151 l 131 -71 q 152 -75 177 -76 q 202 -78 217 -78 l 217 -78 q 261 -78 290 -62 q 319 -46 319 -2 l 319 -2 q 319 19 313 51 q 306 82 297 111 l 297 111 l 190 464 l 90 0 l 0 0 l 135 635 l 374 635 l 479 172 l 578 635 l 670 635"},"Ę":{"x_min":0,"x_max":556,"ha":503,"o":"m 0 0 l 135 635 l 556 635 l 540 559 l 336 559 l 294 366 l 465 366 l 449 291 l 278 291 l 232 77 l 436 77 l 421 0 l 300 0 q 286 -9 273 -19 q 259 -30 248 -42 q 236 -55 229 -69 q 222 -84 222 -100 l 222 -100 q 222 -120 231 -129 q 240 -138 253 -138 l 253 -138 q 262 -138 275 -132 q 287 -127 305 -112 l 305 -112 l 328 -154 q 298 -179 258 -191 q 218 -204 180 -204 l 180 -204 q 94 -204 94 -130 l 94 -130 q 94 -105 104 -84 q 114 -64 130 -48 q 146 -32 166 -20 q 185 -8 205 0 l 205 0 l 0 0"},"Ð":{"x_min":6,"x_max":662,"ha":673,"o":"m 6 288 l 25 365 l 88 365 l 146 635 l 415 635 q 477 635 524 623 q 570 610 601 581 q 631 552 647 505 q 662 458 662 390 l 662 390 q 662 317 644 247 q 625 177 582 122 q 539 67 470 34 q 400 0 298 0 l 298 0 l 11 0 l 72 288 l 6 288 m 242 70 l 285 70 q 318 70 344 98 q 369 125 388 168 q 406 210 419 262 q 431 313 439 361 q 446 409 450 447 q 453 485 453 501 l 453 501 q 453 532 441 550 q 428 567 397 567 l 397 567 l 349 567 l 305 365 l 380 365 l 362 288 l 289 288 l 242 70"},"Ẽ":{"x_min":0,"x_max":569,"ha":503,"o":"m 0 0 l 135 635 l 556 635 l 540 559 l 336 559 l 294 366 l 465 366 l 449 291 l 278 291 l 232 77 l 436 77 l 421 0 l 0 0 m 534 844 l 569 819 q 539 764 509 737 q 479 710 434 710 l 434 710 q 416 710 392 716 q 367 722 342 729 q 316 735 294 741 q 271 747 257 747 l 257 747 q 239 747 220 735 q 201 723 192 712 l 192 712 l 159 741 q 190 792 222 818 q 253 844 296 844 l 296 844 q 312 844 336 839 q 359 834 384 828 q 408 821 431 816 q 454 811 469 811 l 469 811 q 483 811 503 821 q 522 830 534 844 l 534 844"},"€":{"x_min":21,"x_max":607,"ha":589,"o":"m 58 354 l 75 429 l 152 429 q 193 529 273 587 q 353 645 479 645 l 479 645 q 517 645 550 640 q 582 634 607 625 l 607 625 l 581 561 q 566 567 542 572 q 517 576 501 576 l 501 576 q 478 576 459 565 q 439 553 423 533 q 407 513 395 486 q 382 459 372 429 l 372 429 l 495 429 l 479 354 l 352 354 q 347 330 344 307 q 340 283 338 261 l 338 261 l 458 261 l 442 186 l 331 186 l 331 155 q 331 125 335 107 q 339 89 347 79 q 354 69 366 66 q 378 62 395 62 l 395 62 q 413 62 438 66 q 462 69 487 80 l 487 80 q 487 79 492 71 q 497 62 502 51 l 502 51 q 508 39 517 23 l 517 23 q 485 8 449 0 q 413 -8 364 -8 l 364 -8 q 252 -8 193 38 q 133 83 121 186 l 121 186 l 21 186 l 38 261 l 118 261 q 119 285 122 308 q 124 331 129 354 l 129 354 l 58 354"},"F":{"x_min":0,"x_max":556,"ha":491,"o":"m 0 0 l 135 635 l 556 635 l 540 559 l 335 559 l 296 376 l 467 376 l 451 299 l 280 299 l 216 0 l 0 0"},"G":{"x_min":35,"x_max":652,"ha":642,"o":"m 340 223 l 355 290 l 614 290 l 556 0 l 438 0 l 419 64 l 415 64 q 389 34 354 13 q 318 -8 261 -8 l 261 -8 q 217 -8 177 7 q 136 21 105 53 q 73 84 54 135 q 35 186 35 258 l 35 258 q 35 336 59 406 q 83 476 131 530 q 179 583 251 614 q 323 645 419 645 l 419 645 q 493 645 548 628 q 603 611 652 590 l 652 590 l 614 396 l 445 396 q 446 407 448 422 q 450 437 451 454 q 452 470 453 486 q 454 502 454 514 l 454 514 q 454 522 453 533 q 452 543 448 553 q 444 563 436 570 q 428 576 413 576 l 413 576 q 387 576 366 555 q 344 533 327 498 q 310 462 298 417 q 285 372 277 326 q 268 279 264 235 q 259 190 259 157 l 259 157 q 259 147 260 132 q 261 117 267 103 q 272 88 283 78 q 293 67 313 67 l 313 67 q 346 67 377 103 q 408 139 424 223 l 424 223 l 340 223"},"Ğ":{"x_min":35,"x_max":652,"ha":642,"o":"m 340 223 l 355 290 l 614 290 l 556 0 l 438 0 l 419 64 l 415 64 q 389 34 354 13 q 318 -8 261 -8 l 261 -8 q 217 -8 177 7 q 136 21 105 53 q 73 84 54 135 q 35 186 35 258 l 35 258 q 35 336 59 406 q 83 476 131 530 q 179 583 251 614 q 323 645 419 645 l 419 645 q 493 645 548 628 q 603 611 652 590 l 652 590 l 614 396 l 445 396 q 446 407 448 422 q 450 437 451 454 q 452 470 453 486 q 454 502 454 514 l 454 514 q 454 522 453 533 q 452 543 448 553 q 444 563 436 570 q 428 576 413 576 l 413 576 q 387 576 366 555 q 344 533 327 498 q 310 462 298 417 q 285 372 277 326 q 268 279 264 235 q 259 190 259 157 l 259 157 q 259 147 260 132 q 261 117 267 103 q 272 88 283 78 q 293 67 313 67 l 313 67 q 346 67 377 103 q 408 139 424 223 l 424 223 l 340 223 m 438 693 l 438 693 q 379 693 344 723 q 309 752 299 818 l 299 818 l 350 839 q 356 819 367 807 q 378 794 392 787 q 405 780 420 778 q 434 775 446 775 l 446 775 q 488 775 527 797 q 565 819 591 854 l 591 854 l 629 820 q 591 751 543 722 q 495 693 438 693"},"Ĝ":{"x_min":35,"x_max":652,"ha":642,"o":"m 340 223 l 355 290 l 614 290 l 556 0 l 438 0 l 419 64 l 415 64 q 389 34 354 13 q 318 -8 261 -8 l 261 -8 q 217 -8 177 7 q 136 21 105 53 q 73 84 54 135 q 35 186 35 258 l 35 258 q 35 336 59 406 q 83 476 131 530 q 179 583 251 614 q 323 645 419 645 l 419 645 q 493 645 548 628 q 603 611 652 590 l 652 590 l 614 396 l 445 396 q 446 407 448 422 q 450 437 451 454 q 452 470 453 486 q 454 502 454 514 l 454 514 q 454 522 453 533 q 452 543 448 553 q 444 563 436 570 q 428 576 413 576 l 413 576 q 387 576 366 555 q 344 533 327 498 q 310 462 298 417 q 285 372 277 326 q 268 279 264 235 q 259 190 259 157 l 259 157 q 259 147 260 132 q 261 117 267 103 q 272 88 283 78 q 293 67 313 67 l 313 67 q 346 67 377 103 q 408 139 424 223 l 424 223 l 340 223 m 329 693 l 243 693 l 389 839 l 538 839 l 621 693 l 545 693 l 462 786 l 329 693"},"Ģ":{"x_min":35,"x_max":652,"ha":642,"o":"m 340 223 l 355 290 l 614 290 l 556 0 l 438 0 l 419 64 l 415 64 q 389 34 354 13 q 318 -8 261 -8 l 261 -8 q 217 -8 177 7 q 136 21 105 53 q 73 84 54 135 q 35 186 35 258 l 35 258 q 35 336 59 406 q 83 476 131 530 q 179 583 251 614 q 323 645 419 645 l 419 645 q 493 645 548 628 q 603 611 652 590 l 652 590 l 614 396 l 445 396 q 446 407 448 422 q 450 437 451 454 q 452 470 453 486 q 454 502 454 514 l 454 514 q 454 522 453 533 q 452 543 448 553 q 444 563 436 570 q 428 576 413 576 l 413 576 q 387 576 366 555 q 344 533 327 498 q 310 462 298 417 q 285 372 277 326 q 268 279 264 235 q 259 190 259 157 l 259 157 q 259 147 260 132 q 261 117 267 103 q 272 88 283 78 q 293 67 313 67 l 313 67 q 346 67 377 103 q 408 139 424 223 l 424 223 l 340 223 m 375 -127 l 375 -127 q 375 -153 363 -177 q 350 -201 330 -221 q 310 -242 286 -258 q 262 -274 238 -284 l 238 -284 l 217 -254 q 242 -235 256 -219 q 269 -203 269 -187 l 269 -187 q 269 -162 229 -135 l 229 -135 q 229 -100 253 -81 q 277 -62 309 -62 l 309 -62 q 338 -62 357 -78 q 375 -94 375 -127"},"Ġ":{"x_min":35,"x_max":652,"ha":642,"o":"m 340 223 l 355 290 l 614 290 l 556 0 l 438 0 l 419 64 l 415 64 q 389 34 354 13 q 318 -8 261 -8 l 261 -8 q 217 -8 177 7 q 136 21 105 53 q 73 84 54 135 q 35 186 35 258 l 35 258 q 35 336 59 406 q 83 476 131 530 q 179 583 251 614 q 323 645 419 645 l 419 645 q 493 645 548 628 q 603 611 652 590 l 652 590 l 614 396 l 445 396 q 446 407 448 422 q 450 437 451 454 q 452 470 453 486 q 454 502 454 514 l 454 514 q 454 522 453 533 q 452 543 448 553 q 444 563 436 570 q 428 576 413 576 l 413 576 q 387 576 366 555 q 344 533 327 498 q 310 462 298 417 q 285 372 277 326 q 268 279 264 235 q 259 190 259 157 l 259 157 q 259 147 260 132 q 261 117 267 103 q 272 88 283 78 q 293 67 313 67 l 313 67 q 346 67 377 103 q 408 139 424 223 l 424 223 l 340 223 m 533 765 l 533 765 q 533 742 524 725 q 514 708 499 696 q 483 684 463 678 q 443 672 422 672 l 422 672 q 382 672 355 691 q 328 710 328 751 l 328 751 q 328 773 337 791 q 346 808 362 820 q 377 831 398 837 q 418 843 440 843 l 440 843 q 479 843 506 824 q 533 805 533 765"},"H":{"x_min":0,"x_max":692,"ha":666,"o":"m 692 635 l 555 0 l 339 0 l 399 283 l 276 283 l 216 0 l 0 0 l 135 635 l 352 635 l 293 359 l 415 359 l 474 635 l 692 635"},"Ħ":{"x_min":19,"x_max":769,"ha":704,"o":"m 711 635 l 686 523 l 769 523 l 751 446 l 670 446 l 574 0 l 358 0 l 418 283 l 295 283 l 235 0 l 19 0 l 114 446 l 30 446 l 49 523 l 130 523 l 154 635 l 371 635 l 347 523 l 469 523 l 493 635 l 711 635 m 312 359 l 434 359 l 452 446 l 330 446 l 312 359"},"Ĥ":{"x_min":0,"x_max":692,"ha":666,"o":"m 692 635 l 555 0 l 339 0 l 399 283 l 276 283 l 216 0 l 0 0 l 135 635 l 352 635 l 293 359 l 415 359 l 474 635 l 692 635 m 319 693 l 233 693 l 379 839 l 528 839 l 611 693 l 535 693 l 452 786 l 319 693"},"Ḥ":{"x_min":0,"x_max":692,"ha":666,"o":"m 692 635 l 555 0 l 339 0 l 399 283 l 276 283 l 216 0 l 0 0 l 135 635 l 352 635 l 293 359 l 415 359 l 474 635 l 692 635 m 326 -144 l 326 -144 q 326 -162 319 -176 q 311 -190 299 -199 q 286 -208 270 -213 q 253 -218 236 -218 l 236 -218 q 204 -218 182 -203 q 159 -188 159 -154 l 159 -154 q 159 -118 187 -99 q 214 -81 250 -81 l 250 -81 q 282 -81 304 -96 q 326 -111 326 -144"},"I":{"x_min":0,"x_max":352,"ha":326,"o":"m 352 635 l 216 0 l 0 0 l 135 635 l 352 635"},"Ĳ":{"x_min":0,"x_max":942,"ha":912,"o":"m 352 635 l 216 0 l 0 0 l 135 635 l 352 635 m 304 84 l 336 235 l 524 235 q 524 232 522 221 q 519 209 516 193 q 513 177 511 158 q 508 139 508 123 l 508 123 q 508 113 510 102 q 512 91 517 82 q 522 72 532 66 q 541 59 555 59 l 555 59 q 581 59 597 81 q 612 102 624 159 l 624 159 l 725 635 l 942 635 l 844 176 q 831 117 799 81 q 767 44 726 24 q 684 4 637 -2 q 590 -9 547 -9 l 547 -9 q 497 -9 461 -2 q 425 4 398 16 q 370 28 348 46 q 326 63 304 84 l 304 84"},"Í":{"x_min":0,"x_max":455,"ha":326,"o":"m 352 635 l 216 0 l 0 0 l 135 635 l 352 635 m 276 693 l 190 693 l 283 839 l 455 839 l 276 693"},"Ĭ":{"x_min":0,"x_max":449,"ha":326,"o":"m 352 635 l 216 0 l 0 0 l 135 635 l 352 635 m 258 693 l 258 693 q 199 693 164 723 q 129 752 119 818 l 119 818 l 170 839 q 176 819 187 807 q 198 794 212 787 q 225 780 240 778 q 254 775 266 775 l 266 775 q 308 775 347 797 q 385 819 411 854 l 411 854 l 449 820 q 411 751 363 722 q 315 693 258 693"},"Î":{"x_min":0,"x_max":440,"ha":326,"o":"m 352 635 l 216 0 l 0 0 l 135 635 l 352 635 m 148 693 l 62 693 l 208 839 l 357 839 l 440 693 l 364 693 l 281 786 l 148 693"},"Ï":{"x_min":0,"x_max":445,"ha":326,"o":"m 352 635 l 216 0 l 0 0 l 135 635 l 352 635 m 162 835 l 162 835 q 198 835 215 815 q 232 794 232 765 l 232 765 q 232 733 212 708 q 191 682 151 682 l 151 682 q 114 682 97 703 q 80 723 80 752 l 80 752 q 80 784 101 810 q 122 835 162 835 m 374 835 l 374 835 q 411 835 428 815 q 445 794 445 765 l 445 765 q 445 733 424 708 q 403 682 363 682 l 363 682 q 326 682 309 703 q 292 723 292 752 l 292 752 q 292 784 313 810 q 334 835 374 835"},"İ":{"x_min":0,"x_max":352,"ha":326,"o":"m 352 635 l 216 0 l 0 0 l 135 635 l 352 635 m 352 765 l 352 765 q 352 742 343 725 q 333 708 318 696 q 302 684 282 678 q 262 672 241 672 l 241 672 q 201 672 174 691 q 147 710 147 751 l 147 751 q 147 773 156 791 q 165 808 181 820 q 196 831 217 837 q 237 843 259 843 l 259 843 q 298 843 325 824 q 352 805 352 765"},"Ị":{"x_min":-4,"x_max":352,"ha":326,"o":"m 352 635 l 216 0 l 0 0 l 135 635 l 352 635 m 163 -144 l 163 -144 q 163 -162 156 -176 q 148 -190 136 -199 q 123 -208 107 -213 q 90 -218 73 -218 l 73 -218 q 41 -218 19 -203 q -4 -188 -4 -154 l -4 -154 q -4 -118 24 -99 q 51 -81 87 -81 l 87 -81 q 119 -81 141 -96 q 163 -111 163 -144"},"Ì":{"x_min":0,"x_max":352,"ha":326,"o":"m 352 635 l 216 0 l 0 0 l 135 635 l 352 635 m 204 693 l 19 839 l 192 839 l 297 693 l 204 693"},"Ī":{"x_min":0,"x_max":458,"ha":326,"o":"m 352 635 l 216 0 l 0 0 l 135 635 l 352 635 m 84 730 l 103 807 l 458 807 l 440 730 l 84 730"},"Į":{"x_min":-48,"x_max":352,"ha":326,"o":"m 352 635 l 216 0 l 158 0 q 144 -9 131 -19 q 117 -30 106 -42 q 94 -55 87 -69 q 80 -84 80 -100 l 80 -100 q 80 -120 89 -129 q 98 -138 111 -138 l 111 -138 q 120 -138 133 -132 q 145 -127 163 -112 l 163 -112 l 186 -154 q 156 -179 116 -191 q 76 -204 38 -204 l 38 -204 q -48 -204 -48 -130 l -48 -130 q -48 -105 -38 -84 q -28 -64 -12 -48 q 4 -32 24 -20 q 43 -8 63 0 l 63 0 l 0 0 l 135 635 l 352 635"},"Ĩ":{"x_min":0,"x_max":489,"ha":326,"o":"m 352 635 l 216 0 l 0 0 l 135 635 l 352 635 m 454 844 l 489 819 q 459 764 429 737 q 399 710 354 710 l 354 710 q 336 710 312 716 q 287 722 262 729 q 236 735 214 741 q 191 747 177 747 l 177 747 q 159 747 140 735 q 121 723 112 712 l 112 712 l 79 741 q 110 792 142 818 q 173 844 216 844 l 216 844 q 232 844 256 839 q 279 834 304 828 q 328 821 351 816 q 374 811 389 811 l 389 811 q 403 811 423 821 q 442 830 454 844 l 454 844"},"J":{"x_min":-18,"x_max":620,"ha":590,"o":"m -18 84 l 14 235 l 202 235 q 202 232 200 221 q 197 209 194 193 q 191 177 189 158 q 186 139 186 123 l 186 123 q 186 113 188 102 q 190 91 195 82 q 200 72 210 66 q 219 59 233 59 l 233 59 q 259 59 275 81 q 290 102 302 159 l 302 159 l 403 635 l 620 635 l 522 176 q 509 117 477 81 q 445 44 404 24 q 362 4 315 -2 q 268 -9 225 -9 l 225 -9 q 175 -9 139 -2 q 103 4 76 16 q 48 28 26 46 q 4 63 -18 84 l -18 84"},"Ĵ":{"x_min":-18,"x_max":706,"ha":590,"o":"m -18 84 l 14 235 l 202 235 q 202 232 200 221 q 197 209 194 193 q 191 177 189 158 q 186 139 186 123 l 186 123 q 186 113 188 102 q 190 91 195 82 q 200 72 210 66 q 219 59 233 59 l 233 59 q 259 59 275 81 q 290 102 302 159 l 302 159 l 403 635 l 620 635 l 522 176 q 509 117 477 81 q 445 44 404 24 q 362 4 315 -2 q 268 -9 225 -9 l 225 -9 q 175 -9 139 -2 q 103 4 76 16 q 48 28 26 46 q 4 63 -18 84 l -18 84 m 414 693 l 328 693 l 474 839 l 623 839 l 706 693 l 630 693 l 547 786 l 414 693"},"K":{"x_min":0,"x_max":653,"ha":608,"o":"m 352 635 l 293 359 l 540 636 l 653 636 l 429 393 l 581 0 l 363 0 l 275 279 l 216 0 l 0 0 l 135 635 l 352 635"},"Ķ":{"x_min":0,"x_max":653,"ha":608,"o":"m 352 635 l 293 359 l 540 636 l 653 636 l 429 393 l 581 0 l 363 0 l 275 279 l 216 0 l 0 0 l 135 635 l 352 635 m 333 -127 l 333 -127 q 333 -153 321 -177 q 308 -201 288 -221 q 268 -242 244 -258 q 220 -274 196 -284 l 196 -284 l 175 -254 q 200 -235 214 -219 q 227 -203 227 -187 l 227 -187 q 227 -162 187 -135 l 187 -135 q 187 -100 211 -81 q 235 -62 267 -62 l 267 -62 q 296 -62 315 -78 q 333 -94 333 -127"},"L":{"x_min":0,"x_max":437,"ha":482,"o":"m 0 0 l 135 635 l 352 635 l 234 84 l 437 84 l 420 0 l 0 0"},"Ĺ":{"x_min":0,"x_max":474,"ha":482,"o":"m 0 0 l 135 635 l 352 635 l 234 84 l 437 84 l 420 0 l 0 0 m 295 693 l 209 693 l 302 839 l 474 839 l 295 693"},"Ľ":{"x_min":0,"x_max":485,"ha":482,"o":"m 0 0 l 135 635 l 352 635 l 234 84 l 437 84 l 420 0 l 0 0 m 399 839 l 485 839 l 339 693 l 190 693 l 107 839 l 184 839 l 267 747 l 399 839"},"Ļ":{"x_min":0,"x_max":437,"ha":482,"o":"m 0 0 l 135 635 l 352 635 l 234 84 l 437 84 l 420 0 l 0 0 m 264 -127 l 264 -127 q 264 -153 252 -177 q 239 -201 219 -221 q 199 -242 175 -258 q 151 -274 127 -284 l 127 -284 l 106 -254 q 131 -235 145 -219 q 158 -203 158 -187 l 158 -187 q 158 -162 118 -135 l 118 -135 q 118 -100 142 -81 q 166 -62 198 -62 l 198 -62 q 227 -62 246 -78 q 264 -94 264 -127"},"Ŀ":{"x_min":0,"x_max":516,"ha":505,"o":"m 0 0 l 135 635 l 352 635 l 234 84 l 437 84 l 420 0 l 0 0 m 516 311 l 516 311 q 516 288 507 271 q 497 254 482 242 q 466 230 446 224 q 426 218 405 218 l 405 218 q 365 218 338 237 q 311 256 311 297 l 311 297 q 311 319 320 337 q 329 354 345 366 q 360 377 381 383 q 401 389 423 389 l 423 389 q 462 389 489 370 q 516 351 516 311"},"Ł":{"x_min":-8,"x_max":470,"ha":514,"o":"m -8 243 l 8 338 l 109 356 l 168 635 l 385 635 l 334 397 l 433 415 l 412 318 l 313 300 l 267 84 l 470 84 l 453 0 l 33 0 l 88 260 l -8 243"},"M":{"x_min":0,"x_max":870,"ha":844,"o":"m 870 635 l 734 0 l 512 0 l 604 432 l 367 0 l 231 0 l 186 447 l 90 0 l 0 0 l 135 635 l 390 635 l 421 277 l 613 635 l 870 635"},"N":{"x_min":0,"x_max":670,"ha":644,"o":"m 670 635 l 533 0 l 299 0 l 188 459 l 90 0 l 0 0 l 135 635 l 374 635 l 479 170 l 578 635 l 670 635"},"Ń":{"x_min":0,"x_max":670,"ha":644,"o":"m 670 635 l 533 0 l 299 0 l 188 459 l 90 0 l 0 0 l 135 635 l 374 635 l 479 170 l 578 635 l 670 635 m 452 693 l 366 693 l 459 839 l 631 839 l 452 693"},"Ň":{"x_min":0,"x_max":670,"ha":644,"o":"m 670 635 l 533 0 l 299 0 l 188 459 l 90 0 l 0 0 l 135 635 l 374 635 l 479 170 l 578 635 l 670 635 m 530 839 l 616 839 l 470 693 l 321 693 l 238 839 l 315 839 l 398 747 l 530 839"},"Ņ":{"x_min":0,"x_max":670,"ha":644,"o":"m 670 635 l 533 0 l 299 0 l 188 459 l 90 0 l 0 0 l 135 635 l 374 635 l 479 170 l 578 635 l 670 635 m 334 -127 l 334 -127 q 334 -153 322 -177 q 309 -201 289 -221 q 269 -242 245 -258 q 221 -274 197 -284 l 197 -284 l 176 -254 q 201 -235 215 -219 q 228 -203 228 -187 l 228 -187 q 228 -162 188 -135 l 188 -135 q 188 -100 212 -81 q 236 -62 268 -62 l 268 -62 q 297 -62 316 -78 q 334 -94 334 -127"},"Ṅ":{"x_min":0,"x_max":670,"ha":644,"o":"m 670 635 l 533 0 l 299 0 l 188 459 l 90 0 l 0 0 l 135 635 l 374 635 l 479 170 l 578 635 l 670 635 m 541 765 l 541 765 q 541 742 532 725 q 522 708 507 696 q 491 684 471 678 q 451 672 430 672 l 430 672 q 390 672 363 691 q 336 710 336 751 l 336 751 q 336 773 345 791 q 354 808 370 820 q 385 831 406 837 q 426 843 448 843 l 448 843 q 487 843 514 824 q 541 805 541 765"},"Ñ":{"x_min":0,"x_max":670,"ha":644,"o":"m 670 635 l 533 0 l 299 0 l 188 459 l 90 0 l 0 0 l 135 635 l 374 635 l 479 170 l 578 635 l 670 635 m 609 844 l 644 819 q 614 764 584 737 q 554 710 509 710 l 509 710 q 491 710 467 716 q 442 722 417 729 q 391 735 369 741 q 346 747 332 747 l 332 747 q 314 747 295 735 q 276 723 267 712 l 267 712 l 234 741 q 265 792 297 818 q 328 844 371 844 l 371 844 q 387 844 411 839 q 434 834 459 828 q 483 821 506 816 q 529 811 544 811 l 544 811 q 558 811 578 821 q 597 830 609 844 l 609 844"},"O":{"x_min":35,"x_max":677,"ha":685,"o":"m 411 645 l 411 645 q 497 645 551 623 q 604 601 635 555 l 635 555 q 655 524 666 485 q 677 446 677 395 l 677 395 q 677 351 669 307 q 661 263 647 223 q 632 182 612 147 q 591 111 566 84 l 566 84 q 519 33 458 13 q 396 -8 306 -8 l 306 -8 q 219 -8 166 10 q 113 28 82 68 l 82 68 q 60 96 48 139 q 35 182 35 247 l 35 247 q 35 358 75 446 q 114 533 187 584 l 187 584 q 231 615 285 630 q 339 645 411 645 m 298 62 l 298 62 q 321 62 342 83 q 362 103 380 138 q 397 172 412 216 q 426 260 436 307 q 446 354 452 401 q 457 447 457 485 l 457 485 q 457 537 447 557 q 436 576 416 576 l 416 576 q 393 576 372 556 q 351 536 333 503 q 314 469 300 426 q 285 382 275 336 q 264 290 259 245 q 253 200 253 162 l 253 162 q 253 105 266 84 q 278 62 298 62"},"Œ":{"x_min":34,"x_max":927,"ha":874,"o":"m 412 640 l 412 640 q 444 640 467 640 q 490 639 508 635 l 508 635 l 927 635 l 911 559 l 707 559 l 665 366 l 836 366 l 820 291 l 649 291 l 603 77 l 807 77 l 792 0 l 406 0 q 383 -4 358 -6 q 332 -8 304 -8 l 304 -8 q 218 -8 165 10 q 112 28 81 68 l 81 68 q 34 127 34 245 l 34 245 q 34 352 74 440 q 113 527 185 577 l 185 577 q 230 608 285 624 q 340 640 412 640 m 297 62 l 297 62 q 320 62 341 83 q 361 103 379 137 q 396 171 411 215 q 425 259 435 305 q 445 351 451 397 q 456 442 456 480 l 456 480 q 456 531 446 551 q 435 570 415 570 l 415 570 q 392 570 371 550 q 350 530 332 497 q 313 464 299 421 q 284 378 274 333 q 263 287 258 243 q 252 198 252 161 l 252 161 q 252 105 265 84 q 277 62 297 62"},"Ó":{"x_min":35,"x_max":677,"ha":685,"o":"m 411 645 l 411 645 q 497 645 551 623 q 604 601 635 555 l 635 555 q 655 524 666 485 q 677 446 677 395 l 677 395 q 677 351 669 307 q 661 263 647 223 q 632 182 612 147 q 591 111 566 84 l 566 84 q 519 33 458 13 q 396 -8 306 -8 l 306 -8 q 219 -8 166 10 q 113 28 82 68 l 82 68 q 60 96 48 139 q 35 182 35 247 l 35 247 q 35 358 75 446 q 114 533 187 584 l 187 584 q 231 615 285 630 q 339 645 411 645 m 298 62 l 298 62 q 321 62 342 83 q 362 103 380 138 q 397 172 412 216 q 426 260 436 307 q 446 354 452 401 q 457 447 457 485 l 457 485 q 457 537 447 557 q 436 576 416 576 l 416 576 q 393 576 372 556 q 351 536 333 503 q 314 469 300 426 q 285 382 275 336 q 264 290 259 245 q 253 200 253 162 l 253 162 q 253 105 266 84 q 278 62 298 62 m 472 693 l 386 693 l 479 839 l 651 839 l 472 693"},"Ŏ":{"x_min":35,"x_max":677,"ha":685,"o":"m 411 645 l 411 645 q 497 645 551 623 q 604 601 635 555 l 635 555 q 655 524 666 485 q 677 446 677 395 l 677 395 q 677 351 669 307 q 661 263 647 223 q 632 182 612 147 q 591 111 566 84 l 566 84 q 519 33 458 13 q 396 -8 306 -8 l 306 -8 q 219 -8 166 10 q 113 28 82 68 l 82 68 q 60 96 48 139 q 35 182 35 247 l 35 247 q 35 358 75 446 q 114 533 187 584 l 187 584 q 231 615 285 630 q 339 645 411 645 m 298 62 l 298 62 q 321 62 342 83 q 362 103 380 138 q 397 172 412 216 q 426 260 436 307 q 446 354 452 401 q 457 447 457 485 l 457 485 q 457 537 447 557 q 436 576 416 576 l 416 576 q 393 576 372 556 q 351 536 333 503 q 314 469 300 426 q 285 382 275 336 q 264 290 259 245 q 253 200 253 162 l 253 162 q 253 105 266 84 q 278 62 298 62 m 434 693 l 434 693 q 375 693 340 723 q 305 752 295 818 l 295 818 l 346 839 q 352 819 363 807 q 374 794 388 787 q 401 780 416 778 q 430 775 442 775 l 442 775 q 484 775 523 797 q 561 819 587 854 l 587 854 l 625 820 q 587 751 539 722 q 491 693 434 693"},"Ô":{"x_min":35,"x_max":677,"ha":685,"o":"m 411 645 l 411 645 q 497 645 551 623 q 604 601 635 555 l 635 555 q 655 524 666 485 q 677 446 677 395 l 677 395 q 677 351 669 307 q 661 263 647 223 q 632 182 612 147 q 591 111 566 84 l 566 84 q 519 33 458 13 q 396 -8 306 -8 l 306 -8 q 219 -8 166 10 q 113 28 82 68 l 82 68 q 60 96 48 139 q 35 182 35 247 l 35 247 q 35 358 75 446 q 114 533 187 584 l 187 584 q 231 615 285 630 q 339 645 411 645 m 298 62 l 298 62 q 321 62 342 83 q 362 103 380 138 q 397 172 412 216 q 426 260 436 307 q 446 354 452 401 q 457 447 457 485 l 457 485 q 457 537 447 557 q 436 576 416 576 l 416 576 q 393 576 372 556 q 351 536 333 503 q 314 469 300 426 q 285 382 275 336 q 264 290 259 245 q 253 200 253 162 l 253 162 q 253 105 266 84 q 278 62 298 62 m 344 693 l 258 693 l 404 839 l 553 839 l 636 693 l 560 693 l 477 786 l 344 693"},"Ö":{"x_min":35,"x_max":677,"ha":685,"o":"m 411 645 l 411 645 q 497 645 551 623 q 604 601 635 555 l 635 555 q 655 524 666 485 q 677 446 677 395 l 677 395 q 677 351 669 307 q 661 263 647 223 q 632 182 612 147 q 591 111 566 84 l 566 84 q 519 33 458 13 q 396 -8 306 -8 l 306 -8 q 219 -8 166 10 q 113 28 82 68 l 82 68 q 60 96 48 139 q 35 182 35 247 l 35 247 q 35 358 75 446 q 114 533 187 584 l 187 584 q 231 615 285 630 q 339 645 411 645 m 298 62 l 298 62 q 321 62 342 83 q 362 103 380 138 q 397 172 412 216 q 426 260 436 307 q 446 354 452 401 q 457 447 457 485 l 457 485 q 457 537 447 557 q 436 576 416 576 l 416 576 q 393 576 372 556 q 351 536 333 503 q 314 469 300 426 q 285 382 275 336 q 264 290 259 245 q 253 200 253 162 l 253 162 q 253 105 266 84 q 278 62 298 62 m 343 835 l 343 835 q 379 835 396 815 q 413 794 413 765 l 413 765 q 413 733 393 708 q 372 682 332 682 l 332 682 q 295 682 278 703 q 261 723 261 752 l 261 752 q 261 784 282 810 q 303 835 343 835 m 555 835 l 555 835 q 592 835 609 815 q 626 794 626 765 l 626 765 q 626 733 605 708 q 584 682 544 682 l 544 682 q 507 682 490 703 q 473 723 473 752 l 473 752 q 473 784 494 810 q 515 835 555 835"},"Ọ":{"x_min":35,"x_max":677,"ha":685,"o":"m 411 645 l 411 645 q 497 645 551 623 q 604 601 635 555 l 635 555 q 655 524 666 485 q 677 446 677 395 l 677 395 q 677 351 669 307 q 661 263 647 223 q 632 182 612 147 q 591 111 566 84 l 566 84 q 519 33 458 13 q 396 -8 306 -8 l 306 -8 q 219 -8 166 10 q 113 28 82 68 l 82 68 q 60 96 48 139 q 35 182 35 247 l 35 247 q 35 358 75 446 q 114 533 187 584 l 187 584 q 231 615 285 630 q 339 645 411 645 m 298 62 l 298 62 q 321 62 342 83 q 362 103 380 138 q 397 172 412 216 q 426 260 436 307 q 446 354 452 401 q 457 447 457 485 l 457 485 q 457 537 447 557 q 436 576 416 576 l 416 576 q 393 576 372 556 q 351 536 333 503 q 314 469 300 426 q 285 382 275 336 q 264 290 259 245 q 253 200 253 162 l 253 162 q 253 105 266 84 q 278 62 298 62 m 340 -144 l 340 -144 q 340 -162 333 -176 q 325 -190 313 -199 q 300 -208 284 -213 q 267 -218 250 -218 l 250 -218 q 218 -218 196 -203 q 173 -188 173 -154 l 173 -154 q 173 -118 201 -99 q 228 -81 264 -81 l 264 -81 q 296 -81 318 -96 q 340 -111 340 -144"},"Ò":{"x_min":35,"x_max":677,"ha":685,"o":"m 411 645 l 411 645 q 497 645 551 623 q 604 601 635 555 l 635 555 q 655 524 666 485 q 677 446 677 395 l 677 395 q 677 351 669 307 q 661 263 647 223 q 632 182 612 147 q 591 111 566 84 l 566 84 q 519 33 458 13 q 396 -8 306 -8 l 306 -8 q 219 -8 166 10 q 113 28 82 68 l 82 68 q 60 96 48 139 q 35 182 35 247 l 35 247 q 35 358 75 446 q 114 533 187 584 l 187 584 q 231 615 285 630 q 339 645 411 645 m 298 62 l 298 62 q 321 62 342 83 q 362 103 380 138 q 397 172 412 216 q 426 260 436 307 q 446 354 452 401 q 457 447 457 485 l 457 485 q 457 537 447 557 q 436 576 416 576 l 416 576 q 393 576 372 556 q 351 536 333 503 q 314 469 300 426 q 285 382 275 336 q 264 290 259 245 q 253 200 253 162 l 253 162 q 253 105 266 84 q 278 62 298 62 m 400 693 l 215 839 l 388 839 l 493 693 l 400 693"},"Ő":{"x_min":35,"x_max":787,"ha":685,"o":"m 411 645 l 411 645 q 497 645 551 623 q 604 601 635 555 l 635 555 q 655 524 666 485 q 677 446 677 395 l 677 395 q 677 351 669 307 q 661 263 647 223 q 632 182 612 147 q 591 111 566 84 l 566 84 q 519 33 458 13 q 396 -8 306 -8 l 306 -8 q 219 -8 166 10 q 113 28 82 68 l 82 68 q 60 96 48 139 q 35 182 35 247 l 35 247 q 35 358 75 446 q 114 533 187 584 l 187 584 q 231 615 285 630 q 339 645 411 645 m 298 62 l 298 62 q 321 62 342 83 q 362 103 380 138 q 397 172 412 216 q 426 260 436 307 q 446 354 452 401 q 457 447 457 485 l 457 485 q 457 537 447 557 q 436 576 416 576 l 416 576 q 393 576 372 556 q 351 536 333 503 q 314 469 300 426 q 285 382 275 336 q 264 290 259 245 q 253 200 253 162 l 253 162 q 253 105 266 84 q 278 62 298 62 m 355 693 l 269 693 l 382 839 l 554 839 l 355 693 m 588 693 l 502 693 l 615 839 l 787 839 l 588 693"},"Ō":{"x_min":35,"x_max":677,"ha":685,"o":"m 411 645 l 411 645 q 497 645 551 623 q 604 601 635 555 l 635 555 q 655 524 666 485 q 677 446 677 395 l 677 395 q 677 351 669 307 q 661 263 647 223 q 632 182 612 147 q 591 111 566 84 l 566 84 q 519 33 458 13 q 396 -8 306 -8 l 306 -8 q 219 -8 166 10 q 113 28 82 68 l 82 68 q 60 96 48 139 q 35 182 35 247 l 35 247 q 35 358 75 446 q 114 533 187 584 l 187 584 q 231 615 285 630 q 339 645 411 645 m 298 62 l 298 62 q 321 62 342 83 q 362 103 380 138 q 397 172 412 216 q 426 260 436 307 q 446 354 452 401 q 457 447 457 485 l 457 485 q 457 537 447 557 q 436 576 416 576 l 416 576 q 393 576 372 556 q 351 536 333 503 q 314 469 300 426 q 285 382 275 336 q 264 290 259 245 q 253 200 253 162 l 253 162 q 253 105 266 84 q 278 62 298 62 m 260 730 l 279 807 l 634 807 l 616 730 l 260 730"},"Ǫ":{"x_min":35,"x_max":677,"ha":685,"o":"m 411 645 l 411 645 q 497 645 551 623 q 604 601 635 555 l 635 555 q 655 524 666 485 q 677 446 677 395 l 677 395 q 677 351 669 307 q 661 263 647 223 q 632 182 612 147 q 591 111 566 84 l 566 84 q 521 34 462 14 q 402 -7 318 -8 l 318 -8 q 293 -25 273 -48 q 252 -71 252 -100 l 252 -100 q 252 -120 261 -129 q 270 -138 283 -138 l 283 -138 q 292 -138 305 -132 q 317 -127 335 -112 l 335 -112 l 358 -154 q 328 -179 288 -191 q 248 -204 210 -204 l 210 -204 q 124 -204 124 -130 l 124 -130 q 124 -106 133 -86 q 142 -66 157 -50 q 172 -35 191 -23 q 209 -12 228 -3 l 228 -3 q 175 3 140 21 q 105 38 82 68 l 82 68 q 60 96 48 139 q 35 182 35 247 l 35 247 q 35 358 75 446 q 114 533 187 584 l 187 584 q 231 615 285 630 q 339 645 411 645 m 298 62 l 298 62 q 321 62 342 83 q 362 103 380 138 q 397 172 412 216 q 426 260 436 307 q 446 354 452 401 q 457 447 457 485 l 457 485 q 457 537 447 557 q 436 576 416 576 l 416 576 q 393 576 372 556 q 351 536 333 503 q 314 469 300 426 q 285 382 275 336 q 264 290 259 245 q 253 200 253 162 l 253 162 q 253 105 266 84 q 278 62 298 62"},"Ø":{"x_min":35,"x_max":677,"ha":685,"o":"m 411 645 l 411 645 q 511 645 570 614 l 570 614 l 608 657 l 655 617 l 619 575 q 648 546 663 499 q 677 452 677 395 l 677 395 q 677 351 669 307 q 661 263 647 223 q 632 182 612 147 q 591 111 566 84 l 566 84 q 519 33 458 13 q 396 -8 306 -8 l 306 -8 q 199 -8 140 20 l 140 20 l 101 -25 l 44 19 l 84 64 l 82 68 q 60 96 48 139 q 35 182 35 247 l 35 247 q 35 335 59 409 q 83 482 131 535 q 178 587 249 616 q 319 645 411 645 m 298 62 l 298 62 q 325 62 349 91 q 373 119 393 165 q 412 210 426 266 q 440 322 448 377 l 448 377 l 253 151 q 254 100 266 81 q 278 62 298 62 m 416 576 l 416 576 q 388 576 364 548 q 339 519 319 474 q 298 429 284 374 q 269 318 261 264 l 261 264 l 457 486 q 457 537 447 557 q 436 576 416 576"},"Ǿ":{"x_min":35,"x_max":677,"ha":685,"o":"m 462 693 l 376 693 l 469 839 l 641 839 l 462 693 m 411 645 l 411 645 q 511 645 570 614 l 570 614 l 608 657 l 655 617 l 619 575 q 648 546 663 499 q 677 452 677 395 l 677 395 q 677 351 669 307 q 661 263 647 223 q 632 182 612 147 q 591 111 566 84 l 566 84 q 519 33 458 13 q 396 -8 306 -8 l 306 -8 q 199 -8 140 20 l 140 20 l 101 -25 l 44 19 l 84 64 l 82 68 q 60 96 48 139 q 35 182 35 247 l 35 247 q 35 335 59 409 q 83 482 131 535 q 178 587 249 616 q 319 645 411 645 m 298 62 l 298 62 q 325 62 349 91 q 373 119 393 165 q 412 210 426 266 q 440 322 448 377 l 448 377 l 253 151 q 254 100 266 81 q 278 62 298 62 m 416 576 l 416 576 q 388 576 364 548 q 339 519 319 474 q 298 429 284 374 q 269 318 261 264 l 261 264 l 457 486 q 457 537 447 557 q 436 576 416 576"},"Õ":{"x_min":35,"x_max":677,"ha":685,"o":"m 411 645 l 411 645 q 497 645 551 623 q 604 601 635 555 l 635 555 q 655 524 666 485 q 677 446 677 395 l 677 395 q 677 351 669 307 q 661 263 647 223 q 632 182 612 147 q 591 111 566 84 l 566 84 q 519 33 458 13 q 396 -8 306 -8 l 306 -8 q 219 -8 166 10 q 113 28 82 68 l 82 68 q 60 96 48 139 q 35 182 35 247 l 35 247 q 35 358 75 446 q 114 533 187 584 l 187 584 q 231 615 285 630 q 339 645 411 645 m 298 62 l 298 62 q 321 62 342 83 q 362 103 380 138 q 397 172 412 216 q 426 260 436 307 q 446 354 452 401 q 457 447 457 485 l 457 485 q 457 537 447 557 q 436 576 416 576 l 416 576 q 393 576 372 556 q 351 536 333 503 q 314 469 300 426 q 285 382 275 336 q 264 290 259 245 q 253 200 253 162 l 253 162 q 253 105 266 84 q 278 62 298 62 m 622 844 l 657 819 q 627 764 597 737 q 567 710 522 710 l 522 710 q 504 710 480 716 q 455 722 430 729 q 404 735 382 741 q 359 747 345 747 l 345 747 q 327 747 308 735 q 289 723 280 712 l 280 712 l 247 741 q 278 792 310 818 q 341 844 384 844 l 384 844 q 400 844 424 839 q 447 834 472 828 q 496 821 519 816 q 542 811 557 811 l 557 811 q 571 811 591 821 q 610 830 622 844 l 622 844"},"P":{"x_min":0,"x_max":623,"ha":600,"o":"m 275 274 l 321 274 q 351 274 372 299 q 392 324 406 360 q 419 396 425 435 q 431 474 431 503 l 431 503 q 431 530 422 549 q 413 567 383 567 l 383 567 l 338 567 l 275 274 m 318 210 l 261 210 l 216 0 l 0 0 l 135 635 l 366 635 q 423 635 470 629 q 517 623 551 605 q 585 587 604 554 q 623 520 623 464 l 623 464 q 623 412 607 366 q 590 319 554 285 q 517 250 459 230 q 401 210 318 210 l 318 210"},"Q":{"x_min":35,"x_max":677,"ha":685,"o":"m 411 645 l 411 645 q 497 645 551 623 q 604 601 635 555 l 635 555 q 655 524 666 485 q 677 446 677 395 l 677 395 q 677 351 669 307 q 661 263 647 223 q 632 182 612 147 q 591 111 566 84 l 566 84 q 506 18 413 0 l 413 0 q 439 -26 473 -42 q 507 -59 543 -67 l 543 -67 q 498 -100 463 -126 l 463 -126 q 448 -137 434 -147 q 419 -158 408 -166 q 397 -175 390 -179 q 382 -184 382 -184 l 382 -184 q 350 -164 327 -140 q 303 -116 287 -91 q 270 -67 260 -44 q 249 -22 243 -5 l 243 -5 q 184 0 146 18 q 107 36 82 68 l 82 68 q 60 96 48 139 q 35 182 35 247 l 35 247 q 35 358 75 446 q 114 533 187 584 l 187 584 q 231 615 285 630 q 339 645 411 645 m 298 62 l 298 62 q 321 62 342 83 q 362 103 380 138 q 397 172 412 216 q 426 260 436 307 q 446 354 452 401 q 457 447 457 485 l 457 485 q 457 537 447 557 q 436 576 416 576 l 416 576 q 393 576 372 556 q 351 536 333 503 q 314 469 300 426 q 285 382 275 336 q 264 290 259 245 q 253 200 253 162 l 253 162 q 253 105 266 84 q 278 62 298 62"},"R":{"x_min":0,"x_max":623,"ha":633,"o":"m 623 484 l 623 484 q 623 425 590 375 q 557 325 481 299 l 481 299 l 597 0 l 374 0 l 286 277 l 275 277 l 216 0 l 0 0 l 135 635 l 398 635 q 444 635 485 630 q 526 624 557 608 q 587 591 605 562 q 623 532 623 484 m 288 341 l 335 341 q 361 341 380 359 q 398 376 410 401 q 421 426 426 455 q 431 483 431 504 l 431 504 q 431 530 422 549 q 413 567 383 567 l 383 567 l 338 567 l 288 341"},"Ŕ":{"x_min":0,"x_max":623,"ha":633,"o":"m 623 484 l 623 484 q 623 425 590 375 q 557 325 481 299 l 481 299 l 597 0 l 374 0 l 286 277 l 275 277 l 216 0 l 0 0 l 135 635 l 398 635 q 444 635 485 630 q 526 624 557 608 q 587 591 605 562 q 623 532 623 484 m 288 341 l 335 341 q 361 341 380 359 q 398 376 410 401 q 421 426 426 455 q 431 483 431 504 l 431 504 q 431 530 422 549 q 413 567 383 567 l 383 567 l 338 567 l 288 341 m 409 693 l 323 693 l 416 839 l 588 839 l 409 693"},"Ř":{"x_min":0,"x_max":623,"ha":633,"o":"m 623 484 l 623 484 q 623 425 590 375 q 557 325 481 299 l 481 299 l 597 0 l 374 0 l 286 277 l 275 277 l 216 0 l 0 0 l 135 635 l 398 635 q 444 635 485 630 q 526 624 557 608 q 587 591 605 562 q 623 532 623 484 m 288 341 l 335 341 q 361 341 380 359 q 398 376 410 401 q 421 426 426 455 q 431 483 431 504 l 431 504 q 431 530 422 549 q 413 567 383 567 l 383 567 l 338 567 l 288 341 m 511 839 l 597 839 l 451 693 l 302 693 l 219 839 l 296 839 l 379 747 l 511 839"},"Ŗ":{"x_min":0,"x_max":623,"ha":633,"o":"m 623 484 l 623 484 q 623 425 590 375 q 557 325 481 299 l 481 299 l 597 0 l 374 0 l 286 277 l 275 277 l 216 0 l 0 0 l 135 635 l 398 635 q 444 635 485 630 q 526 624 557 608 q 587 591 605 562 q 623 532 623 484 m 288 341 l 335 341 q 361 341 380 359 q 398 376 410 401 q 421 426 426 455 q 431 483 431 504 l 431 504 q 431 530 422 549 q 413 567 383 567 l 383 567 l 338 567 l 288 341 m 341 -127 l 341 -127 q 341 -153 329 -177 q 316 -201 296 -221 q 276 -242 252 -258 q 228 -274 204 -284 l 204 -284 l 183 -254 q 208 -235 222 -219 q 235 -203 235 -187 l 235 -187 q 235 -162 195 -135 l 195 -135 q 195 -100 219 -81 q 243 -62 275 -62 l 275 -62 q 304 -62 323 -78 q 341 -94 341 -127"},"Ṛ":{"x_min":0,"x_max":623,"ha":633,"o":"m 623 484 l 623 484 q 623 425 590 375 q 557 325 481 299 l 481 299 l 597 0 l 374 0 l 286 277 l 275 277 l 216 0 l 0 0 l 135 635 l 398 635 q 444 635 485 630 q 526 624 557 608 q 587 591 605 562 q 623 532 623 484 m 288 341 l 335 341 q 361 341 380 359 q 398 376 410 401 q 421 426 426 455 q 431 483 431 504 l 431 504 q 431 530 422 549 q 413 567 383 567 l 383 567 l 338 567 l 288 341 m 351 -144 l 351 -144 q 351 -162 344 -176 q 336 -190 324 -199 q 311 -208 295 -213 q 278 -218 261 -218 l 261 -218 q 229 -218 207 -203 q 184 -188 184 -154 l 184 -154 q 184 -118 212 -99 q 239 -81 275 -81 l 275 -81 q 307 -81 329 -96 q 351 -111 351 -144"},"S":{"x_min":-7,"x_max":597,"ha":587,"o":"m 560 451 l 394 451 q 397 466 397 492 l 397 492 q 397 507 395 522 q 393 536 388 548 q 383 559 373 566 q 363 572 347 572 l 347 572 q 329 572 314 564 q 299 556 288 544 q 276 531 270 515 q 263 498 263 480 l 263 480 q 263 454 277 440 q 290 426 312 417 q 334 408 362 402 q 390 396 420 388 l 420 388 q 445 381 470 370 q 495 359 515 341 q 534 322 546 293 q 558 263 558 219 l 558 219 q 558 156 533 113 q 508 70 464 43 q 420 16 360 4 q 299 -8 228 -8 l 228 -8 q 156 -8 111 2 q 65 11 39 22 l 39 22 q 8 35 -7 52 l -7 52 l 27 189 l 203 189 q 202 180 201 165 q 200 149 200 140 l 200 140 q 200 128 203 115 q 206 102 213 91 q 219 80 231 73 q 243 66 261 66 l 261 66 q 281 66 297 75 q 312 84 323 98 q 333 111 339 128 q 344 144 344 160 l 344 160 q 344 182 334 197 q 323 212 305 223 q 287 233 264 241 q 240 248 215 256 l 215 256 q 191 263 165 273 q 138 283 116 301 q 94 319 80 347 q 65 374 65 417 l 65 417 q 65 481 98 525 q 130 568 180 595 q 229 622 288 634 q 347 645 400 645 l 400 645 q 470 645 521 629 q 571 612 597 590 l 597 590 l 560 451"},"Ś":{"x_min":-7,"x_max":625,"ha":587,"o":"m 560 451 l 394 451 q 397 466 397 492 l 397 492 q 397 507 395 522 q 393 536 388 548 q 383 559 373 566 q 363 572 347 572 l 347 572 q 329 572 314 564 q 299 556 288 544 q 276 531 270 515 q 263 498 263 480 l 263 480 q 263 454 277 440 q 290 426 312 417 q 334 408 362 402 q 390 396 420 388 l 420 388 q 445 381 470 370 q 495 359 515 341 q 534 322 546 293 q 558 263 558 219 l 558 219 q 558 156 533 113 q 508 70 464 43 q 420 16 360 4 q 299 -8 228 -8 l 228 -8 q 156 -8 111 2 q 65 11 39 22 l 39 22 q 8 35 -7 52 l -7 52 l 27 189 l 203 189 q 202 180 201 165 q 200 149 200 140 l 200 140 q 200 128 203 115 q 206 102 213 91 q 219 80 231 73 q 243 66 261 66 l 261 66 q 281 66 297 75 q 312 84 323 98 q 333 111 339 128 q 344 144 344 160 l 344 160 q 344 182 334 197 q 323 212 305 223 q 287 233 264 241 q 240 248 215 256 l 215 256 q 191 263 165 273 q 138 283 116 301 q 94 319 80 347 q 65 374 65 417 l 65 417 q 65 481 98 525 q 130 568 180 595 q 229 622 288 634 q 347 645 400 645 l 400 645 q 470 645 521 629 q 571 612 597 590 l 597 590 l 560 451 m 446 693 l 360 693 l 453 839 l 625 839 l 446 693"},"Š":{"x_min":-7,"x_max":610,"ha":587,"o":"m 560 451 l 394 451 q 397 466 397 492 l 397 492 q 397 507 395 522 q 393 536 388 548 q 383 559 373 566 q 363 572 347 572 l 347 572 q 329 572 314 564 q 299 556 288 544 q 276 531 270 515 q 263 498 263 480 l 263 480 q 263 454 277 440 q 290 426 312 417 q 334 408 362 402 q 390 396 420 388 l 420 388 q 445 381 470 370 q 495 359 515 341 q 534 322 546 293 q 558 263 558 219 l 558 219 q 558 156 533 113 q 508 70 464 43 q 420 16 360 4 q 299 -8 228 -8 l 228 -8 q 156 -8 111 2 q 65 11 39 22 l 39 22 q 8 35 -7 52 l -7 52 l 27 189 l 203 189 q 202 180 201 165 q 200 149 200 140 l 200 140 q 200 128 203 115 q 206 102 213 91 q 219 80 231 73 q 243 66 261 66 l 261 66 q 281 66 297 75 q 312 84 323 98 q 333 111 339 128 q 344 144 344 160 l 344 160 q 344 182 334 197 q 323 212 305 223 q 287 233 264 241 q 240 248 215 256 l 215 256 q 191 263 165 273 q 138 283 116 301 q 94 319 80 347 q 65 374 65 417 l 65 417 q 65 481 98 525 q 130 568 180 595 q 229 622 288 634 q 347 645 400 645 l 400 645 q 470 645 521 629 q 571 612 597 590 l 597 590 l 560 451 m 524 839 l 610 839 l 464 693 l 315 693 l 232 839 l 309 839 l 392 747 l 524 839"},"Ə":{"x_min":14,"x_max":635,"ha":646,"o":"m 14 177 l 14 177 q 14 197 17 219 q 19 241 24 263 q 29 284 37 305 q 44 325 53 341 l 53 341 l 406 341 q 412 381 415 418 q 418 454 418 483 l 418 483 q 418 496 417 513 q 416 529 412 543 q 408 557 400 567 q 392 576 379 576 l 379 576 q 365 576 348 565 q 330 553 313 532 q 296 511 282 483 q 267 454 259 420 l 259 420 l 85 420 l 118 576 q 166 613 225 629 q 284 645 365 645 l 365 645 q 429 645 480 634 q 530 623 565 594 q 599 565 617 515 q 635 465 635 387 l 635 387 q 635 314 617 244 q 599 173 556 117 q 512 61 439 27 q 366 -8 256 -8 l 256 -8 q 137 -8 76 36 q 14 80 14 177 m 220 146 l 220 146 q 220 96 235 79 q 249 62 268 62 l 268 62 q 291 62 311 80 q 330 97 346 127 q 361 156 373 194 q 385 232 394 274 l 394 274 l 230 274 q 227 250 225 227 l 225 227 q 223 207 222 185 q 220 163 220 146"},"Ŝ":{"x_min":-7,"x_max":610,"ha":587,"o":"m 560 451 l 394 451 q 397 466 397 492 l 397 492 q 397 507 395 522 q 393 536 388 548 q 383 559 373 566 q 363 572 347 572 l 347 572 q 329 572 314 564 q 299 556 288 544 q 276 531 270 515 q 263 498 263 480 l 263 480 q 263 454 277 440 q 290 426 312 417 q 334 408 362 402 q 390 396 420 388 l 420 388 q 445 381 470 370 q 495 359 515 341 q 534 322 546 293 q 558 263 558 219 l 558 219 q 558 156 533 113 q 508 70 464 43 q 420 16 360 4 q 299 -8 228 -8 l 228 -8 q 156 -8 111 2 q 65 11 39 22 l 39 22 q 8 35 -7 52 l -7 52 l 27 189 l 203 189 q 202 180 201 165 q 200 149 200 140 l 200 140 q 200 128 203 115 q 206 102 213 91 q 219 80 231 73 q 243 66 261 66 l 261 66 q 281 66 297 75 q 312 84 323 98 q 333 111 339 128 q 344 144 344 160 l 344 160 q 344 182 334 197 q 323 212 305 223 q 287 233 264 241 q 240 248 215 256 l 215 256 q 191 263 165 273 q 138 283 116 301 q 94 319 80 347 q 65 374 65 417 l 65 417 q 65 481 98 525 q 130 568 180 595 q 229 622 288 634 q 347 645 400 645 l 400 645 q 470 645 521 629 q 571 612 597 590 l 597 590 l 560 451 m 318 693 l 232 693 l 378 839 l 527 839 l 610 693 l 534 693 l 451 786 l 318 693"},"Ṣ":{"x_min":-7,"x_max":597,"ha":587,"o":"m 560 451 l 394 451 q 397 466 397 492 l 397 492 q 397 507 395 522 q 393 536 388 548 q 383 559 373 566 q 363 572 347 572 l 347 572 q 329 572 314 564 q 299 556 288 544 q 276 531 270 515 q 263 498 263 480 l 263 480 q 263 454 277 440 q 290 426 312 417 q 334 408 362 402 q 390 396 420 388 l 420 388 q 445 381 470 370 q 495 359 515 341 q 534 322 546 293 q 558 263 558 219 l 558 219 q 558 156 533 113 q 508 70 464 43 q 420 16 360 4 q 299 -8 228 -8 l 228 -8 q 156 -8 111 2 q 65 11 39 22 l 39 22 q 8 35 -7 52 l -7 52 l 27 189 l 203 189 q 202 180 201 165 q 200 149 200 140 l 200 140 q 200 128 203 115 q 206 102 213 91 q 219 80 231 73 q 243 66 261 66 l 261 66 q 281 66 297 75 q 312 84 323 98 q 333 111 339 128 q 344 144 344 160 l 344 160 q 344 182 334 197 q 323 212 305 223 q 287 233 264 241 q 240 248 215 256 l 215 256 q 191 263 165 273 q 138 283 116 301 q 94 319 80 347 q 65 374 65 417 l 65 417 q 65 481 98 525 q 130 568 180 595 q 229 622 288 634 q 347 645 400 645 l 400 645 q 470 645 521 629 q 571 612 597 590 l 597 590 l 560 451 m 292 -144 l 292 -144 q 292 -162 285 -176 q 277 -190 265 -199 q 252 -208 236 -213 q 219 -218 202 -218 l 202 -218 q 170 -218 148 -203 q 125 -188 125 -154 l 125 -154 q 125 -118 153 -99 q 180 -81 216 -81 l 216 -81 q 248 -81 270 -96 q 292 -111 292 -144"},"T":{"x_min":73,"x_max":626,"ha":555,"o":"m 626 635 l 609 559 l 448 559 l 329 0 l 113 0 l 232 559 l 73 559 l 91 635 l 626 635"},"Ŧ":{"x_min":75,"x_max":628,"ha":559,"o":"m 110 305 l 129 382 l 196 382 l 234 559 l 75 559 l 93 635 l 628 635 l 611 559 l 450 559 l 412 382 l 484 382 l 466 305 l 396 305 l 331 0 l 115 0 l 180 305 l 110 305"},"Ť":{"x_min":73,"x_max":626,"ha":555,"o":"m 626 635 l 609 559 l 448 559 l 329 0 l 113 0 l 232 559 l 73 559 l 91 635 l 626 635 m 511 839 l 597 839 l 451 693 l 302 693 l 219 839 l 296 839 l 379 747 l 511 839"},"Ṭ":{"x_min":73,"x_max":626,"ha":555,"o":"m 626 635 l 609 559 l 448 559 l 329 0 l 113 0 l 232 559 l 73 559 l 91 635 l 626 635 m 275 -144 l 275 -144 q 275 -162 268 -176 q 260 -190 248 -199 q 235 -208 219 -213 q 202 -218 185 -218 l 185 -218 q 153 -218 131 -203 q 108 -188 108 -154 l 108 -154 q 108 -118 136 -99 q 163 -81 199 -81 l 199 -81 q 231 -81 253 -96 q 275 -111 275 -144"},"Þ":{"x_min":0,"x_max":599,"ha":592,"o":"m 352 635 l 329 526 q 391 526 441 520 q 491 514 526 496 q 561 478 580 444 q 599 410 599 353 l 599 353 q 599 302 583 256 q 566 210 530 176 q 493 141 435 121 q 377 101 294 101 l 294 101 l 238 101 l 216 0 l 0 0 l 135 635 l 352 635 m 359 458 l 315 458 l 252 165 l 297 165 q 327 165 348 190 q 368 215 382 251 q 395 287 401 326 q 407 365 407 393 l 407 393 q 407 421 398 440 q 389 458 359 458 l 359 458"},"U":{"x_min":35,"x_max":661,"ha":630,"o":"m 355 635 l 267 227 q 262 205 259 189 q 256 173 256 159 l 256 159 q 256 124 281 103 q 305 82 353 82 l 353 82 q 388 82 411 94 q 433 106 448 126 q 462 146 471 172 q 479 198 485 227 l 485 227 l 570 635 l 661 635 l 574 225 q 564 177 545 135 q 526 93 491 61 q 455 29 399 11 q 343 -8 260 -8 l 260 -8 q 145 -8 90 30 q 35 67 35 145 l 35 145 q 35 180 44 234 q 53 288 67 351 l 67 351 l 128 635 l 355 635"},"Ú":{"x_min":35,"x_max":661,"ha":630,"o":"m 355 635 l 267 227 q 262 205 259 189 q 256 173 256 159 l 256 159 q 256 124 281 103 q 305 82 353 82 l 353 82 q 388 82 411 94 q 433 106 448 126 q 462 146 471 172 q 479 198 485 227 l 485 227 l 570 635 l 661 635 l 574 225 q 564 177 545 135 q 526 93 491 61 q 455 29 399 11 q 343 -8 260 -8 l 260 -8 q 145 -8 90 30 q 35 67 35 145 l 35 145 q 35 180 44 234 q 53 288 67 351 l 67 351 l 128 635 l 355 635 m 475 693 l 389 693 l 482 839 l 654 839 l 475 693"},"Ŭ":{"x_min":35,"x_max":661,"ha":630,"o":"m 355 635 l 267 227 q 262 205 259 189 q 256 173 256 159 l 256 159 q 256 124 281 103 q 305 82 353 82 l 353 82 q 388 82 411 94 q 433 106 448 126 q 462 146 471 172 q 479 198 485 227 l 485 227 l 570 635 l 661 635 l 574 225 q 564 177 545 135 q 526 93 491 61 q 455 29 399 11 q 343 -8 260 -8 l 260 -8 q 145 -8 90 30 q 35 67 35 145 l 35 145 q 35 180 44 234 q 53 288 67 351 l 67 351 l 128 635 l 355 635 m 427 693 l 427 693 q 368 693 333 723 q 298 752 288 818 l 288 818 l 339 839 q 345 819 356 807 q 367 794 381 787 q 394 780 409 778 q 423 775 435 775 l 435 775 q 477 775 516 797 q 554 819 580 854 l 580 854 l 618 820 q 580 751 532 722 q 484 693 427 693"},"Û":{"x_min":35,"x_max":661,"ha":630,"o":"m 355 635 l 267 227 q 262 205 259 189 q 256 173 256 159 l 256 159 q 256 124 281 103 q 305 82 353 82 l 353 82 q 388 82 411 94 q 433 106 448 126 q 462 146 471 172 q 479 198 485 227 l 485 227 l 570 635 l 661 635 l 574 225 q 564 177 545 135 q 526 93 491 61 q 455 29 399 11 q 343 -8 260 -8 l 260 -8 q 145 -8 90 30 q 35 67 35 145 l 35 145 q 35 180 44 234 q 53 288 67 351 l 67 351 l 128 635 l 355 635 m 327 693 l 241 693 l 387 839 l 536 839 l 619 693 l 543 693 l 460 786 l 327 693"},"Ü":{"x_min":35,"x_max":661,"ha":630,"o":"m 355 635 l 267 227 q 262 205 259 189 q 256 173 256 159 l 256 159 q 256 124 281 103 q 305 82 353 82 l 353 82 q 388 82 411 94 q 433 106 448 126 q 462 146 471 172 q 479 198 485 227 l 485 227 l 570 635 l 661 635 l 574 225 q 564 177 545 135 q 526 93 491 61 q 455 29 399 11 q 343 -8 260 -8 l 260 -8 q 145 -8 90 30 q 35 67 35 145 l 35 145 q 35 180 44 234 q 53 288 67 351 l 67 351 l 128 635 l 355 635 m 353 835 l 353 835 q 389 835 406 815 q 423 794 423 765 l 423 765 q 423 733 403 708 q 382 682 342 682 l 342 682 q 305 682 288 703 q 271 723 271 752 l 271 752 q 271 784 292 810 q 313 835 353 835 m 565 835 l 565 835 q 602 835 619 815 q 636 794 636 765 l 636 765 q 636 733 615 708 q 594 682 554 682 l 554 682 q 517 682 500 703 q 483 723 483 752 l 483 752 q 483 784 504 810 q 525 835 565 835"},"Ụ":{"x_min":35,"x_max":661,"ha":630,"o":"m 355 635 l 267 227 q 262 205 259 189 q 256 173 256 159 l 256 159 q 256 124 281 103 q 305 82 353 82 l 353 82 q 388 82 411 94 q 433 106 448 126 q 462 146 471 172 q 479 198 485 227 l 485 227 l 570 635 l 661 635 l 574 225 q 564 177 545 135 q 526 93 491 61 q 455 29 399 11 q 343 -8 260 -8 l 260 -8 q 145 -8 90 30 q 35 67 35 145 l 35 145 q 35 180 44 234 q 53 288 67 351 l 67 351 l 128 635 l 355 635 m 331 -144 l 331 -144 q 331 -162 324 -176 q 316 -190 304 -199 q 291 -208 275 -213 q 258 -218 241 -218 l 241 -218 q 209 -218 187 -203 q 164 -188 164 -154 l 164 -154 q 164 -118 192 -99 q 219 -81 255 -81 l 255 -81 q 287 -81 309 -96 q 331 -111 331 -144"},"Ù":{"x_min":35,"x_max":661,"ha":630,"o":"m 355 635 l 267 227 q 262 205 259 189 q 256 173 256 159 l 256 159 q 256 124 281 103 q 305 82 353 82 l 353 82 q 388 82 411 94 q 433 106 448 126 q 462 146 471 172 q 479 198 485 227 l 485 227 l 570 635 l 661 635 l 574 225 q 564 177 545 135 q 526 93 491 61 q 455 29 399 11 q 343 -8 260 -8 l 260 -8 q 145 -8 90 30 q 35 67 35 145 l 35 145 q 35 180 44 234 q 53 288 67 351 l 67 351 l 128 635 l 355 635 m 403 693 l 218 839 l 391 839 l 496 693 l 403 693"},"Ű":{"x_min":35,"x_max":770,"ha":630,"o":"m 355 635 l 267 227 q 262 205 259 189 q 256 173 256 159 l 256 159 q 256 124 281 103 q 305 82 353 82 l 353 82 q 388 82 411 94 q 433 106 448 126 q 462 146 471 172 q 479 198 485 227 l 485 227 l 570 635 l 661 635 l 574 225 q 564 177 545 135 q 526 93 491 61 q 455 29 399 11 q 343 -8 260 -8 l 260 -8 q 145 -8 90 30 q 35 67 35 145 l 35 145 q 35 180 44 234 q 53 288 67 351 l 67 351 l 128 635 l 355 635 m 338 693 l 252 693 l 365 839 l 537 839 l 338 693 m 571 693 l 485 693 l 598 839 l 770 839 l 571 693"},"Ū":{"x_min":35,"x_max":661,"ha":630,"o":"m 355 635 l 267 227 q 262 205 259 189 q 256 173 256 159 l 256 159 q 256 124 281 103 q 305 82 353 82 l 353 82 q 388 82 411 94 q 433 106 448 126 q 462 146 471 172 q 479 198 485 227 l 485 227 l 570 635 l 661 635 l 574 225 q 564 177 545 135 q 526 93 491 61 q 455 29 399 11 q 343 -8 260 -8 l 260 -8 q 145 -8 90 30 q 35 67 35 145 l 35 145 q 35 180 44 234 q 53 288 67 351 l 67 351 l 128 635 l 355 635 m 263 730 l 282 807 l 637 807 l 619 730 l 263 730"},"Ų":{"x_min":35,"x_max":661,"ha":630,"o":"m 355 635 l 267 227 q 262 205 259 189 q 256 173 256 159 l 256 159 q 256 124 281 103 q 305 82 353 82 l 353 82 q 388 82 411 94 q 433 106 448 126 q 462 146 471 172 q 479 198 485 227 l 485 227 l 570 635 l 661 635 l 574 225 q 565 181 548 141 q 530 101 500 70 q 469 39 422 19 q 374 -1 304 -6 l 304 -6 q 278 -23 257 -47 q 235 -71 235 -100 l 235 -100 q 235 -120 244 -129 q 253 -138 266 -138 l 266 -138 q 275 -138 288 -132 q 300 -127 318 -112 l 318 -112 l 341 -154 q 311 -179 271 -191 q 231 -204 193 -204 l 193 -204 q 107 -204 107 -130 l 107 -130 q 107 -106 116 -87 q 124 -68 138 -53 q 152 -38 170 -26 q 188 -14 206 -5 l 206 -5 q 118 3 77 40 q 35 77 35 145 l 35 145 q 35 180 44 234 q 53 288 67 351 l 67 351 l 128 635 l 355 635"},"Ů":{"x_min":35,"x_max":661,"ha":630,"o":"m 355 635 l 267 227 q 262 205 259 189 q 256 173 256 159 l 256 159 q 256 124 281 103 q 305 82 353 82 l 353 82 q 388 82 411 94 q 433 106 448 126 q 462 146 471 172 q 479 198 485 227 l 485 227 l 570 635 l 661 635 l 574 225 q 564 177 545 135 q 526 93 491 61 q 455 29 399 11 q 343 -8 260 -8 l 260 -8 q 145 -8 90 30 q 35 67 35 145 l 35 145 q 35 180 44 234 q 53 288 67 351 l 67 351 l 128 635 l 355 635 m 552 775 l 552 775 q 552 755 544 738 q 535 721 522 709 q 508 696 490 689 q 472 682 453 682 l 453 682 q 417 682 393 704 q 369 726 369 763 l 369 763 q 369 783 377 800 q 385 817 399 829 q 413 841 431 848 q 448 855 468 855 l 468 855 q 504 855 528 833 q 552 810 552 775 m 494 771 l 494 771 q 494 784 485 792 q 476 799 463 799 l 463 799 q 449 799 438 790 q 426 781 426 766 l 426 766 q 426 753 435 745 q 444 736 457 736 l 457 736 q 471 736 483 746 q 494 756 494 771"},"Ũ":{"x_min":35,"x_max":661,"ha":630,"o":"m 355 635 l 267 227 q 262 205 259 189 q 256 173 256 159 l 256 159 q 256 124 281 103 q 305 82 353 82 l 353 82 q 388 82 411 94 q 433 106 448 126 q 462 146 471 172 q 479 198 485 227 l 485 227 l 570 635 l 661 635 l 574 225 q 564 177 545 135 q 526 93 491 61 q 455 29 399 11 q 343 -8 260 -8 l 260 -8 q 145 -8 90 30 q 35 67 35 145 l 35 145 q 35 180 44 234 q 53 288 67 351 l 67 351 l 128 635 l 355 635 m 613 844 l 648 819 q 618 764 588 737 q 558 710 513 710 l 513 710 q 495 710 471 716 q 446 722 421 729 q 395 735 373 741 q 350 747 336 747 l 336 747 q 318 747 299 735 q 280 723 271 712 l 271 712 l 238 741 q 269 792 301 818 q 332 844 375 844 l 375 844 q 391 844 415 839 q 438 834 463 828 q 487 821 510 816 q 533 811 548 811 l 548 811 q 562 811 582 821 q 601 830 613 844 l 613 844"},"V":{"x_min":82,"x_max":651,"ha":581,"o":"m 119 0 l 82 635 l 310 635 l 344 205 l 552 635 l 651 635 l 355 0 l 119 0"},"W":{"x_min":78,"x_max":1003,"ha":944,"o":"m 120 0 l 78 635 l 322 635 l 339 202 l 506 635 l 704 635 l 730 202 l 898 635 l 1003 635 l 756 0 l 531 0 l 510 359 l 360 0 l 120 0"},"Ẃ":{"x_min":78,"x_max":1003,"ha":944,"o":"m 120 0 l 78 635 l 322 635 l 339 202 l 506 635 l 704 635 l 730 202 l 898 635 l 1003 635 l 756 0 l 531 0 l 510 359 l 360 0 l 120 0 m 649 693 l 563 693 l 656 839 l 828 839 l 649 693"},"Ŵ":{"x_min":78,"x_max":1003,"ha":944,"o":"m 120 0 l 78 635 l 322 635 l 339 202 l 506 635 l 704 635 l 730 202 l 898 635 l 1003 635 l 756 0 l 531 0 l 510 359 l 360 0 l 120 0 m 521 693 l 435 693 l 581 839 l 730 839 l 813 693 l 737 693 l 654 786 l 521 693"},"Ẅ":{"x_min":78,"x_max":1003,"ha":944,"o":"m 120 0 l 78 635 l 322 635 l 339 202 l 506 635 l 704 635 l 730 202 l 898 635 l 1003 635 l 756 0 l 531 0 l 510 359 l 360 0 l 120 0 m 534 835 l 534 835 q 570 835 587 815 q 604 794 604 765 l 604 765 q 604 733 584 708 q 563 682 523 682 l 523 682 q 486 682 469 703 q 452 723 452 752 l 452 752 q 452 784 473 810 q 494 835 534 835 m 746 835 l 746 835 q 783 835 800 815 q 817 794 817 765 l 817 765 q 817 733 796 708 q 775 682 735 682 l 735 682 q 698 682 681 703 q 664 723 664 752 l 664 752 q 664 784 685 810 q 706 835 746 835"},"Ẁ":{"x_min":78,"x_max":1003,"ha":944,"o":"m 120 0 l 78 635 l 322 635 l 339 202 l 506 635 l 704 635 l 730 202 l 898 635 l 1003 635 l 756 0 l 531 0 l 510 359 l 360 0 l 120 0 m 577 693 l 392 839 l 565 839 l 670 693 l 577 693"},"X":{"x_min":-34,"x_max":660,"ha":602,"o":"m 302 635 l 387 435 l 540 635 l 660 635 l 423 350 l 572 0 l 325 0 l 240 199 l 86 0 l -34 0 l 202 289 l 55 635 l 302 635"},"Y":{"x_min":78,"x_max":644,"ha":570,"o":"m 644 635 l 389 240 l 338 0 l 121 0 l 176 257 l 78 635 l 318 635 l 386 384 l 536 635 l 644 635"},"Ý":{"x_min":78,"x_max":644,"ha":570,"o":"m 644 635 l 389 240 l 338 0 l 121 0 l 176 257 l 78 635 l 318 635 l 386 384 l 536 635 l 644 635 m 443 693 l 357 693 l 450 839 l 622 839 l 443 693"},"Ŷ":{"x_min":78,"x_max":644,"ha":570,"o":"m 644 635 l 389 240 l 338 0 l 121 0 l 176 257 l 78 635 l 318 635 l 386 384 l 536 635 l 644 635 m 315 693 l 229 693 l 375 839 l 524 839 l 607 693 l 531 693 l 448 786 l 315 693"},"Ÿ":{"x_min":78,"x_max":644,"ha":570,"o":"m 644 635 l 389 240 l 338 0 l 121 0 l 176 257 l 78 635 l 318 635 l 386 384 l 536 635 l 644 635 m 329 835 l 329 835 q 365 835 382 815 q 399 794 399 765 l 399 765 q 399 733 379 708 q 358 682 318 682 l 318 682 q 281 682 264 703 q 247 723 247 752 l 247 752 q 247 784 268 810 q 289 835 329 835 m 541 835 l 541 835 q 578 835 595 815 q 612 794 612 765 l 612 765 q 612 733 591 708 q 570 682 530 682 l 530 682 q 493 682 476 703 q 459 723 459 752 l 459 752 q 459 784 480 810 q 501 835 541 835"},"Ỳ":{"x_min":78,"x_max":644,"ha":570,"o":"m 644 635 l 389 240 l 338 0 l 121 0 l 176 257 l 78 635 l 318 635 l 386 384 l 536 635 l 644 635 m 371 693 l 186 839 l 359 839 l 464 693 l 371 693"},"Ỹ":{"x_min":78,"x_max":646,"ha":570,"o":"m 644 635 l 389 240 l 338 0 l 121 0 l 176 257 l 78 635 l 318 635 l 386 384 l 536 635 l 644 635 m 611 844 l 646 819 q 616 764 586 737 q 556 710 511 710 l 511 710 q 493 710 469 716 q 444 722 419 729 q 393 735 371 741 q 348 747 334 747 l 334 747 q 316 747 297 735 q 278 723 269 712 l 269 712 l 236 741 q 267 792 299 818 q 330 844 373 844 l 373 844 q 389 844 413 839 q 436 834 461 828 q 485 821 508 816 q 531 811 546 811 l 546 811 q 560 811 580 821 q 599 830 611 844 l 611 844"},"Z":{"x_min":-21,"x_max":583,"ha":553,"o":"m -21 0 l -3 91 l 326 559 l 74 559 l 89 635 l 583 635 l 574 550 l 248 76 l 511 76 l 497 0 l -21 0"},"Ź":{"x_min":-21,"x_max":583,"ha":553,"o":"m -21 0 l -3 91 l 326 559 l 74 559 l 89 635 l 583 635 l 574 550 l 248 76 l 511 76 l 497 0 l -21 0 m 387 693 l 301 693 l 394 839 l 566 839 l 387 693"},"Ž":{"x_min":-21,"x_max":601,"ha":553,"o":"m -21 0 l -3 91 l 326 559 l 74 559 l 89 635 l 583 635 l 574 550 l 248 76 l 511 76 l 497 0 l -21 0 m 515 839 l 601 839 l 455 693 l 306 693 l 223 839 l 300 839 l 383 747 l 515 839"},"Ż":{"x_min":-21,"x_max":583,"ha":553,"o":"m -21 0 l -3 91 l 326 559 l 74 559 l 89 635 l 583 635 l 574 550 l 248 76 l 511 76 l 497 0 l -21 0 m 483 765 l 483 765 q 483 742 474 725 q 464 708 449 696 q 433 684 413 678 q 393 672 372 672 l 372 672 q 332 672 305 691 q 278 710 278 751 l 278 751 q 278 773 287 791 q 296 808 312 820 q 327 831 348 837 q 368 843 390 843 l 390 843 q 429 843 456 824 q 483 805 483 765"},"Ẓ":{"x_min":-21,"x_max":583,"ha":553,"o":"m -21 0 l -3 91 l 326 559 l 74 559 l 89 635 l 583 635 l 574 550 l 248 76 l 511 76 l 497 0 l -21 0 m 303 -144 l 303 -144 q 303 -162 296 -176 q 288 -190 276 -199 q 263 -208 247 -213 q 230 -218 213 -218 l 213 -218 q 181 -218 159 -203 q 136 -188 136 -154 l 136 -154 q 136 -118 164 -99 q 191 -81 227 -81 l 227 -81 q 259 -81 281 -96 q 303 -111 303 -144"},"a":{"x_min":-13,"x_max":514,"ha":552,"o":"m 53 304 l 72 393 q 123 418 177 430 q 230 441 296 441 l 296 441 q 360 441 402 431 q 444 421 469 402 q 494 383 504 357 q 514 331 514 298 l 514 298 q 514 279 512 257 q 509 235 506 220 l 506 220 l 459 0 l 298 0 l 280 64 l 274 64 q 242 29 200 11 q 157 -8 115 -8 l 115 -8 q 91 -8 68 -1 q 45 6 27 21 q 9 35 -2 58 q -13 80 -13 112 l -13 112 q -13 164 16 195 q 44 225 91 241 q 137 256 196 260 q 254 264 313 264 l 313 264 q 315 274 318 293 q 321 311 321 325 l 321 325 q 321 343 312 359 q 302 374 272 374 l 272 374 q 237 374 221 354 q 204 333 199 304 l 199 304 l 53 304 m 286 140 l 302 217 l 284 217 q 255 217 235 210 q 214 202 202 190 q 189 178 183 163 q 177 148 177 133 l 177 133 q 177 109 190 97 q 202 85 219 85 l 219 85 q 240 85 261 100 q 281 115 286 140 l 286 140"},"á":{"x_min":-13,"x_max":534,"ha":552,"o":"m 53 304 l 72 393 q 123 418 177 430 q 230 441 296 441 l 296 441 q 360 441 402 431 q 444 421 469 402 q 494 383 504 357 q 514 331 514 298 l 514 298 q 514 279 512 257 q 509 235 506 220 l 506 220 l 459 0 l 298 0 l 280 64 l 274 64 q 242 29 200 11 q 157 -8 115 -8 l 115 -8 q 91 -8 68 -1 q 45 6 27 21 q 9 35 -2 58 q -13 80 -13 112 l -13 112 q -13 164 16 195 q 44 225 91 241 q 137 256 196 260 q 254 264 313 264 l 313 264 q 315 274 318 293 q 321 311 321 325 l 321 325 q 321 343 312 359 q 302 374 272 374 l 272 374 q 237 374 221 354 q 204 333 199 304 l 199 304 l 53 304 m 286 140 l 302 217 l 284 217 q 255 217 235 210 q 214 202 202 190 q 189 178 183 163 q 177 148 177 133 l 177 133 q 177 109 190 97 q 202 85 219 85 l 219 85 q 240 85 261 100 q 281 115 286 140 l 286 140 m 355 489 l 269 489 l 362 635 l 534 635 l 355 489"},"ă":{"x_min":-13,"x_max":514,"ha":552,"o":"m 53 304 l 72 393 q 123 418 177 430 q 230 441 296 441 l 296 441 q 360 441 402 431 q 444 421 469 402 q 494 383 504 357 q 514 331 514 298 l 514 298 q 514 279 512 257 q 509 235 506 220 l 506 220 l 459 0 l 298 0 l 280 64 l 274 64 q 242 29 200 11 q 157 -8 115 -8 l 115 -8 q 91 -8 68 -1 q 45 6 27 21 q 9 35 -2 58 q -13 80 -13 112 l -13 112 q -13 164 16 195 q 44 225 91 241 q 137 256 196 260 q 254 264 313 264 l 313 264 q 315 274 318 293 q 321 311 321 325 l 321 325 q 321 343 312 359 q 302 374 272 374 l 272 374 q 237 374 221 354 q 204 333 199 304 l 199 304 l 53 304 m 286 140 l 302 217 l 284 217 q 255 217 235 210 q 214 202 202 190 q 189 178 183 163 q 177 148 177 133 l 177 133 q 177 109 190 97 q 202 85 219 85 l 219 85 q 240 85 261 100 q 281 115 286 140 l 286 140 m 315 489 l 315 489 q 256 489 221 519 q 186 548 176 614 l 176 614 l 227 635 q 233 615 244 603 q 255 590 269 583 q 282 576 297 574 q 311 571 323 571 l 323 571 q 365 571 404 593 q 442 615 468 650 l 468 650 l 506 616 q 468 547 420 518 q 372 489 315 489"},"â":{"x_min":-13,"x_max":514,"ha":552,"o":"m 53 304 l 72 393 q 123 418 177 430 q 230 441 296 441 l 296 441 q 360 441 402 431 q 444 421 469 402 q 494 383 504 357 q 514 331 514 298 l 514 298 q 514 279 512 257 q 509 235 506 220 l 506 220 l 459 0 l 298 0 l 280 64 l 274 64 q 242 29 200 11 q 157 -8 115 -8 l 115 -8 q 91 -8 68 -1 q 45 6 27 21 q 9 35 -2 58 q -13 80 -13 112 l -13 112 q -13 164 16 195 q 44 225 91 241 q 137 256 196 260 q 254 264 313 264 l 313 264 q 315 274 318 293 q 321 311 321 325 l 321 325 q 321 343 312 359 q 302 374 272 374 l 272 374 q 237 374 221 354 q 204 333 199 304 l 199 304 l 53 304 m 286 140 l 302 217 l 284 217 q 255 217 235 210 q 214 202 202 190 q 189 178 183 163 q 177 148 177 133 l 177 133 q 177 109 190 97 q 202 85 219 85 l 219 85 q 240 85 261 100 q 281 115 286 140 l 286 140 m 215 489 l 129 489 l 275 635 l 424 635 l 507 489 l 431 489 l 348 582 l 215 489"},"´":{"x_min":26,"x_max":291,"ha":317,"o":"m 112 489 l 26 489 l 119 635 l 291 635 l 112 489"},"ä":{"x_min":-13,"x_max":514,"ha":552,"o":"m 53 304 l 72 393 q 123 418 177 430 q 230 441 296 441 l 296 441 q 360 441 402 431 q 444 421 469 402 q 494 383 504 357 q 514 331 514 298 l 514 298 q 514 279 512 257 q 509 235 506 220 l 506 220 l 459 0 l 298 0 l 280 64 l 274 64 q 242 29 200 11 q 157 -8 115 -8 l 115 -8 q 91 -8 68 -1 q 45 6 27 21 q 9 35 -2 58 q -13 80 -13 112 l -13 112 q -13 164 16 195 q 44 225 91 241 q 137 256 196 260 q 254 264 313 264 l 313 264 q 315 274 318 293 q 321 311 321 325 l 321 325 q 321 343 312 359 q 302 374 272 374 l 272 374 q 237 374 221 354 q 204 333 199 304 l 199 304 l 53 304 m 286 140 l 302 217 l 284 217 q 255 217 235 210 q 214 202 202 190 q 189 178 183 163 q 177 148 177 133 l 177 133 q 177 109 190 97 q 202 85 219 85 l 219 85 q 240 85 261 100 q 281 115 286 140 l 286 140 m 219 631 l 219 631 q 255 631 272 611 q 289 590 289 561 l 289 561 q 289 529 269 504 q 248 478 208 478 l 208 478 q 171 478 154 499 q 137 519 137 548 l 137 548 q 137 580 158 606 q 179 631 219 631 m 431 631 l 431 631 q 468 631 485 611 q 502 590 502 561 l 502 561 q 502 529 481 504 q 460 478 420 478 l 420 478 q 383 478 366 499 q 349 519 349 548 l 349 548 q 349 580 370 606 q 391 631 431 631"},"æ":{"x_min":-11,"x_max":814,"ha":830,"o":"m 56 304 l 74 398 q 116 421 163 431 q 210 441 273 441 l 273 441 q 332 441 373 434 q 414 426 441 412 l 441 412 q 475 426 517 434 q 559 441 613 441 l 613 441 q 713 441 764 410 q 814 379 814 313 l 814 313 q 814 286 806 255 q 798 223 782 201 l 782 201 l 501 201 q 497 179 496 159 q 494 139 494 123 l 494 123 q 494 114 495 103 q 496 92 500 83 q 503 73 510 67 q 516 60 528 60 l 528 60 q 537 60 549 66 q 560 72 572 83 q 583 94 594 110 q 604 126 610 146 l 610 146 l 774 146 l 748 39 q 728 26 702 17 q 676 8 647 3 q 618 -3 588 -5 q 558 -8 531 -8 l 531 -8 q 464 -8 411 8 q 357 24 326 66 l 326 66 q 298 43 269 29 q 239 14 211 6 q 183 -2 157 -5 q 130 -8 108 -8 l 108 -8 q 59 -8 24 23 q -11 54 -11 113 l -11 113 q -11 165 17 195 q 44 225 88 241 q 132 256 189 260 q 245 264 304 264 l 304 264 q 306 274 309 293 q 312 312 312 327 l 312 327 q 312 344 304 359 q 295 374 268 374 l 268 374 q 238 374 222 354 q 206 333 199 304 l 199 304 l 56 304 m 634 320 l 634 320 q 634 351 624 362 q 614 373 600 373 l 600 373 q 584 373 571 363 q 557 352 546 335 q 535 317 526 295 q 517 272 511 247 l 511 247 l 625 247 q 627 259 629 272 l 629 272 q 631 283 633 296 q 634 309 634 320 m 278 140 l 294 217 l 276 217 q 228 217 202 201 q 176 184 176 146 l 176 146 q 176 120 188 104 q 199 87 220 87 l 220 87 q 242 87 258 104 q 274 120 278 140 l 278 140"},"ǽ":{"x_min":-11,"x_max":814,"ha":830,"o":"m 56 304 l 74 398 q 116 421 163 431 q 210 441 273 441 l 273 441 q 332 441 373 434 q 414 426 441 412 l 441 412 q 475 426 517 434 q 559 441 613 441 l 613 441 q 713 441 764 410 q 814 379 814 313 l 814 313 q 814 286 806 255 q 798 223 782 201 l 782 201 l 501 201 q 497 179 496 159 q 494 139 494 123 l 494 123 q 494 114 495 103 q 496 92 500 83 q 503 73 510 67 q 516 60 528 60 l 528 60 q 537 60 549 66 q 560 72 572 83 q 583 94 594 110 q 604 126 610 146 l 610 146 l 774 146 l 748 39 q 728 26 702 17 q 676 8 647 3 q 618 -3 588 -5 q 558 -8 531 -8 l 531 -8 q 464 -8 411 8 q 357 24 326 66 l 326 66 q 298 43 269 29 q 239 14 211 6 q 183 -2 157 -5 q 130 -8 108 -8 l 108 -8 q 59 -8 24 23 q -11 54 -11 113 l -11 113 q -11 165 17 195 q 44 225 88 241 q 132 256 189 260 q 245 264 304 264 l 304 264 q 306 274 309 293 q 312 312 312 327 l 312 327 q 312 344 304 359 q 295 374 268 374 l 268 374 q 238 374 222 354 q 206 333 199 304 l 199 304 l 56 304 m 634 320 l 634 320 q 634 351 624 362 q 614 373 600 373 l 600 373 q 584 373 571 363 q 557 352 546 335 q 535 317 526 295 q 517 272 511 247 l 511 247 l 625 247 q 627 259 629 272 l 629 272 q 631 283 633 296 q 634 309 634 320 m 278 140 l 294 217 l 276 217 q 228 217 202 201 q 176 184 176 146 l 176 146 q 176 120 188 104 q 199 87 220 87 l 220 87 q 242 87 258 104 q 274 120 278 140 l 278 140 m 483 489 l 397 489 l 490 635 l 662 635 l 483 489"},"à":{"x_min":-13,"x_max":514,"ha":552,"o":"m 53 304 l 72 393 q 123 418 177 430 q 230 441 296 441 l 296 441 q 360 441 402 431 q 444 421 469 402 q 494 383 504 357 q 514 331 514 298 l 514 298 q 514 279 512 257 q 509 235 506 220 l 506 220 l 459 0 l 298 0 l 280 64 l 274 64 q 242 29 200 11 q 157 -8 115 -8 l 115 -8 q 91 -8 68 -1 q 45 6 27 21 q 9 35 -2 58 q -13 80 -13 112 l -13 112 q -13 164 16 195 q 44 225 91 241 q 137 256 196 260 q 254 264 313 264 l 313 264 q 315 274 318 293 q 321 311 321 325 l 321 325 q 321 343 312 359 q 302 374 272 374 l 272 374 q 237 374 221 354 q 204 333 199 304 l 199 304 l 53 304 m 286 140 l 302 217 l 284 217 q 255 217 235 210 q 214 202 202 190 q 189 178 183 163 q 177 148 177 133 l 177 133 q 177 109 190 97 q 202 85 219 85 l 219 85 q 240 85 261 100 q 281 115 286 140 l 286 140 m 286 489 l 101 635 l 274 635 l 379 489 l 286 489"},"ā":{"x_min":-13,"x_max":522,"ha":552,"o":"m 53 304 l 72 393 q 123 418 177 430 q 230 441 296 441 l 296 441 q 360 441 402 431 q 444 421 469 402 q 494 383 504 357 q 514 331 514 298 l 514 298 q 514 279 512 257 q 509 235 506 220 l 506 220 l 459 0 l 298 0 l 280 64 l 274 64 q 242 29 200 11 q 157 -8 115 -8 l 115 -8 q 91 -8 68 -1 q 45 6 27 21 q 9 35 -2 58 q -13 80 -13 112 l -13 112 q -13 164 16 195 q 44 225 91 241 q 137 256 196 260 q 254 264 313 264 l 313 264 q 315 274 318 293 q 321 311 321 325 l 321 325 q 321 343 312 359 q 302 374 272 374 l 272 374 q 237 374 221 354 q 204 333 199 304 l 199 304 l 53 304 m 286 140 l 302 217 l 284 217 q 255 217 235 210 q 214 202 202 190 q 189 178 183 163 q 177 148 177 133 l 177 133 q 177 109 190 97 q 202 85 219 85 l 219 85 q 240 85 261 100 q 281 115 286 140 l 286 140 m 148 526 l 167 603 l 522 603 l 504 526 l 148 526"},"&":{"x_min":0,"x_max":661,"ha":705,"o":"m 661 0 l 402 0 l 378 55 l 372 55 q 365 47 352 36 q 339 25 318 15 q 297 5 269 -1 q 240 -8 203 -8 l 203 -8 q 163 -8 127 2 q 90 12 62 33 q 34 54 17 87 q 0 120 0 167 l 0 167 q 0 205 13 239 q 25 273 51 301 q 77 329 117 350 q 157 371 213 383 l 213 383 q 200 412 194 430 q 188 448 188 471 l 188 471 q 188 511 204 543 q 220 575 249 598 q 278 620 319 633 q 359 645 407 645 l 407 645 q 486 645 536 612 q 585 578 585 512 l 585 512 q 585 477 572 455 q 558 433 539 419 q 520 405 499 397 q 477 389 462 382 l 462 382 l 510 286 q 540 328 554 365 l 554 365 l 625 365 q 615 329 597 296 q 578 262 557 229 l 557 229 l 547 214 l 661 0 m 344 120 l 242 328 q 225 318 214 288 q 202 258 202 227 l 202 227 q 202 204 209 182 q 216 160 230 143 q 243 126 262 116 q 281 105 305 105 l 305 105 q 321 105 329 109 q 337 113 344 120 l 344 120 m 421 590 l 421 590 q 397 590 387 580 q 376 569 376 555 l 376 555 q 376 538 389 514 l 389 514 l 430 437 q 462 445 478 468 q 494 491 494 517 l 494 517 q 494 545 476 568 q 457 590 421 590"},"ą":{"x_min":-13,"x_max":514,"ha":552,"o":"m 53 304 l 72 393 q 123 418 177 430 q 230 441 296 441 l 296 441 q 360 441 402 431 q 444 421 469 402 q 494 383 504 357 q 514 331 514 298 l 514 298 q 514 279 512 257 q 509 235 506 220 l 506 220 l 459 0 l 436 0 q 422 -9 409 -19 q 395 -30 384 -42 q 372 -55 365 -69 q 358 -84 358 -100 l 358 -100 q 358 -120 367 -129 q 376 -138 389 -138 l 389 -138 q 398 -138 411 -132 q 423 -127 441 -112 l 441 -112 l 464 -154 q 434 -179 394 -191 q 354 -204 316 -204 l 316 -204 q 230 -204 230 -130 l 230 -130 q 230 -105 240 -84 q 250 -64 266 -48 q 282 -32 302 -20 q 321 -8 341 0 l 341 0 l 298 0 l 280 64 l 274 64 q 242 29 200 11 q 157 -8 115 -8 l 115 -8 q 91 -8 68 -1 q 45 6 27 21 q 9 35 -2 58 q -13 80 -13 112 l -13 112 q -13 164 16 195 q 44 225 91 241 q 137 256 196 260 q 254 264 313 264 l 313 264 q 315 274 318 293 q 321 311 321 325 l 321 325 q 321 343 312 359 q 302 374 272 374 l 272 374 q 237 374 221 354 q 204 333 199 304 l 199 304 l 53 304 m 286 140 l 302 217 l 284 217 q 255 217 235 210 q 214 202 202 190 q 189 178 183 163 q 177 148 177 133 l 177 133 q 177 109 190 97 q 202 85 219 85 l 219 85 q 240 85 261 100 q 281 115 286 140 l 286 140"},"ʼ":{"x_min":130,"x_max":316,"ha":328,"o":"m 131 423 l 131 423 q 147 435 166 453 q 185 470 200 499 l 200 499 q 176 505 161 523 q 146 540 146 566 l 146 566 q 146 586 154 602 q 161 617 174 628 q 187 639 203 645 q 219 651 237 651 l 237 651 q 270 651 293 633 q 316 614 316 576 l 316 576 q 316 543 302 514 q 287 484 264 460 q 241 436 212 418 q 183 400 154 388 l 154 388 q 147 397 142 405 l 142 405 q 137 412 134 418 q 130 423 131 423"},"å":{"x_min":-13,"x_max":514,"ha":552,"o":"m 53 304 l 72 393 q 123 418 177 430 q 230 441 296 441 l 296 441 q 360 441 402 431 q 444 421 469 402 q 494 383 504 357 q 514 331 514 298 l 514 298 q 514 279 512 257 q 509 235 506 220 l 506 220 l 459 0 l 298 0 l 280 64 l 274 64 q 242 29 200 11 q 157 -8 115 -8 l 115 -8 q 91 -8 68 -1 q 45 6 27 21 q 9 35 -2 58 q -13 80 -13 112 l -13 112 q -13 164 16 195 q 44 225 91 241 q 137 256 196 260 q 254 264 313 264 l 313 264 q 315 274 318 293 q 321 311 321 325 l 321 325 q 321 343 312 359 q 302 374 272 374 l 272 374 q 237 374 221 354 q 204 333 199 304 l 199 304 l 53 304 m 286 140 l 302 217 l 284 217 q 255 217 235 210 q 214 202 202 190 q 189 178 183 163 q 177 148 177 133 l 177 133 q 177 109 190 97 q 202 85 219 85 l 219 85 q 240 85 261 100 q 281 115 286 140 l 286 140 m 404 571 l 404 571 q 404 551 396 534 q 387 517 374 505 q 360 492 342 485 q 324 478 305 478 l 305 478 q 269 478 245 500 q 221 522 221 559 l 221 559 q 221 579 229 596 q 237 613 251 625 q 265 637 283 644 q 300 651 320 651 l 320 651 q 356 651 380 629 q 404 606 404 571 m 346 567 l 346 567 q 346 580 337 588 q 328 595 315 595 l 315 595 q 301 595 290 586 q 278 577 278 562 l 278 562 q 278 549 287 541 q 296 532 309 532 l 309 532 q 323 532 335 542 q 346 552 346 567"},"ǻ":{"x_min":-13,"x_max":564,"ha":552,"o":"m 53 304 l 72 393 q 123 418 177 430 q 230 441 296 441 l 296 441 q 360 441 402 431 q 444 421 469 402 q 494 383 504 357 q 514 331 514 298 l 514 298 q 514 279 512 257 q 509 235 506 220 l 506 220 l 459 0 l 298 0 l 280 64 l 274 64 q 242 29 200 11 q 157 -8 115 -8 l 115 -8 q 91 -8 68 -1 q 45 6 27 21 q 9 35 -2 58 q -13 80 -13 112 l -13 112 q -13 164 16 195 q 44 225 91 241 q 137 256 196 260 q 254 264 313 264 l 313 264 q 315 274 318 293 q 321 311 321 325 l 321 325 q 321 343 312 359 q 302 374 272 374 l 272 374 q 237 374 221 354 q 204 333 199 304 l 199 304 l 53 304 m 286 140 l 302 217 l 284 217 q 255 217 235 210 q 214 202 202 190 q 189 178 183 163 q 177 148 177 133 l 177 133 q 177 109 190 97 q 202 85 219 85 l 219 85 q 240 85 261 100 q 281 115 286 140 l 286 140 m 411 571 l 411 571 q 411 551 403 534 q 394 517 381 505 q 367 492 349 485 q 331 478 312 478 l 312 478 q 276 478 252 500 q 228 522 228 559 l 228 559 q 228 579 236 596 q 244 613 258 625 q 272 637 290 644 q 307 651 327 651 l 327 651 q 363 651 387 629 q 411 606 411 571 m 353 567 l 353 567 q 353 580 344 588 q 335 595 322 595 l 322 595 q 308 595 297 586 q 285 577 285 562 l 285 562 q 285 549 294 541 q 303 532 316 532 l 316 532 q 330 532 342 542 q 353 552 353 567 m 385 687 l 299 687 l 392 833 l 564 833 l 385 687"},"^":{"x_min":65,"x_max":443,"ha":438,"o":"m 151 416 l 65 416 l 211 635 l 360 635 l 443 416 l 367 416 l 284 582 l 151 416"},"~":{"x_min":21,"x_max":431,"ha":462,"o":"m 396 309 l 431 283 q 401 228 371 196 q 340 164 296 164 l 296 164 q 278 164 254 170 q 229 176 204 183 q 178 189 156 195 q 133 201 119 201 l 119 201 q 101 201 82 189 q 63 177 54 166 l 54 166 l 21 194 q 52 245 84 277 q 115 309 158 309 l 158 309 q 174 309 198 304 q 221 298 246 292 q 270 286 293 281 q 316 275 331 275 l 331 275 q 345 275 365 285 q 384 294 396 309 l 396 309"},"*":{"x_min":94,"x_max":308,"ha":273,"o":"m 178 538 l 116 491 l 94 542 l 165 569 l 107 593 l 142 645 l 188 602 l 192 672 l 248 672 l 225 602 l 287 645 l 308 594 l 238 569 l 297 543 l 263 491 l 215 538 l 209 468 l 158 468 l 178 538"},"@":{"x_min":26,"x_max":709,"ha":745,"o":"m 408 -21 l 407 -101 q 378 -107 350 -111 q 322 -116 291 -116 l 291 -116 q 231 -116 182 -97 q 133 -79 99 -43 q 64 -8 45 44 q 26 96 26 163 l 26 163 q 26 250 57 317 q 88 383 140 429 q 191 474 259 497 q 326 520 400 520 l 400 520 q 470 520 527 500 q 584 479 625 442 q 665 405 687 355 q 709 304 709 243 l 709 243 q 709 205 700 167 q 690 129 669 98 q 647 66 611 47 q 575 27 521 27 l 521 27 q 472 27 445 47 q 418 66 416 114 l 416 114 l 410 114 q 392 76 360 56 q 328 35 290 35 l 290 35 q 248 35 221 62 q 193 89 193 150 l 193 150 q 193 165 197 197 q 200 229 215 262 q 229 294 258 318 q 286 342 336 342 l 336 342 q 360 342 382 333 q 403 323 416 291 l 416 291 l 420 291 l 445 335 l 541 335 l 512 199 q 508 180 505 165 q 502 149 502 136 l 502 136 q 502 97 536 97 l 536 97 q 548 97 563 103 q 578 108 592 123 q 605 138 614 164 q 623 189 623 229 l 623 229 q 623 326 564 384 q 505 441 397 441 l 397 441 q 339 441 288 423 q 237 405 199 371 q 160 336 138 285 q 116 233 116 167 l 116 167 q 116 114 130 76 q 144 37 169 11 q 193 -15 227 -27 q 261 -40 300 -40 l 300 -40 q 328 -40 355 -34 q 381 -29 408 -21 l 408 -21 m 372 278 l 372 278 q 357 278 346 264 q 334 249 327 229 q 319 208 316 186 q 312 163 312 146 l 312 146 q 312 106 335 106 l 335 106 q 349 106 361 116 q 373 126 378 134 l 378 134 l 405 254 q 399 263 392 271 q 384 278 372 278"},"ã":{"x_min":-13,"x_max":541,"ha":552,"o":"m 53 304 l 72 393 q 123 418 177 430 q 230 441 296 441 l 296 441 q 360 441 402 431 q 444 421 469 402 q 494 383 504 357 q 514 331 514 298 l 514 298 q 514 279 512 257 q 509 235 506 220 l 506 220 l 459 0 l 298 0 l 280 64 l 274 64 q 242 29 200 11 q 157 -8 115 -8 l 115 -8 q 91 -8 68 -1 q 45 6 27 21 q 9 35 -2 58 q -13 80 -13 112 l -13 112 q -13 164 16 195 q 44 225 91 241 q 137 256 196 260 q 254 264 313 264 l 313 264 q 315 274 318 293 q 321 311 321 325 l 321 325 q 321 343 312 359 q 302 374 272 374 l 272 374 q 237 374 221 354 q 204 333 199 304 l 199 304 l 53 304 m 286 140 l 302 217 l 284 217 q 255 217 235 210 q 214 202 202 190 q 189 178 183 163 q 177 148 177 133 l 177 133 q 177 109 190 97 q 202 85 219 85 l 219 85 q 240 85 261 100 q 281 115 286 140 l 286 140 m 506 640 l 541 615 q 511 560 481 533 q 451 506 406 506 l 406 506 q 388 506 364 512 q 339 518 314 525 q 288 531 266 537 q 243 543 229 543 l 229 543 q 211 543 192 531 q 173 519 164 508 l 164 508 l 131 537 q 162 588 194 614 q 225 640 268 640 l 268 640 q 284 640 308 635 q 331 630 356 624 q 380 617 403 612 q 426 607 441 607 l 441 607 q 455 607 475 617 q 494 626 506 640 l 506 640"},"b":{"x_min":-10,"x_max":558,"ha":585,"o":"m 197 65 l 152 0 l -10 0 l 132 672 l 337 672 l 272 366 l 279 366 q 312 404 354 421 q 395 437 436 437 l 436 437 q 471 437 495 427 q 518 416 532 398 q 546 380 552 355 q 558 330 558 302 l 558 302 q 558 288 556 260 q 554 232 547 198 q 540 163 527 127 q 514 90 493 60 q 471 30 439 11 q 406 -8 361 -8 l 361 -8 q 334 -8 309 -2 q 283 4 263 14 q 242 24 227 38 q 211 51 204 65 l 204 65 l 197 65 m 265 89 l 265 89 q 289 89 305 115 q 321 140 331 175 q 341 209 346 244 q 350 278 350 295 l 350 295 q 350 315 344 328 q 337 341 320 341 l 320 341 q 300 341 283 327 q 266 312 258 302 l 258 302 l 219 123 q 226 111 238 100 q 249 89 265 89"},"\\":{"x_min":94,"x_max":534,"ha":605,"o":"m 534 0 l 432 0 l 94 635 l 185 635 l 534 0"},"|":{"x_min":-33,"x_max":253,"ha":221,"o":"m -33 -168 l 144 672 l 253 672 l 72 -168 l -33 -168"},"{":{"x_min":31,"x_max":384,"ha":314,"o":"m 184 208 l 160 95 q 157 81 154 68 q 150 55 150 46 l 150 46 q 150 23 175 20 q 199 16 240 16 l 240 16 l 222 -69 q 184 -69 151 -67 q 118 -65 94 -57 q 69 -49 55 -32 q 41 -16 41 13 l 41 13 q 41 22 43 36 q 44 49 46 60 l 46 60 l 77 201 q 79 209 80 219 q 81 228 81 235 l 81 235 q 81 258 66 274 q 51 289 31 292 l 31 292 l 47 367 q 77 374 99 391 q 121 408 130 450 l 130 450 l 160 592 q 170 638 191 664 q 211 689 240 702 q 269 714 306 717 q 342 720 384 720 l 384 720 l 366 635 q 343 635 326 634 q 308 633 296 629 q 284 624 277 614 q 270 604 266 587 l 266 587 l 234 441 q 228 413 222 394 q 215 375 207 362 q 199 349 189 340 q 178 331 163 324 l 163 324 q 173 316 182 301 q 191 286 191 260 l 191 260 q 191 248 189 235 q 187 221 184 208 l 184 208"},"}":{"x_min":-42,"x_max":311,"ha":314,"o":"m 159 443 l 183 559 q 186 574 189 586 q 192 598 192 606 l 192 606 q 192 628 167 632 q 142 635 102 635 l 102 635 l 121 720 q 159 720 192 718 q 225 716 249 708 q 273 700 287 684 q 301 667 301 638 l 301 638 q 301 629 300 616 q 298 602 296 591 l 296 591 l 266 450 q 264 442 263 433 q 261 423 261 416 l 261 416 q 261 393 276 378 q 291 362 311 359 l 311 359 l 295 283 q 265 277 243 260 q 221 243 212 201 l 212 201 l 183 59 q 174 13 153 -12 q 132 -38 103 -50 q 73 -63 36 -66 q -1 -69 -42 -69 l -42 -69 l -24 16 q -1 16 17 17 q 34 18 46 23 q 58 27 66 37 q 73 47 77 64 l 77 64 l 108 210 q 114 237 121 256 q 127 275 136 289 q 144 302 155 311 q 165 320 180 327 l 180 327 q 169 335 160 350 q 151 365 151 391 l 151 391 q 151 404 154 417 q 156 430 159 443 l 159 443"},"[":{"x_min":-12,"x_max":368,"ha":295,"o":"m -12 -69 l 156 720 l 368 720 l 351 635 l 245 635 l 112 16 l 218 16 l 201 -69 l -12 -69"},"]":{"x_min":-45,"x_max":336,"ha":295,"o":"m 336 720 l 168 -69 l -45 -69 l -28 16 l 78 16 l 212 635 l 106 635 l 122 720 l 336 720"},"˘":{"x_min":26,"x_max":356,"ha":382,"o":"m 165 489 l 165 489 q 106 489 71 519 q 36 548 26 614 l 26 614 l 77 635 q 83 615 94 603 q 105 590 119 583 q 132 576 147 574 q 161 571 173 571 l 173 571 q 215 571 254 593 q 292 615 318 650 l 318 650 l 356 616 q 318 547 270 518 q 222 489 165 489"},"¦":{"x_min":-32,"x_max":254,"ha":223,"o":"m 71 314 l 145 672 l 254 672 l 176 314 l 71 314 m -32 -168 l 42 190 l 151 190 l 73 -168 l -32 -168"},"•":{"x_min":78,"x_max":314,"ha":348,"o":"m 78 364 l 78 364 q 78 388 87 410 q 96 432 112 448 q 128 464 150 474 q 171 483 196 483 l 196 483 q 220 483 242 474 q 263 464 279 448 q 295 432 305 410 q 314 388 314 364 l 314 364 q 314 339 305 318 q 295 296 279 281 q 263 265 242 256 q 220 247 196 247 l 196 247 q 171 247 150 256 q 128 265 112 281 q 96 296 87 318 q 78 339 78 364"},"c":{"x_min":11,"x_max":511,"ha":521,"o":"m 473 165 l 444 24 q 402 7 356 0 q 309 -8 250 -8 l 250 -8 q 198 -8 155 3 q 111 13 79 36 q 47 59 29 96 q 11 132 11 184 l 11 184 q 11 238 30 285 q 48 331 86 366 q 123 401 181 421 q 239 441 319 441 l 319 441 q 384 441 432 431 q 480 420 511 383 l 511 383 l 483 255 l 347 255 q 348 272 349 285 q 350 298 350 314 l 350 314 q 350 346 343 360 q 336 373 320 373 l 320 373 q 292 373 271 346 q 250 318 237 280 q 223 241 217 199 q 210 156 210 126 l 210 126 q 210 115 211 104 q 212 92 216 82 q 219 72 225 66 q 231 60 242 60 l 242 60 q 252 60 265 66 q 278 72 290 85 q 302 97 313 117 q 324 137 330 165 l 330 165 l 473 165"},"ć":{"x_min":11,"x_max":546,"ha":521,"o":"m 473 165 l 444 24 q 402 7 356 0 q 309 -8 250 -8 l 250 -8 q 198 -8 155 3 q 111 13 79 36 q 47 59 29 96 q 11 132 11 184 l 11 184 q 11 238 30 285 q 48 331 86 366 q 123 401 181 421 q 239 441 319 441 l 319 441 q 384 441 432 431 q 480 420 511 383 l 511 383 l 483 255 l 347 255 q 348 272 349 285 q 350 298 350 314 l 350 314 q 350 346 343 360 q 336 373 320 373 l 320 373 q 292 373 271 346 q 250 318 237 280 q 223 241 217 199 q 210 156 210 126 l 210 126 q 210 115 211 104 q 212 92 216 82 q 219 72 225 66 q 231 60 242 60 l 242 60 q 252 60 265 66 q 278 72 290 85 q 302 97 313 117 q 324 137 330 165 l 330 165 l 473 165 m 367 489 l 281 489 l 374 635 l 546 635 l 367 489"},"ˇ":{"x_min":26,"x_max":404,"ha":430,"o":"m 318 635 l 404 635 l 258 489 l 109 489 l 26 635 l 103 635 l 186 543 l 318 635"},"č":{"x_min":11,"x_max":562,"ha":521,"o":"m 473 165 l 444 24 q 402 7 356 0 q 309 -8 250 -8 l 250 -8 q 198 -8 155 3 q 111 13 79 36 q 47 59 29 96 q 11 132 11 184 l 11 184 q 11 238 30 285 q 48 331 86 366 q 123 401 181 421 q 239 441 319 441 l 319 441 q 384 441 432 431 q 480 420 511 383 l 511 383 l 483 255 l 347 255 q 348 272 349 285 q 350 298 350 314 l 350 314 q 350 346 343 360 q 336 373 320 373 l 320 373 q 292 373 271 346 q 250 318 237 280 q 223 241 217 199 q 210 156 210 126 l 210 126 q 210 115 211 104 q 212 92 216 82 q 219 72 225 66 q 231 60 242 60 l 242 60 q 252 60 265 66 q 278 72 290 85 q 302 97 313 117 q 324 137 330 165 l 330 165 l 473 165 m 476 635 l 562 635 l 416 489 l 267 489 l 184 635 l 261 635 l 344 543 l 476 635"},"ç":{"x_min":11,"x_max":511,"ha":521,"o":"m 473 165 l 444 24 q 405 8 362 1 q 319 -6 266 -8 l 266 -8 l 251 -68 q 257 -66 272 -60 q 287 -54 309 -54 l 309 -54 q 345 -54 365 -70 q 385 -87 385 -117 l 385 -117 q 385 -143 372 -161 q 358 -180 337 -191 q 316 -203 290 -208 q 263 -214 237 -214 l 237 -214 q 205 -214 187 -205 q 169 -197 156 -184 l 156 -184 l 179 -154 q 184 -161 201 -167 q 217 -173 231 -173 l 231 -173 q 238 -173 247 -171 q 256 -169 264 -163 q 271 -158 277 -149 q 282 -140 282 -126 l 282 -126 q 282 -113 276 -106 q 269 -100 260 -100 l 260 -100 q 254 -100 246 -104 q 238 -108 234 -119 l 234 -119 l 159 -119 l 190 -4 q 150 1 117 15 q 84 28 61 51 q 37 74 24 107 q 11 140 11 184 l 11 184 q 11 238 30 285 q 48 331 86 366 q 123 401 181 421 q 239 441 319 441 l 319 441 q 384 441 432 431 q 480 420 511 383 l 511 383 l 483 255 l 347 255 q 348 272 349 285 q 350 298 350 314 l 350 314 q 350 346 343 360 q 336 373 320 373 l 320 373 q 292 373 271 346 q 250 318 237 280 q 223 241 217 199 q 210 156 210 126 l 210 126 q 210 115 211 104 q 212 92 216 82 q 219 72 225 66 q 231 60 242 60 l 242 60 q 252 60 265 66 q 278 72 290 85 q 302 97 313 117 q 324 137 330 165 l 330 165 l 473 165"},"ĉ":{"x_min":11,"x_max":521,"ha":521,"o":"m 473 165 l 444 24 q 402 7 356 0 q 309 -8 250 -8 l 250 -8 q 198 -8 155 3 q 111 13 79 36 q 47 59 29 96 q 11 132 11 184 l 11 184 q 11 238 30 285 q 48 331 86 366 q 123 401 181 421 q 239 441 319 441 l 319 441 q 384 441 432 431 q 480 420 511 383 l 511 383 l 483 255 l 347 255 q 348 272 349 285 q 350 298 350 314 l 350 314 q 350 346 343 360 q 336 373 320 373 l 320 373 q 292 373 271 346 q 250 318 237 280 q 223 241 217 199 q 210 156 210 126 l 210 126 q 210 115 211 104 q 212 92 216 82 q 219 72 225 66 q 231 60 242 60 l 242 60 q 252 60 265 66 q 278 72 290 85 q 302 97 313 117 q 324 137 330 165 l 330 165 l 473 165 m 229 489 l 143 489 l 289 635 l 438 635 l 521 489 l 445 489 l 362 582 l 229 489"},"ċ":{"x_min":11,"x_max":511,"ha":521,"o":"m 473 165 l 444 24 q 402 7 356 0 q 309 -8 250 -8 l 250 -8 q 198 -8 155 3 q 111 13 79 36 q 47 59 29 96 q 11 132 11 184 l 11 184 q 11 238 30 285 q 48 331 86 366 q 123 401 181 421 q 239 441 319 441 l 319 441 q 384 441 432 431 q 480 420 511 383 l 511 383 l 483 255 l 347 255 q 348 272 349 285 q 350 298 350 314 l 350 314 q 350 346 343 360 q 336 373 320 373 l 320 373 q 292 373 271 346 q 250 318 237 280 q 223 241 217 199 q 210 156 210 126 l 210 126 q 210 115 211 104 q 212 92 216 82 q 219 72 225 66 q 231 60 242 60 l 242 60 q 252 60 265 66 q 278 72 290 85 q 302 97 313 117 q 324 137 330 165 l 330 165 l 473 165 m 461 561 l 461 561 q 461 538 452 521 q 442 504 427 492 q 411 480 391 474 q 371 468 350 468 l 350 468 q 310 468 283 487 q 256 506 256 547 l 256 547 q 256 569 265 587 q 274 604 290 616 q 305 627 326 633 q 346 639 368 639 l 368 639 q 407 639 434 620 q 461 601 461 561"},"¸":{"x_min":28,"x_max":257,"ha":244,"o":"m 67 14 l 143 13 l 123 -68 q 129 -66 144 -60 q 159 -54 181 -54 l 181 -54 q 217 -54 237 -70 q 257 -87 257 -117 l 257 -117 q 257 -143 244 -161 q 230 -180 209 -191 q 188 -203 162 -208 q 135 -214 109 -214 l 109 -214 q 77 -214 59 -205 q 41 -197 28 -184 l 28 -184 l 51 -154 q 56 -161 73 -167 q 89 -173 103 -173 l 103 -173 q 110 -173 119 -171 q 128 -169 136 -163 q 143 -158 149 -149 q 154 -140 154 -126 l 154 -126 q 154 -113 148 -106 q 141 -100 132 -100 l 132 -100 q 126 -100 118 -104 q 110 -108 106 -119 l 106 -119 l 31 -119 l 67 14"},"¢":{"x_min":39,"x_max":539,"ha":537,"o":"m 187 0 l 209 107 q 132 119 86 164 q 39 208 39 294 l 39 294 q 39 344 55 389 q 71 433 105 467 q 138 501 189 523 q 240 544 310 549 l 310 549 l 330 646 l 439 646 l 415 548 q 455 543 486 531 q 516 519 539 493 l 539 493 l 511 365 l 375 365 q 376 382 377 395 q 378 408 378 424 l 378 424 q 378 456 371 470 q 364 483 348 483 l 348 483 q 320 483 299 456 q 278 428 265 390 q 251 351 245 309 q 238 266 238 236 l 238 236 q 238 225 239 214 q 240 202 244 192 q 247 182 253 176 q 259 170 270 170 l 270 170 q 291 170 318 195 q 345 219 358 275 l 358 275 l 501 275 l 472 134 q 404 106 316 102 l 316 102 l 292 0 l 187 0"},"ˆ":{"x_min":26,"x_max":404,"ha":430,"o":"m 112 489 l 26 489 l 172 635 l 321 635 l 404 489 l 328 489 l 245 582 l 112 489"},":":{"x_min":9,"x_max":246,"ha":282,"o":"m 196 81 l 196 81 q 196 60 188 43 q 179 26 165 15 q 150 4 132 -2 q 113 -8 93 -8 l 93 -8 q 58 -8 34 11 q 9 30 9 70 l 9 70 q 9 113 39 137 q 69 160 109 160 l 109 160 q 146 160 171 141 q 196 121 196 81 m 246 318 l 246 318 q 246 297 238 280 q 229 263 215 252 q 200 241 182 235 q 163 229 143 229 l 143 229 q 108 229 84 248 q 59 267 59 308 l 59 308 q 59 350 90 374 q 120 397 159 397 l 159 397 q 196 397 221 378 q 246 359 246 318"},",":{"x_min":-20,"x_max":201,"ha":275,"o":"m 201 85 l 201 85 q 201 47 183 12 q 165 -23 138 -52 q 110 -82 76 -104 q 41 -127 8 -140 l 8 -140 l -20 -98 q 16 -70 35 -48 q 53 -26 53 -4 l 53 -4 q 53 31 -3 72 l -3 72 q -3 96 6 115 q 15 134 31 147 q 46 160 66 167 q 86 174 107 174 l 107 174 q 147 174 174 152 q 201 130 201 85"},"":{"x_min":34,"x_max":192,"ha":227,"o":"m 192 -127 l 192 -127 q 192 -153 180 -177 q 167 -201 147 -221 q 127 -242 103 -258 q 79 -274 55 -284 l 55 -284 l 34 -254 q 59 -235 73 -219 q 86 -203 86 -187 l 86 -187 q 86 -162 46 -135 l 46 -135 q 46 -100 70 -81 q 94 -62 126 -62 l 126 -62 q 155 -62 174 -78 q 192 -94 192 -127"},"©":{"x_min":45,"x_max":733,"ha":755,"o":"m 733 337 l 733 337 q 733 260 702 196 q 670 131 618 85 q 566 38 499 12 q 432 -14 360 -14 l 360 -14 q 294 -14 237 8 q 179 30 137 70 q 94 110 70 166 q 45 222 45 290 l 45 290 q 45 365 76 428 q 106 491 158 537 q 210 583 277 609 q 344 635 418 635 l 418 635 q 485 635 543 613 q 600 591 643 552 q 685 513 709 458 q 733 403 733 337 m 666 333 l 666 333 q 666 386 647 430 q 627 474 593 506 q 559 537 513 555 q 467 572 413 572 l 413 572 q 353 572 299 551 q 245 530 204 493 q 162 456 138 405 q 113 354 113 294 l 113 294 q 113 239 133 194 q 152 149 186 117 q 220 84 266 67 q 312 49 366 49 l 366 49 q 423 49 477 70 q 531 91 573 129 q 615 167 641 219 q 666 271 666 333 m 540 271 l 519 168 q 487 155 453 150 q 419 144 376 144 l 376 144 q 338 144 306 152 q 273 159 250 176 q 226 193 213 220 q 200 247 200 285 l 200 285 q 200 325 214 360 q 227 394 255 420 q 283 445 326 460 q 368 475 427 475 l 427 475 q 475 475 510 467 q 545 459 568 432 l 568 432 l 547 338 l 447 338 q 448 350 449 360 q 449 370 449 381 l 449 381 q 449 425 427 425 l 427 425 q 406 425 391 405 q 376 385 366 357 q 356 328 351 297 q 346 265 346 243 l 346 243 q 346 226 350 210 q 354 194 370 194 l 370 194 q 386 194 406 212 q 425 229 435 271 l 435 271 l 540 271"},"¤":{"x_min":16,"x_max":621,"ha":604,"o":"m 180 602 l 236 531 q 265 548 297 557 q 329 566 364 566 l 364 566 q 396 566 425 557 q 454 548 477 532 l 477 532 l 561 602 l 621 527 l 537 457 q 553 420 553 380 l 553 380 q 553 335 536 293 q 518 251 489 216 l 489 216 l 546 145 l 458 71 l 400 142 q 341 108 274 108 l 274 108 q 209 108 161 142 l 161 142 l 75 71 l 16 145 l 101 217 q 86 251 86 293 l 86 293 q 86 337 102 379 q 118 421 147 456 l 147 456 l 91 527 l 180 602 m 346 468 l 346 468 q 316 468 287 456 q 258 443 236 422 q 213 400 199 372 q 185 343 185 311 l 185 311 q 185 266 215 236 q 245 205 293 205 l 293 205 q 322 205 351 218 q 379 230 402 251 q 425 272 439 301 q 453 329 453 362 l 453 362 q 453 407 424 438 q 394 468 346 468"},"d":{"x_min":7,"x_max":621,"ha":577,"o":"m 351 365 l 416 672 l 621 672 l 478 0 l 316 0 l 298 64 l 291 64 q 285 55 273 43 q 260 30 241 19 q 222 7 196 0 q 170 -8 136 -8 l 136 -8 q 101 -8 77 3 q 52 13 37 31 q 21 49 14 75 q 7 100 7 130 l 7 130 q 7 143 9 172 q 11 200 19 235 q 26 269 41 306 q 55 342 80 372 q 104 402 140 422 q 176 441 227 441 l 227 441 q 243 441 261 438 q 279 435 296 427 q 312 419 325 404 q 338 389 344 365 l 344 365 l 351 365 m 294 343 l 294 343 q 270 343 254 317 q 238 290 228 255 q 218 220 214 185 q 209 150 209 133 l 209 133 q 209 113 215 100 q 221 86 238 86 l 238 86 q 248 86 258 91 q 267 95 276 102 q 284 108 290 115 q 296 122 300 127 l 300 127 l 339 309 q 332 320 321 332 q 309 343 294 343"},"†":{"x_min":47,"x_max":380,"ha":365,"o":"m 49 372 l 65 447 l 176 447 l 224 672 l 322 672 l 273 447 l 380 447 l 365 372 l 257 372 l 141 -168 l 47 -168 l 161 372 l 49 372"},"‡":{"x_min":-11,"x_max":384,"ha":374,"o":"m 53 372 l 69 447 l 180 447 l 228 672 l 326 672 l 277 447 l 384 447 l 369 372 l 261 372 l 212 143 l 320 143 l 305 67 l 195 67 l 145 -168 l 51 -168 l 100 67 l -11 67 l 5 143 l 116 143 l 165 372 l 53 372"},"ď":{"x_min":7,"x_max":803,"ha":673,"o":"m 351 365 l 416 672 l 621 672 l 478 0 l 316 0 l 298 64 l 291 64 q 285 55 273 43 q 260 30 241 19 q 222 7 196 0 q 170 -8 136 -8 l 136 -8 q 101 -8 77 3 q 52 13 37 31 q 21 49 14 75 q 7 100 7 130 l 7 130 q 7 143 9 172 q 11 200 19 235 q 26 269 41 306 q 55 342 80 372 q 104 402 140 422 q 176 441 227 441 l 227 441 q 243 441 261 438 q 279 435 296 427 q 312 419 325 404 q 338 389 344 365 l 344 365 l 351 365 m 294 343 l 294 343 q 270 343 254 317 q 238 290 228 255 q 218 220 214 185 q 209 150 209 133 l 209 133 q 209 113 215 100 q 221 86 238 86 l 238 86 q 248 86 258 91 q 267 95 276 102 q 284 108 290 115 q 296 122 300 127 l 300 127 l 339 309 q 332 320 321 332 q 309 343 294 343 m 618 423 l 618 423 q 634 435 653 453 q 672 470 687 499 l 687 499 q 663 505 648 523 q 633 540 633 566 l 633 566 q 633 586 641 602 q 648 617 661 628 q 674 639 690 645 q 706 651 724 651 l 724 651 q 757 651 780 633 q 803 614 803 576 l 803 576 q 803 543 789 514 q 774 484 751 460 q 728 436 699 418 q 670 400 641 388 l 641 388 q 634 397 629 405 l 629 405 q 624 412 621 418 q 617 423 618 423"},"đ":{"x_min":7,"x_max":682,"ha":577,"o":"m 293 498 l 312 574 l 395 574 l 416 672 l 621 672 l 600 574 l 682 574 l 664 498 l 584 498 l 478 0 l 316 0 l 298 64 l 291 64 q 285 55 273 43 q 260 30 241 19 q 222 7 196 0 q 170 -8 136 -8 l 136 -8 q 101 -8 77 3 q 52 13 37 31 q 21 49 14 75 q 7 100 7 130 l 7 130 q 7 143 9 172 q 11 200 19 235 q 26 269 41 306 q 55 342 80 372 q 104 402 140 422 q 176 441 227 441 l 227 441 q 243 441 261 438 q 279 435 296 427 q 312 419 325 404 q 338 389 344 365 l 344 365 l 351 365 l 379 498 l 293 498 m 294 343 l 294 343 q 270 343 254 317 q 238 290 228 255 q 218 220 214 185 q 209 150 209 133 l 209 133 q 209 113 215 100 q 221 86 238 86 l 238 86 q 248 86 258 91 q 267 95 276 102 q 284 108 290 115 q 296 122 300 127 l 300 127 l 339 309 q 332 320 321 332 q 309 343 294 343"},"ḍ":{"x_min":7,"x_max":621,"ha":577,"o":"m 351 365 l 416 672 l 621 672 l 478 0 l 316 0 l 298 64 l 291 64 q 285 55 273 43 q 260 30 241 19 q 222 7 196 0 q 170 -8 136 -8 l 136 -8 q 101 -8 77 3 q 52 13 37 31 q 21 49 14 75 q 7 100 7 130 l 7 130 q 7 143 9 172 q 11 200 19 235 q 26 269 41 306 q 55 342 80 372 q 104 402 140 422 q 176 441 227 441 l 227 441 q 243 441 261 438 q 279 435 296 427 q 312 419 325 404 q 338 389 344 365 l 344 365 l 351 365 m 294 343 l 294 343 q 270 343 254 317 q 238 290 228 255 q 218 220 214 185 q 209 150 209 133 l 209 133 q 209 113 215 100 q 221 86 238 86 l 238 86 q 248 86 258 91 q 267 95 276 102 q 284 108 290 115 q 296 122 300 127 l 300 127 l 339 309 q 332 320 321 332 q 309 343 294 343 m 317 -144 l 317 -144 q 317 -162 310 -176 q 302 -190 290 -199 q 277 -208 261 -213 q 244 -218 227 -218 l 227 -218 q 195 -218 173 -203 q 150 -188 150 -154 l 150 -154 q 150 -118 178 -99 q 205 -81 241 -81 l 241 -81 q 273 -81 295 -96 q 317 -111 317 -144"},"°":{"x_min":84,"x_max":371,"ha":348,"o":"m 371 526 l 371 526 q 371 494 358 467 q 345 440 324 421 q 302 401 274 391 q 245 380 215 380 l 215 380 q 187 380 163 389 q 139 398 122 415 q 104 431 94 454 q 84 477 84 506 l 84 506 q 84 538 97 565 q 109 591 131 611 q 152 630 180 641 q 208 651 239 651 l 239 651 q 267 651 291 642 q 315 633 333 617 q 351 600 361 577 q 371 554 371 526 m 300 523 l 300 523 q 300 549 280 568 q 260 587 234 587 l 234 587 q 218 587 204 581 q 189 575 178 565 q 166 554 160 540 q 153 526 153 509 l 153 509 q 153 480 172 461 q 191 442 218 442 l 218 442 q 234 442 249 449 q 263 455 275 466 q 286 477 293 492 q 300 506 300 523"},"¨":{"x_min":26,"x_max":391,"ha":417,"o":"m 108 631 l 108 631 q 144 631 161 611 q 178 590 178 561 l 178 561 q 178 529 158 504 q 137 478 97 478 l 97 478 q 60 478 43 499 q 26 519 26 548 l 26 548 q 26 580 47 606 q 68 631 108 631 m 320 631 l 320 631 q 357 631 374 611 q 391 590 391 561 l 391 561 q 391 529 370 504 q 349 478 309 478 l 309 478 q 272 478 255 499 q 238 519 238 548 l 238 548 q 238 580 259 606 q 280 631 320 631"},"÷":{"x_min":31,"x_max":454,"ha":460,"o":"m 283 117 l 283 117 q 283 96 275 79 q 266 62 252 51 q 237 39 219 33 q 200 27 180 27 l 180 27 q 145 27 121 46 q 96 65 96 106 l 96 106 q 96 149 126 172 q 156 195 196 195 l 196 195 q 233 195 258 176 q 283 157 283 117 m 388 524 l 388 524 q 388 503 380 486 q 371 469 357 458 q 342 447 324 441 q 305 435 285 435 l 285 435 q 250 435 226 454 q 201 473 201 513 l 201 513 q 201 556 231 580 q 261 603 301 603 l 301 603 q 338 603 363 584 q 388 564 388 524 m 31 273 l 52 364 l 454 364 l 434 273 l 31 273"},"$":{"x_min":42,"x_max":558,"ha":596,"o":"m 174 -107 l 195 -6 q 147 -1 110 10 q 73 21 42 41 l 42 41 l 67 112 q 88 100 113 92 q 137 83 161 78 q 185 72 207 69 q 229 66 244 66 l 244 66 q 274 66 293 75 q 312 84 324 98 q 335 111 340 127 q 344 143 344 157 l 344 157 q 344 180 334 196 q 324 211 307 222 q 290 233 267 241 q 243 248 215 256 l 215 256 q 190 263 164 273 q 137 283 115 301 q 93 319 79 348 q 65 376 65 421 l 65 421 q 65 480 90 521 q 114 561 153 587 q 192 612 240 625 q 287 638 332 642 l 332 642 l 349 720 l 458 720 l 439 642 q 476 638 505 629 q 534 620 558 606 l 558 606 l 533 534 q 496 550 461 561 q 426 572 383 572 l 383 572 q 348 572 325 565 q 302 557 289 544 q 275 531 269 515 q 263 499 263 483 l 263 483 q 263 457 276 442 q 288 427 309 418 q 330 409 359 403 q 387 397 420 388 l 420 388 q 445 381 470 370 q 495 359 515 341 q 534 322 546 293 q 558 263 558 220 l 558 220 q 558 164 538 124 q 518 84 483 57 q 448 30 402 15 q 355 0 303 -5 l 303 -5 l 279 -107 l 174 -107"},"˙":{"x_min":26,"x_max":231,"ha":257,"o":"m 231 561 l 231 561 q 231 538 222 521 q 212 504 197 492 q 181 480 161 474 q 141 468 120 468 l 120 468 q 80 468 53 487 q 26 506 26 547 l 26 547 q 26 569 35 587 q 44 604 60 616 q 75 627 96 633 q 116 639 138 639 l 138 639 q 177 639 204 620 q 231 601 231 561"},"ı":{"x_min":-10,"x_max":286,"ha":293,"o":"m 286 430 l 193 0 l -10 0 l 81 430 l 286 430"},"ȷ":{"x_min":-106,"x_max":286,"ha":294,"o":"m 286 430 l 202 37 q 187 -33 156 -73 q 124 -114 82 -135 q 40 -156 -8 -162 q -57 -168 -106 -168 l -106 -168 l -94 -99 q -79 -99 -66 -96 q -54 -93 -44 -83 q -34 -73 -25 -53 q -17 -34 -10 0 l -10 0 l 81 430 l 286 430"},"e":{"x_min":11,"x_max":531,"ha":547,"o":"m 499 201 l 218 201 q 214 179 213 159 q 211 139 211 123 l 211 123 q 211 114 212 103 q 213 92 217 83 q 220 73 227 67 q 233 60 245 60 l 245 60 q 254 60 266 66 q 277 72 289 83 q 300 94 311 110 q 321 126 327 146 l 327 146 l 491 146 l 465 39 q 445 26 419 17 q 393 8 364 3 q 335 -3 305 -5 q 275 -8 248 -8 l 248 -8 q 198 -8 155 1 q 112 10 80 32 q 48 54 30 91 q 11 127 11 181 l 11 181 q 11 230 27 277 q 42 324 79 361 q 115 397 177 419 q 238 441 330 441 l 330 441 q 430 441 481 410 q 531 379 531 313 l 531 313 q 531 286 523 255 q 515 223 499 201 l 499 201 m 351 320 l 351 320 q 351 351 341 362 q 331 373 317 373 l 317 373 q 301 373 288 363 q 274 352 263 335 q 252 317 243 295 q 234 272 228 247 l 228 247 l 342 247 q 344 259 346 272 l 346 272 q 348 283 350 296 q 351 309 351 320"},"é":{"x_min":11,"x_max":549,"ha":547,"o":"m 499 201 l 218 201 q 214 179 213 159 q 211 139 211 123 l 211 123 q 211 114 212 103 q 213 92 217 83 q 220 73 227 67 q 233 60 245 60 l 245 60 q 254 60 266 66 q 277 72 289 83 q 300 94 311 110 q 321 126 327 146 l 327 146 l 491 146 l 465 39 q 445 26 419 17 q 393 8 364 3 q 335 -3 305 -5 q 275 -8 248 -8 l 248 -8 q 198 -8 155 1 q 112 10 80 32 q 48 54 30 91 q 11 127 11 181 l 11 181 q 11 230 27 277 q 42 324 79 361 q 115 397 177 419 q 238 441 330 441 l 330 441 q 430 441 481 410 q 531 379 531 313 l 531 313 q 531 286 523 255 q 515 223 499 201 l 499 201 m 351 320 l 351 320 q 351 351 341 362 q 331 373 317 373 l 317 373 q 301 373 288 363 q 274 352 263 335 q 252 317 243 295 q 234 272 228 247 l 228 247 l 342 247 q 344 259 346 272 l 346 272 q 348 283 350 296 q 351 309 351 320 m 370 489 l 284 489 l 377 635 l 549 635 l 370 489"},"ĕ":{"x_min":11,"x_max":531,"ha":547,"o":"m 499 201 l 218 201 q 214 179 213 159 q 211 139 211 123 l 211 123 q 211 114 212 103 q 213 92 217 83 q 220 73 227 67 q 233 60 245 60 l 245 60 q 254 60 266 66 q 277 72 289 83 q 300 94 311 110 q 321 126 327 146 l 327 146 l 491 146 l 465 39 q 445 26 419 17 q 393 8 364 3 q 335 -3 305 -5 q 275 -8 248 -8 l 248 -8 q 198 -8 155 1 q 112 10 80 32 q 48 54 30 91 q 11 127 11 181 l 11 181 q 11 230 27 277 q 42 324 79 361 q 115 397 177 419 q 238 441 330 441 l 330 441 q 430 441 481 410 q 531 379 531 313 l 531 313 q 531 286 523 255 q 515 223 499 201 l 499 201 m 351 320 l 351 320 q 351 351 341 362 q 331 373 317 373 l 317 373 q 301 373 288 363 q 274 352 263 335 q 252 317 243 295 q 234 272 228 247 l 228 247 l 342 247 q 344 259 346 272 l 346 272 q 348 283 350 296 q 351 309 351 320 m 332 489 l 332 489 q 273 489 238 519 q 203 548 193 614 l 193 614 l 244 635 q 250 615 261 603 q 272 590 286 583 q 299 576 314 574 q 328 571 340 571 l 340 571 q 382 571 421 593 q 459 615 485 650 l 485 650 l 523 616 q 485 547 437 518 q 389 489 332 489"},"ě":{"x_min":11,"x_max":566,"ha":547,"o":"m 499 201 l 218 201 q 214 179 213 159 q 211 139 211 123 l 211 123 q 211 114 212 103 q 213 92 217 83 q 220 73 227 67 q 233 60 245 60 l 245 60 q 254 60 266 66 q 277 72 289 83 q 300 94 311 110 q 321 126 327 146 l 327 146 l 491 146 l 465 39 q 445 26 419 17 q 393 8 364 3 q 335 -3 305 -5 q 275 -8 248 -8 l 248 -8 q 198 -8 155 1 q 112 10 80 32 q 48 54 30 91 q 11 127 11 181 l 11 181 q 11 230 27 277 q 42 324 79 361 q 115 397 177 419 q 238 441 330 441 l 330 441 q 430 441 481 410 q 531 379 531 313 l 531 313 q 531 286 523 255 q 515 223 499 201 l 499 201 m 351 320 l 351 320 q 351 351 341 362 q 331 373 317 373 l 317 373 q 301 373 288 363 q 274 352 263 335 q 252 317 243 295 q 234 272 228 247 l 228 247 l 342 247 q 344 259 346 272 l 346 272 q 348 283 350 296 q 351 309 351 320 m 480 635 l 566 635 l 420 489 l 271 489 l 188 635 l 265 635 l 348 543 l 480 635"},"ê":{"x_min":11,"x_max":534,"ha":547,"o":"m 499 201 l 218 201 q 214 179 213 159 q 211 139 211 123 l 211 123 q 211 114 212 103 q 213 92 217 83 q 220 73 227 67 q 233 60 245 60 l 245 60 q 254 60 266 66 q 277 72 289 83 q 300 94 311 110 q 321 126 327 146 l 327 146 l 491 146 l 465 39 q 445 26 419 17 q 393 8 364 3 q 335 -3 305 -5 q 275 -8 248 -8 l 248 -8 q 198 -8 155 1 q 112 10 80 32 q 48 54 30 91 q 11 127 11 181 l 11 181 q 11 230 27 277 q 42 324 79 361 q 115 397 177 419 q 238 441 330 441 l 330 441 q 430 441 481 410 q 531 379 531 313 l 531 313 q 531 286 523 255 q 515 223 499 201 l 499 201 m 351 320 l 351 320 q 351 351 341 362 q 331 373 317 373 l 317 373 q 301 373 288 363 q 274 352 263 335 q 252 317 243 295 q 234 272 228 247 l 228 247 l 342 247 q 344 259 346 272 l 346 272 q 348 283 350 296 q 351 309 351 320 m 242 489 l 156 489 l 302 635 l 451 635 l 534 489 l 458 489 l 375 582 l 242 489"},"ë":{"x_min":11,"x_max":539,"ha":547,"o":"m 499 201 l 218 201 q 214 179 213 159 q 211 139 211 123 l 211 123 q 211 114 212 103 q 213 92 217 83 q 220 73 227 67 q 233 60 245 60 l 245 60 q 254 60 266 66 q 277 72 289 83 q 300 94 311 110 q 321 126 327 146 l 327 146 l 491 146 l 465 39 q 445 26 419 17 q 393 8 364 3 q 335 -3 305 -5 q 275 -8 248 -8 l 248 -8 q 198 -8 155 1 q 112 10 80 32 q 48 54 30 91 q 11 127 11 181 l 11 181 q 11 230 27 277 q 42 324 79 361 q 115 397 177 419 q 238 441 330 441 l 330 441 q 430 441 481 410 q 531 379 531 313 l 531 313 q 531 286 523 255 q 515 223 499 201 l 499 201 m 351 320 l 351 320 q 351 351 341 362 q 331 373 317 373 l 317 373 q 301 373 288 363 q 274 352 263 335 q 252 317 243 295 q 234 272 228 247 l 228 247 l 342 247 q 344 259 346 272 l 346 272 q 348 283 350 296 q 351 309 351 320 m 256 631 l 256 631 q 292 631 309 611 q 326 590 326 561 l 326 561 q 326 529 306 504 q 285 478 245 478 l 245 478 q 208 478 191 499 q 174 519 174 548 l 174 548 q 174 580 195 606 q 216 631 256 631 m 468 631 l 468 631 q 505 631 522 611 q 539 590 539 561 l 539 561 q 539 529 518 504 q 497 478 457 478 l 457 478 q 420 478 403 499 q 386 519 386 548 l 386 548 q 386 580 407 606 q 428 631 468 631"},"ė":{"x_min":11,"x_max":531,"ha":547,"o":"m 499 201 l 218 201 q 214 179 213 159 q 211 139 211 123 l 211 123 q 211 114 212 103 q 213 92 217 83 q 220 73 227 67 q 233 60 245 60 l 245 60 q 254 60 266 66 q 277 72 289 83 q 300 94 311 110 q 321 126 327 146 l 327 146 l 491 146 l 465 39 q 445 26 419 17 q 393 8 364 3 q 335 -3 305 -5 q 275 -8 248 -8 l 248 -8 q 198 -8 155 1 q 112 10 80 32 q 48 54 30 91 q 11 127 11 181 l 11 181 q 11 230 27 277 q 42 324 79 361 q 115 397 177 419 q 238 441 330 441 l 330 441 q 430 441 481 410 q 531 379 531 313 l 531 313 q 531 286 523 255 q 515 223 499 201 l 499 201 m 351 320 l 351 320 q 351 351 341 362 q 331 373 317 373 l 317 373 q 301 373 288 363 q 274 352 263 335 q 252 317 243 295 q 234 272 228 247 l 228 247 l 342 247 q 344 259 346 272 l 346 272 q 348 283 350 296 q 351 309 351 320 m 446 561 l 446 561 q 446 538 437 521 q 427 504 412 492 q 396 480 376 474 q 356 468 335 468 l 335 468 q 295 468 268 487 q 241 506 241 547 l 241 547 q 241 569 250 587 q 259 604 275 616 q 290 627 311 633 q 331 639 353 639 l 353 639 q 392 639 419 620 q 446 601 446 561"},"ẹ":{"x_min":11,"x_max":531,"ha":547,"o":"m 499 201 l 218 201 q 214 179 213 159 q 211 139 211 123 l 211 123 q 211 114 212 103 q 213 92 217 83 q 220 73 227 67 q 233 60 245 60 l 245 60 q 254 60 266 66 q 277 72 289 83 q 300 94 311 110 q 321 126 327 146 l 327 146 l 491 146 l 465 39 q 445 26 419 17 q 393 8 364 3 q 335 -3 305 -5 q 275 -8 248 -8 l 248 -8 q 198 -8 155 1 q 112 10 80 32 q 48 54 30 91 q 11 127 11 181 l 11 181 q 11 230 27 277 q 42 324 79 361 q 115 397 177 419 q 238 441 330 441 l 330 441 q 430 441 481 410 q 531 379 531 313 l 531 313 q 531 286 523 255 q 515 223 499 201 l 499 201 m 351 320 l 351 320 q 351 351 341 362 q 331 373 317 373 l 317 373 q 301 373 288 363 q 274 352 263 335 q 252 317 243 295 q 234 272 228 247 l 228 247 l 342 247 q 344 259 346 272 l 346 272 q 348 283 350 296 q 351 309 351 320 m 300 -144 l 300 -144 q 300 -162 293 -176 q 285 -190 273 -199 q 260 -208 244 -213 q 227 -218 210 -218 l 210 -218 q 178 -218 156 -203 q 133 -188 133 -154 l 133 -154 q 133 -118 161 -99 q 188 -81 224 -81 l 224 -81 q 256 -81 278 -96 q 300 -111 300 -144"},"è":{"x_min":11,"x_max":531,"ha":547,"o":"m 499 201 l 218 201 q 214 179 213 159 q 211 139 211 123 l 211 123 q 211 114 212 103 q 213 92 217 83 q 220 73 227 67 q 233 60 245 60 l 245 60 q 254 60 266 66 q 277 72 289 83 q 300 94 311 110 q 321 126 327 146 l 327 146 l 491 146 l 465 39 q 445 26 419 17 q 393 8 364 3 q 335 -3 305 -5 q 275 -8 248 -8 l 248 -8 q 198 -8 155 1 q 112 10 80 32 q 48 54 30 91 q 11 127 11 181 l 11 181 q 11 230 27 277 q 42 324 79 361 q 115 397 177 419 q 238 441 330 441 l 330 441 q 430 441 481 410 q 531 379 531 313 l 531 313 q 531 286 523 255 q 515 223 499 201 l 499 201 m 351 320 l 351 320 q 351 351 341 362 q 331 373 317 373 l 317 373 q 301 373 288 363 q 274 352 263 335 q 252 317 243 295 q 234 272 228 247 l 228 247 l 342 247 q 344 259 346 272 l 346 272 q 348 283 350 296 q 351 309 351 320 m 315 489 l 130 635 l 303 635 l 408 489 l 315 489"},"₈":{"x_min":-19,"x_max":230,"ha":277,"o":"m 90 -8 l 90 -8 q 36 -8 9 11 q -19 29 -19 64 l -19 64 q -19 87 -6 106 q 7 124 38 135 l 38 135 q 25 139 15 151 q 5 162 5 181 l 5 181 q 5 200 16 214 q 26 228 44 238 q 61 247 84 252 q 106 256 130 256 l 130 256 q 160 256 180 250 q 199 244 211 234 q 222 224 226 213 q 230 201 230 190 l 230 190 q 230 175 225 165 q 219 154 212 148 q 204 141 196 137 q 187 133 182 132 l 182 132 q 201 127 213 112 q 225 97 225 75 l 225 75 q 225 40 189 16 q 153 -8 90 -8 m 111 155 l 111 155 q 128 155 135 168 q 142 180 142 191 l 142 191 q 142 201 140 210 q 137 218 126 218 l 126 218 q 109 218 102 206 q 94 194 94 182 l 94 182 q 94 173 97 164 q 100 155 111 155 m 95 30 l 95 30 q 113 30 120 46 q 126 62 126 77 l 126 77 q 126 90 124 98 q 121 106 110 106 l 110 106 q 93 106 86 91 q 78 76 78 62 l 78 62 q 78 50 82 40 q 85 30 95 30"},"⁸":{"x_min":61,"x_max":310,"ha":276,"o":"m 170 380 l 170 380 q 61 380 61 453 l 61 453 q 61 476 74 494 q 87 512 118 523 l 118 523 q 105 527 95 539 q 85 550 85 569 l 85 569 q 85 588 96 602 q 106 616 124 626 q 141 635 164 640 q 186 644 210 644 l 210 644 q 240 644 260 638 q 279 632 291 622 q 302 612 306 601 q 310 589 310 579 l 310 579 q 310 564 305 554 q 299 543 292 536 q 284 529 276 525 q 267 521 262 520 l 262 520 q 281 515 293 500 q 305 485 305 463 l 305 463 q 305 428 269 404 q 233 380 170 380 m 191 543 l 191 543 q 208 543 215 556 q 222 568 222 580 l 222 580 q 222 589 220 598 q 217 606 206 606 l 206 606 q 189 606 182 594 q 174 582 174 570 l 174 570 q 174 562 177 553 q 180 543 191 543 m 175 418 l 175 418 q 193 418 200 434 q 206 450 206 465 l 206 465 q 206 478 204 487 q 201 495 190 495 l 190 495 q 173 495 166 480 q 158 464 158 450 l 158 450 q 158 438 162 428 q 165 418 175 418"},"…":{"x_min":0,"x_max":839,"ha":910,"o":"m 203 88 l 203 88 q 203 65 194 47 q 184 29 169 17 q 153 5 133 -1 q 113 -8 91 -8 l 91 -8 q 53 -8 27 13 q 0 33 0 77 l 0 77 q 0 100 9 118 q 18 136 33 148 q 48 160 68 167 q 87 173 108 173 l 108 173 q 149 173 176 153 q 203 132 203 88 m 521 88 l 521 88 q 521 65 512 47 q 502 29 487 17 q 471 5 451 -1 q 431 -8 409 -8 l 409 -8 q 371 -8 345 13 q 318 33 318 77 l 318 77 q 318 100 327 118 q 336 136 351 148 q 366 160 386 167 q 405 173 426 173 l 426 173 q 467 173 494 153 q 521 132 521 88 m 839 88 l 839 88 q 839 65 830 47 q 820 29 805 17 q 789 5 769 -1 q 749 -8 728 -8 l 728 -8 q 690 -8 663 13 q 636 33 636 77 l 636 77 q 636 100 645 118 q 654 136 669 148 q 684 160 704 167 q 723 173 744 173 l 744 173 q 785 173 812 153 q 839 132 839 88"},"ē":{"x_min":11,"x_max":552,"ha":547,"o":"m 499 201 l 218 201 q 214 179 213 159 q 211 139 211 123 l 211 123 q 211 114 212 103 q 213 92 217 83 q 220 73 227 67 q 233 60 245 60 l 245 60 q 254 60 266 66 q 277 72 289 83 q 300 94 311 110 q 321 126 327 146 l 327 146 l 491 146 l 465 39 q 445 26 419 17 q 393 8 364 3 q 335 -3 305 -5 q 275 -8 248 -8 l 248 -8 q 198 -8 155 1 q 112 10 80 32 q 48 54 30 91 q 11 127 11 181 l 11 181 q 11 230 27 277 q 42 324 79 361 q 115 397 177 419 q 238 441 330 441 l 330 441 q 430 441 481 410 q 531 379 531 313 l 531 313 q 531 286 523 255 q 515 223 499 201 l 499 201 m 351 320 l 351 320 q 351 351 341 362 q 331 373 317 373 l 317 373 q 301 373 288 363 q 274 352 263 335 q 252 317 243 295 q 234 272 228 247 l 228 247 l 342 247 q 344 259 346 272 l 346 272 q 348 283 350 296 q 351 309 351 320 m 178 526 l 197 603 l 552 603 l 534 526 l 178 526"},"—":{"x_min":29,"x_max":824,"ha":874,"o":"m 29 165 l 50 256 l 824 256 l 804 165 l 29 165"},"–":{"x_min":29,"x_max":550,"ha":600,"o":"m 29 165 l 50 256 l 550 256 l 530 165 l 29 165"},"ŋ":{"x_min":-10,"x_max":558,"ha":586,"o":"m 262 366 l 268 366 q 289 386 315 403 l 315 403 q 338 417 369 429 q 399 441 437 441 l 437 441 q 491 441 525 415 q 558 388 558 342 l 558 342 q 558 329 555 311 q 552 292 548 272 q 544 252 540 232 q 535 211 532 195 l 532 195 l 499 37 q 484 -33 453 -73 q 422 -114 380 -135 q 338 -156 290 -162 q 241 -168 192 -168 l 192 -168 l 203 -99 q 218 -99 231 -96 q 243 -93 253 -83 q 263 -73 272 -53 q 280 -34 287 0 l 287 0 l 342 261 q 344 274 347 288 q 349 301 350 312 l 350 312 q 350 327 343 337 q 335 346 320 346 l 320 346 q 302 346 286 333 q 269 320 260 311 l 260 311 l 194 0 l -10 0 l 81 430 l 244 430 l 262 366"},"ę":{"x_min":11,"x_max":531,"ha":547,"o":"m 499 201 l 218 201 q 214 179 213 159 q 211 139 211 124 l 211 124 q 211 115 212 104 q 213 93 216 83 q 219 73 226 67 q 232 60 243 60 l 243 60 q 253 60 266 67 q 278 73 290 84 q 302 95 312 111 q 321 127 327 146 l 327 146 l 491 146 l 465 39 q 457 34 440 27 q 423 19 409 14 l 409 14 q 394 8 376 -3 q 358 -14 343 -29 q 328 -44 318 -62 q 307 -81 307 -101 l 307 -101 q 307 -120 316 -129 q 325 -138 338 -138 l 338 -138 q 347 -138 360 -132 q 372 -127 390 -112 l 390 -112 l 413 -154 q 383 -179 343 -191 q 303 -204 265 -204 l 265 -204 q 179 -204 179 -131 l 179 -131 q 179 -107 187 -88 q 195 -69 209 -54 q 222 -39 239 -27 q 256 -16 274 -7 l 274 -7 q 267 -8 261 -8 q 254 -8 248 -8 l 248 -8 q 197 -8 154 1 q 111 10 79 33 q 47 55 29 92 q 11 129 11 185 l 11 185 q 11 232 27 278 q 42 324 79 360 q 115 396 176 419 q 237 441 328 441 l 328 441 q 428 441 480 411 q 531 380 531 313 l 531 313 q 531 286 523 255 q 515 223 499 201 l 499 201 m 351 320 l 351 320 q 351 351 341 362 q 331 373 317 373 l 317 373 q 301 373 288 363 q 274 352 263 335 q 252 317 243 295 q 234 272 228 247 l 228 247 l 342 247 q 344 259 346 272 l 346 272 q 348 283 350 296 q 351 309 351 320"},"=":{"x_min":27,"x_max":395,"ha":413,"o":"m 27 162 l 44 237 l 359 237 l 343 162 l 27 162 m 63 330 l 80 405 l 395 405 l 380 330 l 63 330"},"ð":{"x_min":12,"x_max":672,"ha":618,"o":"m 289 468 l 275 543 l 401 557 q 391 588 375 609 q 359 629 336 644 l 336 644 l 407 672 q 449 658 483 633 q 516 608 541 574 l 541 574 l 662 588 l 672 513 l 580 502 q 606 433 606 358 l 606 358 q 606 284 582 218 q 557 152 510 102 q 462 51 394 22 q 325 -8 237 -8 l 237 -8 q 175 -8 133 6 q 90 20 63 45 q 36 70 24 103 q 12 135 12 173 l 12 173 q 12 195 18 236 q 24 276 46 317 q 68 357 111 387 q 154 417 227 417 l 227 417 q 244 417 268 414 q 292 411 315 403 q 337 395 356 380 q 374 365 381 340 l 381 340 l 392 340 q 406 369 410 398 q 414 427 414 457 l 414 457 q 414 464 414 470 q 414 476 413 482 l 413 482 l 289 468 m 248 60 l 248 60 q 272 60 289 78 q 306 96 317 124 q 328 151 333 184 q 338 217 338 246 l 338 246 q 338 271 332 284 q 326 296 306 296 l 306 296 q 279 296 261 277 q 242 258 231 231 q 219 204 214 174 q 208 143 208 121 l 208 121 q 208 92 217 76 q 226 60 248 60"},"ẽ":{"x_min":11,"x_max":553,"ha":547,"o":"m 499 201 l 218 201 q 214 179 213 159 q 211 139 211 123 l 211 123 q 211 114 212 103 q 213 92 217 83 q 220 73 227 67 q 233 60 245 60 l 245 60 q 254 60 266 66 q 277 72 289 83 q 300 94 311 110 q 321 126 327 146 l 327 146 l 491 146 l 465 39 q 445 26 419 17 q 393 8 364 3 q 335 -3 305 -5 q 275 -8 248 -8 l 248 -8 q 198 -8 155 1 q 112 10 80 32 q 48 54 30 91 q 11 127 11 181 l 11 181 q 11 230 27 277 q 42 324 79 361 q 115 397 177 419 q 238 441 330 441 l 330 441 q 430 441 481 410 q 531 379 531 313 l 531 313 q 531 286 523 255 q 515 223 499 201 l 499 201 m 351 320 l 351 320 q 351 351 341 362 q 331 373 317 373 l 317 373 q 301 373 288 363 q 274 352 263 335 q 252 317 243 295 q 234 272 228 247 l 228 247 l 342 247 q 344 259 346 272 l 346 272 q 348 283 350 296 q 351 309 351 320 m 518 640 l 553 615 q 523 560 493 533 q 463 506 418 506 l 418 506 q 400 506 376 512 q 351 518 326 525 q 300 531 278 537 q 255 543 241 543 l 241 543 q 223 543 204 531 q 185 519 176 508 l 176 508 l 143 537 q 174 588 206 614 q 237 640 280 640 l 280 640 q 296 640 320 635 q 343 630 368 624 q 392 617 415 612 q 438 607 453 607 l 453 607 q 467 607 487 617 q 506 626 518 640 l 518 640"},"!":{"x_min":21,"x_max":336,"ha":294,"o":"m 66 201 l 132 672 l 336 672 l 208 201 l 66 201 m 21 65 l 21 65 q 21 86 30 103 q 39 119 54 130 q 68 141 87 147 q 105 152 125 152 l 125 152 q 162 152 188 134 q 213 116 213 79 l 213 79 q 213 58 205 42 q 196 25 182 14 q 167 3 149 -2 q 130 -8 109 -8 l 109 -8 q 72 -8 47 10 q 21 28 21 65"},"¡":{"x_min":-43,"x_max":272,"ha":296,"o":"m 227 303 l 161 -168 l -43 -168 l 85 303 l 227 303 m 272 439 l 272 439 q 272 418 263 402 q 254 385 240 374 q 225 363 207 358 q 188 352 168 352 l 168 352 q 131 352 106 370 q 80 388 80 425 l 80 425 q 80 446 89 463 q 97 479 112 490 q 126 501 145 507 q 163 512 184 512 l 184 512 q 221 512 247 494 q 272 476 272 439"},"f":{"x_min":32,"x_max":542,"ha":404,"o":"m 32 363 l 47 430 l 124 430 l 133 471 q 146 531 171 573 q 196 614 231 640 q 265 666 309 678 q 353 689 403 689 l 403 689 q 434 689 469 685 q 504 681 542 672 l 542 672 l 526 592 q 504 595 479 597 q 454 598 439 598 l 439 598 q 419 598 405 595 q 390 592 379 584 q 368 575 360 560 q 352 545 347 520 l 347 520 l 328 430 l 433 430 l 420 363 l 314 363 l 237 0 l 33 0 l 110 363 l 32 363"},"ﬀ":{"x_min":32,"x_max":873,"ha":734,"o":"m 32 363 l 46 430 l 123 430 l 127 447 q 140 507 165 549 q 189 590 224 616 q 259 642 305 654 q 350 665 405 665 l 405 665 q 447 665 488 659 q 529 653 564 642 l 564 642 q 599 667 642 678 q 684 689 733 689 l 733 689 q 764 689 799 685 q 834 681 873 672 l 873 672 l 856 592 q 834 595 810 597 q 785 598 770 598 l 770 598 q 750 598 735 595 q 720 592 709 584 q 698 575 690 560 q 682 545 677 520 l 677 520 l 658 430 l 763 430 l 750 363 l 644 363 l 567 0 l 363 0 l 440 363 l 313 363 l 236 0 l 33 0 l 109 363 l 32 363 m 341 496 l 327 430 l 454 430 l 463 471 q 469 498 478 522 q 486 545 497 565 l 497 565 q 462 574 428 574 l 428 574 q 391 574 371 559 q 351 543 341 496 l 341 496"},"ﬃ":{"x_min":32,"x_max":989,"ha":996,"o":"m 32 363 l 46 430 l 123 430 l 127 447 q 140 507 165 549 q 189 590 224 616 q 259 642 305 654 q 350 665 405 665 l 405 665 q 450 665 494 658 q 537 650 573 639 l 573 639 q 614 665 663 677 q 712 689 768 689 l 768 689 q 817 689 861 680 q 905 671 957 651 l 957 651 l 925 552 q 893 566 862 575 q 830 583 794 583 l 794 583 q 774 583 756 580 q 737 577 721 569 q 705 560 693 545 q 681 529 675 504 l 675 504 l 659 430 l 989 430 l 897 0 l 693 0 l 770 363 l 645 363 l 567 0 l 363 0 l 440 363 l 313 363 l 236 0 l 33 0 l 109 363 l 32 363 m 341 496 l 327 430 l 454 430 l 463 471 q 475 525 500 565 l 500 565 q 482 570 464 572 q 445 574 428 574 l 428 574 q 391 574 371 559 q 351 543 341 496 l 341 496"},"ﬄ":{"x_min":32,"x_max":1042,"ha":998,"o":"m 32 363 l 46 430 l 123 430 l 127 447 q 140 507 165 549 q 189 590 224 616 q 259 642 305 654 q 350 665 405 665 l 405 665 q 448 665 490 659 q 532 652 567 641 l 567 641 q 604 666 650 678 q 696 689 751 689 l 751 689 q 783 689 822 685 q 860 681 899 672 l 899 672 l 1042 672 l 898 0 l 694 0 l 818 586 q 803 592 790 595 q 777 598 760 598 l 760 598 q 745 598 732 595 q 719 592 709 584 q 698 575 690 560 q 682 545 677 520 l 677 520 l 658 430 l 742 430 l 729 363 l 644 363 l 567 0 l 363 0 l 440 363 l 313 363 l 236 0 l 33 0 l 109 363 l 32 363 m 341 496 l 327 430 l 454 430 l 463 471 q 469 498 478 522 q 486 545 498 565 l 498 565 q 463 574 428 574 l 428 574 q 391 574 371 559 q 351 543 341 496 l 341 496"},"ﬁ":{"x_min":32,"x_max":658,"ha":665,"o":"m 32 363 l 46 430 l 123 430 l 132 471 q 145 531 174 573 q 202 614 243 640 q 283 666 333 678 q 382 689 437 689 l 437 689 q 486 689 531 680 q 575 671 626 651 l 626 651 l 594 552 q 562 566 531 575 q 499 583 463 583 l 463 583 q 444 583 425 580 q 406 577 390 569 q 374 560 362 545 q 350 529 344 504 l 344 504 l 328 430 l 658 430 l 566 0 l 362 0 l 439 363 l 314 363 l 236 0 l 33 0 l 109 363 l 32 363"},"ﬂ":{"x_min":32,"x_max":711,"ha":667,"o":"m 32 363 l 46 430 l 123 430 l 132 471 q 157 586 232 638 q 306 689 420 689 l 420 689 q 452 689 491 685 q 530 681 568 672 l 568 672 l 711 672 l 567 0 l 363 0 l 487 586 q 472 592 460 595 q 447 598 430 598 l 430 598 q 415 598 402 595 q 389 592 379 584 q 368 575 360 560 q 352 545 347 520 l 347 520 l 328 430 l 412 430 l 398 363 l 313 363 l 236 0 l 33 0 l 109 363 l 32 363"},"⅝":{"x_min":65,"x_max":650,"ha":712,"o":"m 216 0 l 106 0 l 518 635 l 617 635 l 216 0 m 510 -8 l 510 -8 q 456 -8 429 11 q 401 29 401 64 l 401 64 q 401 87 414 106 q 427 124 458 135 l 458 135 q 445 139 435 151 q 425 162 425 181 l 425 181 q 425 200 436 214 q 446 228 464 238 q 481 247 504 252 q 526 256 550 256 l 550 256 q 580 256 600 250 q 619 244 631 234 q 642 224 646 213 q 650 201 650 190 l 650 190 q 650 175 645 165 q 639 154 632 148 q 624 141 616 137 q 607 133 602 132 l 602 132 q 621 127 633 112 q 645 97 645 75 l 645 75 q 645 40 609 16 q 573 -8 510 -8 m 531 155 l 531 155 q 548 155 555 168 q 562 180 562 191 l 562 191 q 562 201 560 210 q 557 218 546 218 l 546 218 q 529 218 522 206 q 514 194 514 182 l 514 182 q 514 173 517 164 q 520 155 531 155 m 515 30 l 515 30 q 533 30 540 46 q 546 62 546 77 l 546 77 q 546 90 544 98 q 541 106 530 106 l 530 106 q 513 106 506 91 q 498 76 498 62 l 498 62 q 498 50 502 40 q 505 30 515 30 m 312 635 l 301 587 l 175 587 l 167 546 q 176 553 187 558 q 198 562 218 562 l 218 562 q 244 562 261 555 q 278 547 289 536 q 299 524 304 510 q 308 496 308 482 l 308 482 q 308 437 270 409 q 231 380 163 380 l 163 380 q 137 380 114 387 q 90 393 65 414 l 65 414 l 75 468 l 158 468 q 157 464 157 455 l 157 455 q 157 435 160 427 q 162 418 173 418 l 173 418 q 183 418 190 425 q 196 431 201 441 q 205 451 207 463 q 209 474 209 483 l 209 483 q 209 497 205 508 q 200 519 185 519 l 185 519 q 177 519 172 515 q 166 511 158 502 l 158 502 l 90 502 l 119 635 l 312 635"},"₅":{"x_min":-28,"x_max":219,"ha":262,"o":"m 219 247 l 208 199 l 82 199 l 74 158 q 83 165 94 170 q 105 174 125 174 l 125 174 q 151 174 168 167 q 185 159 196 148 q 206 136 211 122 q 215 108 215 94 l 215 94 q 215 49 177 21 q 138 -8 70 -8 l 70 -8 q 44 -8 21 -1 q -3 5 -28 26 l -28 26 l -18 80 l 65 80 q 64 76 64 67 l 64 67 q 64 47 67 39 q 69 30 80 30 l 80 30 q 90 30 97 37 q 103 43 108 53 q 112 63 114 75 q 116 86 116 95 l 116 95 q 116 109 112 120 q 107 131 92 131 l 92 131 q 84 131 79 127 q 73 123 65 114 l 65 114 l -3 114 l 26 247 l 219 247"},"⁵":{"x_min":53,"x_max":300,"ha":262,"o":"m 300 635 l 289 587 l 163 587 l 155 546 q 164 553 175 558 q 186 562 206 562 l 206 562 q 232 562 249 555 q 266 547 277 536 q 287 524 292 510 q 296 496 296 482 l 296 482 q 296 437 258 409 q 219 380 151 380 l 151 380 q 125 380 102 387 q 78 393 53 414 l 53 414 l 63 468 l 146 468 q 145 464 145 455 l 145 455 q 145 435 148 427 q 150 418 161 418 l 161 418 q 171 418 178 425 q 184 431 189 441 q 193 451 195 463 q 197 474 197 483 l 197 483 q 197 497 193 508 q 188 519 173 519 l 173 519 q 165 519 160 515 q 154 511 146 502 l 146 502 l 78 502 l 107 635 l 300 635"},"ƒ":{"x_min":-98,"x_max":580,"ha":507,"o":"m 70 363 l 85 430 l 161 430 l 171 471 q 185 531 210 573 q 235 614 270 640 q 304 666 348 678 q 391 689 442 689 l 442 689 q 472 689 507 685 q 542 681 580 672 l 580 672 l 564 592 q 542 595 517 597 q 492 598 476 598 l 476 598 q 457 598 443 595 q 428 592 417 584 q 406 575 399 560 q 391 545 385 520 l 385 520 l 365 430 l 471 430 l 458 363 l 353 363 l 283 37 q 268 -33 230 -73 q 191 -114 139 -135 q 86 -156 25 -162 q -37 -168 -98 -168 l -98 -168 l -85 -99 q -51 -99 -24 -96 q 2 -93 21 -83 q 39 -73 52 -53 q 64 -34 71 0 l 71 0 l 148 363 l 70 363"},"₄":{"x_min":-30,"x_max":224,"ha":270,"o":"m 178 64 l 164 0 l 61 0 l 75 64 l -30 64 l -16 124 l 100 255 l 219 255 l 188 110 l 224 110 l 215 64 l 178 64 m 26 110 l 85 110 l 104 201 l 26 110"},"⁴":{"x_min":51,"x_max":305,"ha":270,"o":"m 259 444 l 245 380 l 142 380 l 156 444 l 51 444 l 65 504 l 181 635 l 300 635 l 269 490 l 305 490 l 296 444 l 259 444 m 107 490 l 166 490 l 185 581 l 107 490"},"⁄":{"x_min":-193,"x_max":318,"ha":100,"o":"m -83 0 l -193 0 l 219 635 l 318 635 l -83 0"},"g":{"x_min":9,"x_max":570,"ha":578,"o":"m 363 365 l 408 430 l 570 430 l 488 41 q 479 -4 458 -42 q 437 -80 400 -108 q 362 -136 306 -152 q 249 -168 168 -168 l 168 -168 q 153 -168 132 -167 q 111 -167 89 -166 q 67 -166 47 -165 q 27 -164 15 -163 l 15 -163 l 34 -91 q 66 -96 100 -96 q 133 -97 157 -97 l 157 -97 q 187 -97 208 -91 q 228 -86 242 -74 q 255 -62 264 -42 q 272 -22 277 7 l 277 7 l 289 72 l 282 72 q 276 63 265 51 q 253 38 235 27 q 217 15 193 8 q 168 0 137 0 l 137 0 q 102 0 78 11 q 53 21 38 40 q 23 58 16 84 q 9 109 9 139 l 9 139 q 9 152 11 179 q 13 206 21 240 q 28 274 43 310 q 57 345 82 374 q 106 403 143 422 q 179 441 231 441 l 231 441 q 247 441 266 438 q 285 435 303 427 q 321 419 335 404 q 349 389 357 365 l 357 365 l 363 365 m 296 343 l 296 343 q 272 343 256 318 q 240 292 230 258 q 220 224 216 191 q 211 157 211 141 l 211 141 q 211 121 218 108 q 224 94 241 94 l 241 94 q 251 94 261 99 q 270 104 279 111 q 287 117 294 124 q 300 131 303 135 l 303 135 l 340 310 q 332 321 322 332 q 311 343 296 343"},"ğ":{"x_min":9,"x_max":570,"ha":578,"o":"m 363 365 l 408 430 l 570 430 l 488 41 q 479 -4 458 -42 q 437 -80 400 -108 q 362 -136 306 -152 q 249 -168 168 -168 l 168 -168 q 153 -168 132 -167 q 111 -167 89 -166 q 67 -166 47 -165 q 27 -164 15 -163 l 15 -163 l 34 -91 q 66 -96 100 -96 q 133 -97 157 -97 l 157 -97 q 187 -97 208 -91 q 228 -86 242 -74 q 255 -62 264 -42 q 272 -22 277 7 l 277 7 l 289 72 l 282 72 q 276 63 265 51 q 253 38 235 27 q 217 15 193 8 q 168 0 137 0 l 137 0 q 102 0 78 11 q 53 21 38 40 q 23 58 16 84 q 9 109 9 139 l 9 139 q 9 152 11 179 q 13 206 21 240 q 28 274 43 310 q 57 345 82 374 q 106 403 143 422 q 179 441 231 441 l 231 441 q 247 441 266 438 q 285 435 303 427 q 321 419 335 404 q 349 389 357 365 l 357 365 l 363 365 m 296 343 l 296 343 q 272 343 256 318 q 240 292 230 258 q 220 224 216 191 q 211 157 211 141 l 211 141 q 211 121 218 108 q 224 94 241 94 l 241 94 q 251 94 261 99 q 270 104 279 111 q 287 117 294 124 q 300 131 303 135 l 303 135 l 340 310 q 332 321 322 332 q 311 343 296 343 m 366 489 l 366 489 q 307 489 272 519 q 237 548 227 614 l 227 614 l 278 635 q 284 615 295 603 q 306 590 320 583 q 333 576 348 574 q 362 571 374 571 l 374 571 q 416 571 455 593 q 493 615 519 650 l 519 650 l 557 616 q 519 547 471 518 q 423 489 366 489"},"ĝ":{"x_min":9,"x_max":570,"ha":578,"o":"m 363 365 l 408 430 l 570 430 l 488 41 q 479 -4 458 -42 q 437 -80 400 -108 q 362 -136 306 -152 q 249 -168 168 -168 l 168 -168 q 153 -168 132 -167 q 111 -167 89 -166 q 67 -166 47 -165 q 27 -164 15 -163 l 15 -163 l 34 -91 q 66 -96 100 -96 q 133 -97 157 -97 l 157 -97 q 187 -97 208 -91 q 228 -86 242 -74 q 255 -62 264 -42 q 272 -22 277 7 l 277 7 l 289 72 l 282 72 q 276 63 265 51 q 253 38 235 27 q 217 15 193 8 q 168 0 137 0 l 137 0 q 102 0 78 11 q 53 21 38 40 q 23 58 16 84 q 9 109 9 139 l 9 139 q 9 152 11 179 q 13 206 21 240 q 28 274 43 310 q 57 345 82 374 q 106 403 143 422 q 179 441 231 441 l 231 441 q 247 441 266 438 q 285 435 303 427 q 321 419 335 404 q 349 389 357 365 l 357 365 l 363 365 m 296 343 l 296 343 q 272 343 256 318 q 240 292 230 258 q 220 224 216 191 q 211 157 211 141 l 211 141 q 211 121 218 108 q 224 94 241 94 l 241 94 q 251 94 261 99 q 270 104 279 111 q 287 117 294 124 q 300 131 303 135 l 303 135 l 340 310 q 332 321 322 332 q 311 343 296 343 m 271 489 l 185 489 l 331 635 l 480 635 l 563 489 l 487 489 l 404 582 l 271 489"},"ģ":{"x_min":9,"x_max":570,"ha":578,"o":"m 363 365 l 408 430 l 570 430 l 488 41 q 479 -4 458 -42 q 437 -80 400 -108 q 362 -136 306 -152 q 249 -168 168 -168 l 168 -168 q 153 -168 132 -167 q 111 -167 89 -166 q 67 -166 47 -165 q 27 -164 15 -163 l 15 -163 l 34 -91 q 66 -96 100 -96 q 133 -97 157 -97 l 157 -97 q 187 -97 208 -91 q 228 -86 242 -74 q 255 -62 264 -42 q 272 -22 277 7 l 277 7 l 289 72 l 282 72 q 276 63 265 51 q 253 38 235 27 q 217 15 193 8 q 168 0 137 0 l 137 0 q 102 0 78 11 q 53 21 38 40 q 23 58 16 84 q 9 109 9 139 l 9 139 q 9 152 11 179 q 13 206 21 240 q 28 274 43 310 q 57 345 82 374 q 106 403 143 422 q 179 441 231 441 l 231 441 q 247 441 266 438 q 285 435 303 427 q 321 419 335 404 q 349 389 357 365 l 357 365 l 363 365 m 296 343 l 296 343 q 272 343 256 318 q 240 292 230 258 q 220 224 216 191 q 211 157 211 141 l 211 141 q 211 121 218 108 q 224 94 241 94 l 241 94 q 251 94 261 99 q 270 104 279 111 q 287 117 294 124 q 300 131 303 135 l 303 135 l 340 310 q 332 321 322 332 q 311 343 296 343 m 285 543 l 285 543 q 285 569 298 593 q 310 617 330 638 q 350 658 374 674 q 398 690 422 700 l 422 700 l 443 670 q 418 651 405 635 q 391 619 391 603 l 391 603 q 391 578 431 551 l 431 551 q 431 516 407 497 q 383 478 351 478 l 351 478 q 322 478 304 494 q 285 510 285 543"},"ġ":{"x_min":9,"x_max":570,"ha":578,"o":"m 363 365 l 408 430 l 570 430 l 488 41 q 479 -4 458 -42 q 437 -80 400 -108 q 362 -136 306 -152 q 249 -168 168 -168 l 168 -168 q 153 -168 132 -167 q 111 -167 89 -166 q 67 -166 47 -165 q 27 -164 15 -163 l 15 -163 l 34 -91 q 66 -96 100 -96 q 133 -97 157 -97 l 157 -97 q 187 -97 208 -91 q 228 -86 242 -74 q 255 -62 264 -42 q 272 -22 277 7 l 277 7 l 289 72 l 282 72 q 276 63 265 51 q 253 38 235 27 q 217 15 193 8 q 168 0 137 0 l 137 0 q 102 0 78 11 q 53 21 38 40 q 23 58 16 84 q 9 109 9 139 l 9 139 q 9 152 11 179 q 13 206 21 240 q 28 274 43 310 q 57 345 82 374 q 106 403 143 422 q 179 441 231 441 l 231 441 q 247 441 266 438 q 285 435 303 427 q 321 419 335 404 q 349 389 357 365 l 357 365 l 363 365 m 296 343 l 296 343 q 272 343 256 318 q 240 292 230 258 q 220 224 216 191 q 211 157 211 141 l 211 141 q 211 121 218 108 q 224 94 241 94 l 241 94 q 251 94 261 99 q 270 104 279 111 q 287 117 294 124 q 300 131 303 135 l 303 135 l 340 310 q 332 321 322 332 q 311 343 296 343 m 492 561 l 492 561 q 492 538 483 521 q 473 504 458 492 q 442 480 422 474 q 402 468 381 468 l 381 468 q 341 468 314 487 q 287 506 287 547 l 287 547 q 287 569 296 587 q 305 604 321 616 q 336 627 357 633 q 377 639 399 639 l 399 639 q 438 639 465 620 q 492 601 492 561"},"ß":{"x_min":-10,"x_max":639,"ha":660,"o":"m 626 152 l 626 152 q 626 112 608 82 q 590 52 560 32 q 529 12 489 2 q 448 -8 402 -8 l 402 -8 q 369 -8 346 -3 q 323 1 307 9 q 290 16 278 25 q 265 34 254 43 l 254 43 l 298 97 q 309 84 330 71 q 350 58 376 58 l 376 58 q 401 58 422 72 q 442 86 442 109 l 442 109 q 442 124 434 136 q 425 147 412 159 q 398 170 382 181 q 366 192 352 206 l 352 206 q 323 234 314 261 q 304 288 304 314 l 304 314 q 304 347 315 369 q 325 390 341 406 q 357 422 375 435 q 393 447 409 461 q 425 475 436 493 q 446 510 446 537 l 446 537 q 446 548 444 559 q 441 570 434 579 q 427 587 415 593 q 402 598 383 598 l 383 598 q 349 598 331 580 q 312 561 304 520 l 304 520 l 193 0 l -10 0 l 89 471 q 102 532 128 573 q 153 614 190 639 q 227 664 275 674 q 322 684 379 684 l 379 684 q 422 684 469 678 q 515 672 553 658 q 590 643 615 620 q 639 596 639 560 l 639 560 q 639 522 614 496 q 589 469 559 449 q 528 428 503 410 q 478 391 478 369 l 478 369 q 478 347 501 329 q 524 310 552 287 q 580 264 603 233 q 626 201 626 152"},"`":{"x_min":26,"x_max":304,"ha":304,"o":"m 211 489 l 26 635 l 199 635 l 304 489 l 211 489"},">":{"x_min":21,"x_max":385,"ha":396,"o":"m 257 316 l 98 523 l 216 523 l 385 316 l 139 109 l 21 109 l 257 316"},"«":{"x_min":11,"x_max":593,"ha":590,"o":"m 152 215 l 249 0 l 129 0 l 11 215 l 207 430 l 327 430 l 152 215 m 418 215 l 515 0 l 395 0 l 277 215 l 473 430 l 593 430 l 418 215"},"»":{"x_min":-22,"x_max":559,"ha":588,"o":"m 153 215 l 56 430 l 176 430 l 294 215 l 98 0 l -22 0 l 153 215 m 418 215 l 321 430 l 441 430 l 559 215 l 363 0 l 243 0 l 418 215"},"‹":{"x_min":11,"x_max":327,"ha":324,"o":"m 152 215 l 249 0 l 129 0 l 11 215 l 207 430 l 327 430 l 152 215"},"›":{"x_min":-22,"x_max":294,"ha":322,"o":"m 153 215 l 55 430 l 176 430 l 294 215 l 97 0 l -22 0 l 153 215"},"h":{"x_min":-10,"x_max":558,"ha":586,"o":"m 337 672 l 272 366 l 279 366 q 298 385 323 401 l 323 401 q 344 415 373 426 q 402 437 438 437 l 438 437 q 490 437 524 411 q 558 384 558 338 l 558 338 q 558 324 555 307 q 552 289 548 270 q 544 250 540 231 q 535 211 532 195 l 532 195 l 490 0 l 287 0 l 342 261 q 344 274 347 288 q 350 301 350 312 l 350 312 q 350 327 343 337 q 335 346 320 346 l 320 346 q 302 346 286 333 q 269 320 260 310 l 260 310 l 194 0 l -10 0 l 132 672 l 337 672"},"ħ":{"x_min":-10,"x_max":558,"ha":586,"o":"m 337 672 l 316 574 l 389 574 l 371 498 l 300 498 l 272 366 l 279 366 q 298 385 323 401 l 323 401 q 344 415 373 426 q 402 437 438 437 l 438 437 q 490 437 524 411 q 558 384 558 338 l 558 338 q 558 324 555 307 q 552 289 548 270 q 544 250 540 231 q 535 211 532 195 l 532 195 l 490 0 l 287 0 l 342 261 q 344 274 347 288 q 350 301 350 312 l 350 312 q 350 327 343 337 q 335 346 320 346 l 320 346 q 302 346 286 333 q 269 320 260 310 l 260 310 l 194 0 l -10 0 l 95 498 l 1 498 l 20 574 l 111 574 l 132 672 l 337 672"},"ĥ":{"x_min":-10,"x_max":691,"ha":586,"o":"m 337 672 l 272 366 l 279 366 q 298 385 323 401 l 323 401 q 344 415 373 426 q 402 437 438 437 l 438 437 q 490 437 524 411 q 558 384 558 338 l 558 338 q 558 324 555 307 q 552 289 548 270 q 544 250 540 231 q 535 211 532 195 l 532 195 l 490 0 l 287 0 l 342 261 q 344 274 347 288 q 350 301 350 312 l 350 312 q 350 327 343 337 q 335 346 320 346 l 320 346 q 302 346 286 333 q 269 320 260 310 l 260 310 l 194 0 l -10 0 l 132 672 l 337 672 m 399 489 l 313 489 l 459 635 l 608 635 l 691 489 l 615 489 l 532 582 l 399 489"},"ḥ":{"x_min":-10,"x_max":558,"ha":586,"o":"m 337 672 l 272 366 l 279 366 q 298 385 323 401 l 323 401 q 344 415 373 426 q 402 437 438 437 l 438 437 q 490 437 524 411 q 558 384 558 338 l 558 338 q 558 324 555 307 q 552 289 548 270 q 544 250 540 231 q 535 211 532 195 l 532 195 l 490 0 l 287 0 l 342 261 q 344 274 347 288 q 350 301 350 312 l 350 312 q 350 327 343 337 q 335 346 320 346 l 320 346 q 302 346 286 333 q 269 320 260 310 l 260 310 l 194 0 l -10 0 l 132 672 l 337 672 m 298 -144 l 298 -144 q 298 -162 291 -176 q 283 -190 271 -199 q 258 -208 242 -213 q 225 -218 208 -218 l 208 -218 q 176 -218 154 -203 q 131 -188 131 -154 l 131 -154 q 131 -118 159 -99 q 186 -81 222 -81 l 222 -81 q 254 -81 276 -96 q 298 -111 298 -144"},"˝":{"x_min":37,"x_max":555,"ha":592,"o":"m 123 489 l 37 489 l 150 635 l 322 635 l 123 489 m 356 489 l 270 489 l 383 635 l 555 635 l 356 489"},"-":{"x_min":29,"x_max":365,"ha":415,"o":"m 29 165 l 50 256 l 365 256 l 345 165 l 29 165"},"i":{"x_min":-10,"x_max":312,"ha":293,"o":"m 286 430 l 193 0 l -10 0 l 81 430 l 286 430 m 312 561 l 312 561 q 312 538 303 521 q 293 504 278 492 q 262 480 242 474 q 222 468 201 468 l 201 468 q 161 468 134 487 q 107 506 107 547 l 107 547 q 107 569 116 587 q 125 604 141 616 q 156 627 177 633 q 197 639 219 639 l 219 639 q 258 639 285 620 q 312 601 312 561"},"í":{"x_min":-10,"x_max":394,"ha":293,"o":"m 286 430 l 193 0 l -10 0 l 81 430 l 286 430 m 215 489 l 129 489 l 222 635 l 394 635 l 215 489"},"ĭ":{"x_min":-10,"x_max":388,"ha":293,"o":"m 286 430 l 193 0 l -10 0 l 81 430 l 286 430 m 197 489 l 197 489 q 138 489 103 519 q 68 548 58 614 l 58 614 l 109 635 q 115 615 126 603 q 137 590 151 583 q 164 576 179 574 q 193 571 205 571 l 205 571 q 247 571 286 593 q 324 615 350 650 l 350 650 l 388 616 q 350 547 302 518 q 254 489 197 489"},"î":{"x_min":-10,"x_max":392,"ha":293,"o":"m 286 430 l 193 0 l -10 0 l 81 430 l 286 430 m 100 489 l 14 489 l 160 635 l 309 635 l 392 489 l 316 489 l 233 582 l 100 489"},"ï":{"x_min":-10,"x_max":392,"ha":293,"o":"m 286 430 l 193 0 l -10 0 l 81 430 l 286 430 m 109 631 l 109 631 q 145 631 162 611 q 179 590 179 561 l 179 561 q 179 529 159 504 q 138 478 98 478 l 98 478 q 61 478 44 499 q 27 519 27 548 l 27 548 q 27 580 48 606 q 69 631 109 631 m 321 631 l 321 631 q 358 631 375 611 q 392 590 392 561 l 392 561 q 392 529 371 504 q 350 478 310 478 l 310 478 q 273 478 256 499 q 239 519 239 548 l 239 548 q 239 580 260 606 q 281 631 321 631"},"ị":{"x_min":-20,"x_max":312,"ha":293,"o":"m 147 -144 l 147 -144 q 147 -162 140 -176 q 132 -190 120 -199 q 107 -208 91 -213 q 74 -218 57 -218 l 57 -218 q 25 -218 3 -203 q -20 -188 -20 -154 l -20 -154 q -20 -118 8 -99 q 35 -81 71 -81 l 71 -81 q 103 -81 125 -96 q 147 -111 147 -144 m 312 561 l 312 561 q 312 538 303 521 q 293 504 278 492 q 262 480 242 474 q 222 468 201 468 l 201 468 q 161 468 134 487 q 107 506 107 547 l 107 547 q 107 569 116 587 q 125 604 141 616 q 156 627 177 633 q 197 639 219 639 l 219 639 q 258 639 285 620 q 312 601 312 561 m 286 430 l 193 0 l -10 0 l 81 430 l 286 430"},"ì":{"x_min":-42,"x_max":286,"ha":293,"o":"m 286 430 l 193 0 l -10 0 l 81 430 l 286 430 m 143 489 l -42 635 l 131 635 l 236 489 l 143 489"},"ĳ":{"x_min":-10,"x_max":596,"ha":580,"o":"m 286 430 l 193 0 l -10 0 l 81 430 l 286 430 m 312 561 l 312 561 q 312 538 303 521 q 293 504 278 492 q 262 480 242 474 q 222 468 201 468 l 201 468 q 161 468 134 487 q 107 506 107 547 l 107 547 q 107 569 116 587 q 125 604 141 616 q 156 627 177 633 q 197 639 219 639 l 219 639 q 258 639 285 620 q 312 601 312 561 m 572 430 l 488 37 q 473 -33 442 -73 q 410 -114 368 -135 q 326 -156 278 -162 q 229 -168 180 -168 l 180 -168 l 192 -99 q 207 -99 220 -96 q 232 -93 242 -83 q 252 -73 261 -53 q 269 -34 276 0 l 276 0 l 367 430 l 572 430 m 596 561 l 596 561 q 596 538 587 521 q 577 504 562 492 q 546 480 526 474 q 506 468 485 468 l 485 468 q 445 468 418 487 q 391 506 391 547 l 391 547 q 391 569 400 587 q 409 604 425 616 q 440 627 461 633 q 481 639 503 639 l 503 639 q 542 639 569 620 q 596 601 596 561"},"ī":{"x_min":-10,"x_max":397,"ha":293,"o":"m 286 430 l 193 0 l -10 0 l 81 430 l 286 430 m 23 526 l 42 603 l 397 603 l 379 526 l 23 526"},"į":{"x_min":-63,"x_max":312,"ha":293,"o":"m 286 430 l 193 0 l 143 0 q 129 -9 116 -19 q 102 -30 91 -42 q 79 -55 72 -69 q 65 -84 65 -100 l 65 -100 q 65 -120 74 -129 q 83 -138 96 -138 l 96 -138 q 105 -138 118 -132 q 130 -127 148 -112 l 148 -112 l 171 -154 q 141 -179 101 -191 q 61 -204 23 -204 l 23 -204 q -63 -204 -63 -130 l -63 -130 q -63 -105 -53 -84 q -43 -64 -27 -48 q -11 -32 9 -20 q 28 -8 48 0 l 48 0 l -10 0 l 81 430 l 286 430 m 312 561 l 312 561 q 312 538 303 521 q 293 504 278 492 q 262 480 242 474 q 222 468 201 468 l 201 468 q 161 468 134 487 q 107 506 107 547 l 107 547 q 107 569 116 587 q 125 604 141 616 q 156 627 177 633 q 197 639 219 639 l 219 639 q 258 639 285 620 q 312 601 312 561"},"ĩ":{"x_min":-10,"x_max":428,"ha":293,"o":"m 286 430 l 193 0 l -10 0 l 81 430 l 286 430 m 393 640 l 428 615 q 398 560 368 533 q 338 506 293 506 l 293 506 q 275 506 251 512 q 226 518 201 525 q 175 531 153 537 q 130 543 116 543 l 116 543 q 98 543 79 531 q 60 519 51 508 l 51 508 l 18 537 q 49 588 81 614 q 112 640 155 640 l 155 640 q 171 640 195 635 q 218 630 243 624 q 267 617 290 612 q 313 607 328 607 l 328 607 q 342 607 362 617 q 381 626 393 640 l 393 640"},"j":{"x_min":-106,"x_max":310,"ha":294,"o":"m 286 430 l 202 37 q 187 -33 156 -73 q 124 -114 82 -135 q 40 -156 -8 -162 q -57 -168 -106 -168 l -106 -168 l -94 -99 q -79 -99 -66 -96 q -54 -93 -44 -83 q -34 -73 -25 -53 q -17 -34 -10 0 l -10 0 l 81 430 l 286 430 m 310 561 l 310 561 q 310 538 301 521 q 291 504 276 492 q 260 480 240 474 q 220 468 199 468 l 199 468 q 159 468 132 487 q 105 506 105 547 l 105 547 q 105 569 114 587 q 123 604 139 616 q 154 627 175 633 q 195 639 217 639 l 217 639 q 256 639 283 620 q 310 601 310 561"},"ĵ":{"x_min":-106,"x_max":388,"ha":294,"o":"m 286 430 l 202 37 q 187 -33 156 -73 q 124 -114 82 -135 q 40 -156 -8 -162 q -57 -168 -106 -168 l -106 -168 l -94 -99 q -79 -99 -66 -96 q -54 -93 -44 -83 q -34 -73 -25 -53 q -17 -34 -10 0 l -10 0 l 81 430 l 286 430 m 96 489 l 10 489 l 156 635 l 305 635 l 388 489 l 312 489 l 229 582 l 96 489"},"k":{"x_min":-10,"x_max":612,"ha":599,"o":"m 337 672 l 247 248 l 480 430 l 612 430 l 413 267 l 562 0 l 338 0 l 236 201 l 194 0 l -10 0 l 132 672 l 337 672"},"ķ":{"x_min":-10,"x_max":612,"ha":599,"o":"m 337 672 l 247 248 l 480 430 l 612 430 l 413 267 l 562 0 l 338 0 l 236 201 l 194 0 l -10 0 l 132 672 l 337 672 m 312 -127 l 312 -127 q 312 -153 300 -177 q 287 -201 267 -221 q 247 -242 223 -258 q 199 -274 175 -284 l 175 -284 l 154 -254 q 179 -235 193 -219 q 206 -203 206 -187 l 206 -187 q 206 -162 166 -135 l 166 -135 q 166 -100 190 -81 q 214 -62 246 -62 l 246 -62 q 275 -62 294 -78 q 312 -94 312 -127"},"ĸ":{"x_min":-10,"x_max":612,"ha":583,"o":"m 286 430 l 247 248 l 480 430 l 612 430 l 413 267 l 562 0 l 338 0 l 236 201 l 194 0 l -10 0 l 81 430 l 286 430"},"l":{"x_min":-10,"x_max":337,"ha":293,"o":"m 337 672 l 194 0 l -10 0 l 132 672 l 337 672"},"ĺ":{"x_min":-10,"x_max":438,"ha":293,"o":"m 337 672 l 194 0 l -10 0 l 132 672 l 337 672 m 259 719 l 173 719 l 266 865 l 438 865 l 259 719"},"ľ":{"x_min":-10,"x_max":523,"ha":393,"o":"m 337 672 l 194 0 l -10 0 l 132 672 l 337 672 m 338 423 l 338 423 q 354 435 373 453 q 392 470 407 499 l 407 499 q 383 505 368 523 q 353 540 353 566 l 353 566 q 353 586 361 602 q 368 617 381 628 q 394 639 410 645 q 426 651 444 651 l 444 651 q 477 651 500 633 q 523 614 523 576 l 523 576 q 523 543 509 514 q 494 484 471 460 q 448 436 419 418 q 390 400 361 388 l 361 388 q 354 397 349 405 l 349 405 q 344 412 341 418 q 337 423 338 423"},"ļ":{"x_min":-15,"x_max":337,"ha":293,"o":"m 337 672 l 194 0 l -10 0 l 132 672 l 337 672 m 143 -127 l 143 -127 q 143 -153 131 -177 q 118 -201 98 -221 q 78 -242 54 -258 q 30 -274 6 -284 l 6 -284 l -15 -254 q 10 -235 24 -219 q 37 -203 37 -187 l 37 -187 q 37 -162 -3 -135 l -3 -135 q -3 -100 21 -81 q 45 -62 77 -62 l 77 -62 q 106 -62 125 -78 q 143 -94 143 -127"},"ŀ":{"x_min":-10,"x_max":495,"ha":472,"o":"m 337 672 l 194 0 l -10 0 l 132 672 l 337 672 m 495 311 l 495 311 q 495 288 486 271 q 476 254 461 242 q 445 230 425 224 q 405 218 384 218 l 384 218 q 344 218 317 237 q 290 256 290 297 l 290 297 q 290 319 299 337 q 308 354 324 366 q 339 377 360 383 q 380 389 402 389 l 402 389 q 441 389 468 370 q 495 351 495 311"},"<":{"x_min":35,"x_max":399,"ha":397,"o":"m 163 316 l 323 109 l 204 109 l 35 316 l 282 523 l 399 523 l 163 316"},"¬":{"x_min":23,"x_max":544,"ha":593,"o":"m 23 165 l 44 256 l 544 256 l 489 27 l 384 27 l 416 165 l 23 165"},"ł":{"x_min":6,"x_max":458,"ha":399,"o":"m 397 672 l 351 454 l 458 489 l 437 393 l 330 358 l 254 0 l 50 0 l 111 288 l 6 254 l 23 350 l 131 384 l 192 672 l 397 672"},"m":{"x_min":-10,"x_max":833,"ha":861,"o":"m 262 366 l 268 366 q 289 386 315 403 l 315 403 q 338 417 370 429 q 402 441 442 441 l 442 441 q 490 441 514 419 q 537 397 540 365 l 540 365 l 546 365 q 569 386 596 403 l 596 403 q 619 417 650 429 q 681 441 716 441 l 716 441 q 768 441 801 413 q 833 384 833 339 l 833 339 q 833 316 825 278 q 817 240 807 195 l 807 195 l 765 0 l 568 0 l 622 261 q 625 276 628 290 q 631 304 631 313 l 631 313 q 631 327 623 337 q 615 346 600 346 l 600 346 q 581 346 565 333 q 548 319 539 310 l 539 310 l 474 0 l 287 0 l 342 261 q 344 274 347 288 q 350 301 350 312 l 350 312 q 350 327 343 337 q 335 346 320 346 l 320 346 q 302 346 286 333 q 269 320 260 311 l 260 311 l 194 0 l -10 0 l 81 430 l 244 430 l 262 366"},"¯":{"x_min":26,"x_max":400,"ha":426,"o":"m 26 526 l 45 603 l 400 603 l 382 526 l 26 526"},"−":{"x_min":51,"x_max":474,"ha":501,"o":"m 51 273 l 72 364 l 474 364 l 454 273 l 51 273"},"µ":{"x_min":-42,"x_max":586,"ha":588,"o":"m 315 119 l 382 430 l 586 430 l 494 0 l 332 0 l 314 64 l 308 64 q 301 53 293 41 q 285 28 275 18 q 264 7 250 0 q 236 -8 217 -8 l 217 -8 q 191 -8 175 6 q 158 19 151 34 l 151 34 l 151 -168 l -42 -168 l 86 430 l 289 430 l 239 196 q 235 179 231 156 q 226 132 226 118 l 226 118 q 226 105 232 95 q 238 84 255 84 l 255 84 q 274 84 290 96 q 306 108 315 119 l 315 119"},"×":{"x_min":12,"x_max":519,"ha":511,"o":"m 519 522 l 327 315 l 449 109 l 330 109 l 255 238 l 135 109 l 12 109 l 207 319 l 89 522 l 205 522 l 279 396 l 397 522 l 519 522"},"n":{"x_min":-10,"x_max":558,"ha":586,"o":"m 262 366 l 268 366 q 289 386 315 403 l 315 403 q 338 417 369 429 q 400 441 438 441 l 438 441 q 490 441 524 415 q 558 388 558 342 l 558 342 q 558 329 555 311 q 552 292 548 272 q 544 252 540 232 q 535 211 532 195 l 532 195 l 490 0 l 287 0 l 342 261 q 344 274 347 288 q 350 301 350 312 l 350 312 q 350 327 343 337 q 335 346 320 346 l 320 346 q 302 346 286 333 q 269 320 260 311 l 260 311 l 194 0 l -10 0 l 81 430 l 244 430 l 262 366"},"ń":{"x_min":-10,"x_max":558,"ha":586,"o":"m 262 366 l 268 366 q 289 386 315 403 l 315 403 q 338 417 369 429 q 400 441 438 441 l 438 441 q 490 441 524 415 q 558 388 558 342 l 558 342 q 558 329 555 311 q 552 292 548 272 q 544 252 540 232 q 535 211 532 195 l 532 195 l 490 0 l 287 0 l 342 261 q 344 274 347 288 q 350 301 350 312 l 350 312 q 350 327 343 337 q 335 346 320 346 l 320 346 q 302 346 286 333 q 269 320 260 311 l 260 311 l 194 0 l -10 0 l 81 430 l 244 430 l 262 366 m 347 489 l 261 489 l 354 635 l 526 635 l 347 489"},"ŉ":{"x_min":-10,"x_max":558,"ha":586,"o":"m 262 366 l 268 366 q 289 386 315 403 l 315 403 q 338 417 369 429 q 400 441 438 441 l 438 441 q 490 441 524 415 q 558 388 558 342 l 558 342 q 558 329 555 311 q 552 292 548 272 q 544 252 540 232 q 535 211 532 195 l 532 195 l 490 0 l 287 0 l 342 261 q 344 274 347 288 q 350 301 350 312 l 350 312 q 350 327 343 337 q 335 346 320 346 l 320 346 q 302 346 286 333 q 269 320 260 311 l 260 311 l 194 0 l -10 0 l 81 430 l 244 430 l 262 366 m 86 545 l 86 545 q 102 557 121 575 q 140 592 155 621 l 155 621 q 131 627 116 645 q 101 662 101 688 l 101 688 q 101 708 109 724 q 116 739 129 750 q 142 761 158 767 q 174 773 192 773 l 192 773 q 225 773 248 755 q 271 736 271 698 l 271 698 q 271 665 257 636 q 242 606 219 582 q 196 558 167 540 q 138 522 109 510 l 109 510 q 102 519 97 527 l 97 527 q 92 534 89 540 q 85 545 86 545"},"ň":{"x_min":-10,"x_max":558,"ha":586,"o":"m 262 366 l 268 366 q 289 386 315 403 l 315 403 q 338 417 369 429 q 400 441 438 441 l 438 441 q 490 441 524 415 q 558 388 558 342 l 558 342 q 558 329 555 311 q 552 292 548 272 q 544 252 540 232 q 535 211 532 195 l 532 195 l 490 0 l 287 0 l 342 261 q 344 274 347 288 q 350 301 350 312 l 350 312 q 350 327 343 337 q 335 346 320 346 l 320 346 q 302 346 286 333 q 269 320 260 311 l 260 311 l 194 0 l -10 0 l 81 430 l 244 430 l 262 366 m 458 635 l 544 635 l 398 489 l 249 489 l 166 635 l 243 635 l 326 543 l 458 635"},"ņ":{"x_min":-10,"x_max":558,"ha":586,"o":"m 262 366 l 268 366 q 289 386 315 403 l 315 403 q 338 417 369 429 q 400 441 438 441 l 438 441 q 490 441 524 415 q 558 388 558 342 l 558 342 q 558 329 555 311 q 552 292 548 272 q 544 252 540 232 q 535 211 532 195 l 532 195 l 490 0 l 287 0 l 342 261 q 344 274 347 288 q 350 301 350 312 l 350 312 q 350 327 343 337 q 335 346 320 346 l 320 346 q 302 346 286 333 q 269 320 260 311 l 260 311 l 194 0 l -10 0 l 81 430 l 244 430 l 262 366 m 296 -127 l 296 -127 q 296 -153 284 -177 q 271 -201 251 -221 q 231 -242 207 -258 q 183 -274 159 -284 l 159 -284 l 138 -254 q 163 -235 177 -219 q 190 -203 190 -187 l 190 -187 q 190 -162 150 -135 l 150 -135 q 150 -100 174 -81 q 198 -62 230 -62 l 230 -62 q 259 -62 278 -78 q 296 -94 296 -127"},"ṅ":{"x_min":-10,"x_max":558,"ha":586,"o":"m 262 366 l 268 366 q 289 386 315 403 l 315 403 q 338 417 369 429 q 400 441 438 441 l 438 441 q 490 441 524 415 q 558 388 558 342 l 558 342 q 558 329 555 311 q 552 292 548 272 q 544 252 540 232 q 535 211 532 195 l 532 195 l 490 0 l 287 0 l 342 261 q 344 274 347 288 q 350 301 350 312 l 350 312 q 350 327 343 337 q 335 346 320 346 l 320 346 q 302 346 286 333 q 269 320 260 311 l 260 311 l 194 0 l -10 0 l 81 430 l 244 430 l 262 366 m 451 561 l 451 561 q 451 538 442 521 q 432 504 417 492 q 401 480 381 474 q 361 468 340 468 l 340 468 q 300 468 273 487 q 246 506 246 547 l 246 547 q 246 569 255 587 q 264 604 280 616 q 295 627 316 633 q 336 639 358 639 l 358 639 q 397 639 424 620 q 451 601 451 561"},"₉":{"x_min":-14,"x_max":240,"ha":281,"o":"m 77 -8 l 77 -8 q 58 -8 32 -5 q 5 -2 -14 9 l -14 9 l -1 65 l 77 65 q 76 63 76 58 l 76 58 q 76 47 78 39 q 80 31 88 31 l 88 31 q 97 31 113 49 q 128 67 136 109 l 136 109 l 132 109 q 120 98 103 93 q 86 88 68 88 l 68 88 q 27 88 12 107 q -4 125 -4 157 l -4 157 q -4 205 29 231 l 29 231 q 46 242 71 250 q 96 257 131 257 l 131 257 q 156 257 176 253 q 196 248 210 237 q 224 225 232 205 q 240 185 240 155 l 240 155 q 240 123 231 94 q 221 64 202 42 q 182 19 151 6 q 120 -8 77 -8 m 133 219 l 133 219 q 123 219 116 212 q 108 205 104 195 q 99 185 97 174 q 95 163 95 155 l 95 155 q 95 145 98 140 q 100 134 108 134 l 108 134 q 118 134 126 141 q 134 148 139 158 q 144 167 147 177 q 149 187 149 194 l 149 194 q 149 219 133 219"},"⁹":{"x_min":67,"x_max":321,"ha":281,"o":"m 158 380 l 158 380 q 139 380 113 383 q 86 386 67 397 l 67 397 l 80 454 l 158 454 q 157 451 157 446 l 157 446 q 157 436 159 428 q 161 419 169 419 l 169 419 q 178 419 194 437 q 209 455 217 497 l 217 497 l 213 497 q 201 486 184 481 q 167 476 149 476 l 149 476 q 108 476 93 495 q 77 513 77 545 l 77 545 q 77 593 110 619 l 110 619 q 127 630 152 638 q 177 645 212 645 l 212 645 q 237 645 257 641 q 277 636 291 625 q 305 613 313 593 q 321 573 321 543 l 321 543 q 321 511 312 482 q 302 452 283 430 q 263 407 232 394 q 201 380 158 380 m 214 607 l 214 607 q 204 607 197 600 q 189 593 185 583 q 180 573 178 562 q 176 551 176 543 l 176 543 q 176 533 179 528 q 181 522 189 522 l 189 522 q 199 522 207 529 q 215 536 220 546 q 225 555 228 565 q 230 575 230 582 l 230 582 q 230 607 214 607"},"ñ":{"x_min":-10,"x_max":558,"ha":586,"o":"m 262 366 l 268 366 q 289 386 315 403 l 315 403 q 338 417 369 429 q 400 441 438 441 l 438 441 q 490 441 524 415 q 558 388 558 342 l 558 342 q 558 329 555 311 q 552 292 548 272 q 544 252 540 232 q 535 211 532 195 l 532 195 l 490 0 l 287 0 l 342 261 q 344 274 347 288 q 350 301 350 312 l 350 312 q 350 327 343 337 q 335 346 320 346 l 320 346 q 302 346 286 333 q 269 320 260 311 l 260 311 l 194 0 l -10 0 l 81 430 l 244 430 l 262 366 m 515 640 l 550 615 q 520 560 490 533 q 460 506 415 506 l 415 506 q 397 506 373 512 q 348 518 323 525 q 297 531 275 537 q 252 543 238 543 l 238 543 q 220 543 201 531 q 182 519 173 508 l 173 508 l 140 537 q 171 588 203 614 q 234 640 277 640 l 277 640 q 293 640 317 635 q 340 630 365 624 q 389 617 412 612 q 435 607 450 607 l 450 607 q 464 607 484 617 q 503 626 515 640 l 515 640"},"#":{"x_min":15,"x_max":685,"ha":672,"o":"m 67 402 l 88 493 l 212 493 l 241 619 l 328 619 l 300 493 l 465 493 l 494 619 l 581 619 l 553 493 l 685 493 l 665 402 l 534 402 l 501 249 l 632 249 l 612 157 l 481 157 l 451 17 l 355 17 l 387 157 l 228 157 l 198 17 l 102 17 l 134 157 l 15 157 l 36 249 l 155 249 l 191 402 l 67 402 m 281 402 l 248 249 l 408 249 l 444 402 l 281 402"},"o":{"x_min":12,"x_max":545,"ha":575,"o":"m 315 441 l 315 441 q 434 441 488 399 l 488 399 q 545 355 545 253 l 545 253 q 545 190 524 140 q 503 89 465 56 l 465 56 q 389 -8 245 -8 l 245 -8 q 122 -8 69 39 l 69 39 q 12 88 12 186 l 12 186 q 12 251 39 304 q 65 357 115 392 l 115 392 q 188 441 315 441 m 247 60 l 247 60 q 272 60 291 88 q 309 116 320 157 q 331 197 337 241 q 342 284 342 316 l 342 316 q 342 344 337 359 q 331 373 313 373 l 313 373 q 286 373 267 344 q 247 315 235 275 q 223 235 218 193 q 212 151 212 125 l 212 125 q 212 60 247 60"},"ó":{"x_min":12,"x_max":545,"ha":575,"o":"m 315 441 l 315 441 q 434 441 488 399 l 488 399 q 545 355 545 253 l 545 253 q 545 190 524 140 q 503 89 465 56 l 465 56 q 389 -8 245 -8 l 245 -8 q 122 -8 69 39 l 69 39 q 12 88 12 186 l 12 186 q 12 251 39 304 q 65 357 115 392 l 115 392 q 188 441 315 441 m 247 60 l 247 60 q 272 60 291 88 q 309 116 320 157 q 331 197 337 241 q 342 284 342 316 l 342 316 q 342 344 337 359 q 331 373 313 373 l 313 373 q 286 373 267 344 q 247 315 235 275 q 223 235 218 193 q 212 151 212 125 l 212 125 q 212 60 247 60 m 357 489 l 271 489 l 364 635 l 536 635 l 357 489"},"ŏ":{"x_min":12,"x_max":545,"ha":575,"o":"m 315 441 l 315 441 q 434 441 488 399 l 488 399 q 545 355 545 253 l 545 253 q 545 190 524 140 q 503 89 465 56 l 465 56 q 389 -8 245 -8 l 245 -8 q 122 -8 69 39 l 69 39 q 12 88 12 186 l 12 186 q 12 251 39 304 q 65 357 115 392 l 115 392 q 188 441 315 441 m 247 60 l 247 60 q 272 60 291 88 q 309 116 320 157 q 331 197 337 241 q 342 284 342 316 l 342 316 q 342 344 337 359 q 331 373 313 373 l 313 373 q 286 373 267 344 q 247 315 235 275 q 223 235 218 193 q 212 151 212 125 l 212 125 q 212 60 247 60 m 339 489 l 339 489 q 280 489 245 519 q 210 548 200 614 l 200 614 l 251 635 q 257 615 268 603 q 279 590 293 583 q 306 576 321 574 q 335 571 347 571 l 347 571 q 389 571 428 593 q 466 615 492 650 l 492 650 l 530 616 q 492 547 444 518 q 396 489 339 489"},"ô":{"x_min":12,"x_max":545,"ha":575,"o":"m 315 441 l 315 441 q 434 441 488 399 l 488 399 q 545 355 545 253 l 545 253 q 545 190 524 140 q 503 89 465 56 l 465 56 q 389 -8 245 -8 l 245 -8 q 122 -8 69 39 l 69 39 q 12 88 12 186 l 12 186 q 12 251 39 304 q 65 357 115 392 l 115 392 q 188 441 315 441 m 247 60 l 247 60 q 272 60 291 88 q 309 116 320 157 q 331 197 337 241 q 342 284 342 316 l 342 316 q 342 344 337 359 q 331 373 313 373 l 313 373 q 286 373 267 344 q 247 315 235 275 q 223 235 218 193 q 212 151 212 125 l 212 125 q 212 60 247 60 m 229 489 l 143 489 l 289 635 l 438 635 l 521 489 l 445 489 l 362 582 l 229 489"},"ö":{"x_min":12,"x_max":545,"ha":575,"o":"m 315 441 l 315 441 q 434 441 488 399 l 488 399 q 545 355 545 253 l 545 253 q 545 190 524 140 q 503 89 465 56 l 465 56 q 389 -8 245 -8 l 245 -8 q 122 -8 69 39 l 69 39 q 12 88 12 186 l 12 186 q 12 251 39 304 q 65 357 115 392 l 115 392 q 188 441 315 441 m 247 60 l 247 60 q 272 60 291 88 q 309 116 320 157 q 331 197 337 241 q 342 284 342 316 l 342 316 q 342 344 337 359 q 331 373 313 373 l 313 373 q 286 373 267 344 q 247 315 235 275 q 223 235 218 193 q 212 151 212 125 l 212 125 q 212 60 247 60 m 243 631 l 243 631 q 279 631 296 611 q 313 590 313 561 l 313 561 q 313 529 293 504 q 272 478 232 478 l 232 478 q 195 478 178 499 q 161 519 161 548 l 161 548 q 161 580 182 606 q 203 631 243 631 m 455 631 l 455 631 q 492 631 509 611 q 526 590 526 561 l 526 561 q 526 529 505 504 q 484 478 444 478 l 444 478 q 407 478 390 499 q 373 519 373 548 l 373 548 q 373 580 394 606 q 415 631 455 631"},"ọ":{"x_min":12,"x_max":545,"ha":575,"o":"m 315 441 l 315 441 q 434 441 488 399 l 488 399 q 545 355 545 253 l 545 253 q 545 190 524 140 q 503 89 465 56 l 465 56 q 389 -8 245 -8 l 245 -8 q 122 -8 69 39 l 69 39 q 12 88 12 186 l 12 186 q 12 251 39 304 q 65 357 115 392 l 115 392 q 188 441 315 441 m 247 60 l 247 60 q 272 60 291 88 q 309 116 320 157 q 331 197 337 241 q 342 284 342 316 l 342 316 q 342 344 337 359 q 331 373 313 373 l 313 373 q 286 373 267 344 q 247 315 235 275 q 223 235 218 193 q 212 151 212 125 l 212 125 q 212 60 247 60 m 285 -144 l 285 -144 q 285 -162 278 -176 q 270 -190 258 -199 q 245 -208 229 -213 q 212 -218 195 -218 l 195 -218 q 163 -218 141 -203 q 118 -188 118 -154 l 118 -154 q 118 -118 146 -99 q 173 -81 209 -81 l 209 -81 q 241 -81 263 -96 q 285 -111 285 -144"},"œ":{"x_min":11,"x_max":902,"ha":918,"o":"m 313 441 l 313 441 q 433 441 487 399 l 487 399 q 491 395 493 394 l 493 394 q 530 416 581 429 q 632 441 701 441 l 701 441 q 801 441 852 410 q 902 379 902 313 l 902 313 q 902 286 894 255 q 886 223 870 201 l 870 201 l 589 201 q 585 179 584 159 q 582 139 582 123 l 582 123 q 582 114 583 103 q 584 92 588 83 q 591 73 598 67 q 604 60 616 60 l 616 60 q 625 60 637 66 q 648 72 660 83 q 671 94 682 110 q 692 126 698 146 l 698 146 l 862 146 l 836 39 q 816 26 790 17 q 764 8 735 3 q 706 -3 676 -5 q 646 -8 619 -8 l 619 -8 q 565 -8 519 3 q 473 13 441 39 l 441 39 q 369 -8 244 -8 l 244 -8 q 119 -8 68 39 l 68 39 q 11 88 11 186 l 11 186 q 11 251 38 304 q 64 357 114 392 l 114 392 q 151 417 200 429 q 248 441 313 441 m 246 60 l 246 60 q 271 60 289 88 q 307 116 319 157 q 330 197 336 241 q 341 284 341 316 l 341 316 q 341 344 335 359 q 329 373 311 373 l 311 373 q 284 373 265 344 q 246 315 234 275 q 221 235 216 193 q 210 151 210 125 l 210 125 q 210 60 246 60 m 722 320 l 722 320 q 722 351 712 362 q 702 373 688 373 l 688 373 q 672 373 659 363 q 645 352 634 335 q 623 317 614 295 q 605 272 599 247 l 599 247 l 713 247 q 715 259 717 272 l 717 272 q 719 283 721 296 q 722 309 722 320"},"˛":{"x_min":15,"x_max":249,"ha":251,"o":"m 164 14 l 245 14 q 231 6 213 -5 q 195 -17 180 -31 q 164 -46 154 -63 q 143 -81 143 -100 l 143 -100 q 143 -120 152 -129 q 161 -138 174 -138 l 174 -138 q 183 -138 196 -132 q 208 -127 226 -112 l 226 -112 l 249 -154 q 219 -179 179 -191 q 139 -204 101 -204 l 101 -204 q 15 -204 15 -130 l 15 -130 q 15 -98 31 -74 q 46 -51 69 -33 q 91 -16 117 -4 q 143 7 164 14 l 164 14"},"ò":{"x_min":12,"x_max":545,"ha":575,"o":"m 315 441 l 315 441 q 434 441 488 399 l 488 399 q 545 355 545 253 l 545 253 q 545 190 524 140 q 503 89 465 56 l 465 56 q 389 -8 245 -8 l 245 -8 q 122 -8 69 39 l 69 39 q 12 88 12 186 l 12 186 q 12 251 39 304 q 65 357 115 392 l 115 392 q 188 441 315 441 m 247 60 l 247 60 q 272 60 291 88 q 309 116 320 157 q 331 197 337 241 q 342 284 342 316 l 342 316 q 342 344 337 359 q 331 373 313 373 l 313 373 q 286 373 267 344 q 247 315 235 275 q 223 235 218 193 q 212 151 212 125 l 212 125 q 212 60 247 60 m 285 489 l 100 635 l 273 635 l 378 489 l 285 489"},"ő":{"x_min":12,"x_max":682,"ha":575,"o":"m 315 441 l 315 441 q 434 441 488 399 l 488 399 q 545 355 545 253 l 545 253 q 545 190 524 140 q 503 89 465 56 l 465 56 q 389 -8 245 -8 l 245 -8 q 122 -8 69 39 l 69 39 q 12 88 12 186 l 12 186 q 12 251 39 304 q 65 357 115 392 l 115 392 q 188 441 315 441 m 247 60 l 247 60 q 272 60 291 88 q 309 116 320 157 q 331 197 337 241 q 342 284 342 316 l 342 316 q 342 344 337 359 q 331 373 313 373 l 313 373 q 286 373 267 344 q 247 315 235 275 q 223 235 218 193 q 212 151 212 125 l 212 125 q 212 60 247 60 m 250 489 l 164 489 l 277 635 l 449 635 l 250 489 m 483 489 l 397 489 l 510 635 l 682 635 l 483 489"},"ō":{"x_min":12,"x_max":545,"ha":575,"o":"m 315 441 l 315 441 q 434 441 488 399 l 488 399 q 545 355 545 253 l 545 253 q 545 190 524 140 q 503 89 465 56 l 465 56 q 389 -8 245 -8 l 245 -8 q 122 -8 69 39 l 69 39 q 12 88 12 186 l 12 186 q 12 251 39 304 q 65 357 115 392 l 115 392 q 188 441 315 441 m 247 60 l 247 60 q 272 60 291 88 q 309 116 320 157 q 331 197 337 241 q 342 284 342 316 l 342 316 q 342 344 337 359 q 331 373 313 373 l 313 373 q 286 373 267 344 q 247 315 235 275 q 223 235 218 193 q 212 151 212 125 l 212 125 q 212 60 247 60 m 155 526 l 174 603 l 529 603 l 511 526 l 155 526"},"⅛":{"x_min":56,"x_max":600,"ha":661,"o":"m 166 0 l 56 0 l 468 635 l 567 635 l 166 0 m 87 548 l 97 594 q 122 597 142 608 q 162 619 175 635 l 175 635 l 252 635 l 197 380 l 94 380 l 130 548 l 87 548 m 460 -8 l 460 -8 q 406 -8 379 11 q 351 29 351 64 l 351 64 q 351 87 364 106 q 377 124 408 135 l 408 135 q 395 139 385 151 q 375 162 375 181 l 375 181 q 375 200 386 214 q 396 228 414 238 q 431 247 454 252 q 476 256 500 256 l 500 256 q 530 256 550 250 q 569 244 581 234 q 592 224 596 213 q 600 201 600 190 l 600 190 q 600 175 595 165 q 589 154 582 148 q 574 141 566 137 q 557 133 552 132 l 552 132 q 571 127 583 112 q 595 97 595 75 l 595 75 q 595 40 559 16 q 523 -8 460 -8 m 481 155 l 481 155 q 498 155 505 168 q 512 180 512 191 l 512 191 q 512 201 510 210 q 507 218 496 218 l 496 218 q 479 218 472 206 q 464 194 464 182 l 464 182 q 464 173 467 164 q 470 155 481 155 m 465 30 l 465 30 q 483 30 490 46 q 496 62 496 77 l 496 77 q 496 90 494 98 q 491 106 480 106 l 480 106 q 463 106 456 91 q 448 76 448 62 l 448 62 q 448 50 452 40 q 455 30 465 30"},"½":{"x_min":55,"x_max":623,"ha":675,"o":"m 165 0 l 55 0 l 467 635 l 566 635 l 165 0 m 86 548 l 96 594 q 121 597 141 608 q 161 619 174 635 l 174 635 l 251 635 l 196 380 l 93 380 l 129 548 l 86 548 m 348 0 l 356 50 q 387 58 416 70 q 444 82 466 99 q 488 116 501 139 q 513 162 513 191 l 513 191 q 513 207 510 217 q 506 226 498 226 l 498 226 q 483 226 473 205 q 463 183 456 162 l 456 162 l 374 162 l 388 224 q 414 244 440 255 q 465 265 501 265 l 501 265 q 524 265 546 261 q 568 256 585 246 q 602 236 613 222 q 623 207 623 187 l 623 187 q 623 173 618 160 q 613 146 600 132 q 587 117 565 101 q 543 85 510 67 l 510 67 l 601 67 l 593 0 l 348 0"},"₁":{"x_min":-10,"x_max":155,"ha":184,"o":"m -10 168 l 0 214 q 25 217 45 228 q 65 239 78 255 l 78 255 l 155 255 l 100 0 l -3 0 l 33 168 l -10 168"},"¼":{"x_min":55,"x_max":588,"ha":648,"o":"m 165 0 l 55 0 l 467 635 l 566 635 l 165 0 m 86 548 l 96 594 q 121 597 141 608 q 161 619 174 635 l 174 635 l 251 635 l 196 380 l 93 380 l 129 548 l 86 548 m 542 64 l 528 0 l 425 0 l 439 64 l 334 64 l 348 124 l 464 255 l 583 255 l 552 110 l 588 110 l 579 64 l 542 64 m 390 110 l 449 110 l 468 201 l 390 110"},"¹":{"x_min":71,"x_max":236,"ha":184,"o":"m 71 548 l 81 594 q 106 597 126 608 q 146 619 159 635 l 159 635 l 236 635 l 181 380 l 78 380 l 114 548 l 71 548"},"⅓":{"x_min":55,"x_max":603,"ha":659,"o":"m 165 0 l 55 0 l 467 635 l 566 635 l 165 0 m 445 -8 l 445 -8 q 411 -8 386 -1 q 360 6 337 26 l 337 26 l 350 86 l 434 86 q 434 88 432 79 q 430 70 430 61 l 430 61 q 430 44 435 38 q 439 31 446 31 l 446 31 q 463 31 475 47 q 486 63 486 79 l 486 79 q 486 95 477 103 q 468 111 454 111 l 454 111 q 455 122 457 130 l 457 130 q 458 137 459 143 q 460 148 460 149 l 460 149 q 487 149 498 161 q 508 172 508 189 l 508 189 q 508 200 506 209 q 503 218 492 218 l 492 218 q 481 218 471 208 q 460 197 452 172 l 452 172 l 367 172 l 379 228 q 393 236 411 242 l 411 242 q 427 247 449 252 q 471 257 499 257 l 499 257 q 517 257 536 254 q 554 251 569 245 q 584 238 594 226 q 603 214 603 196 l 603 196 q 603 168 585 153 q 566 138 535 126 l 535 126 q 559 124 576 112 q 593 99 593 74 l 593 74 q 593 39 553 16 q 513 -8 445 -8 m 86 548 l 96 594 q 121 597 141 608 q 161 619 174 635 l 174 635 l 251 635 l 196 380 l 93 380 l 129 548 l 86 548"},"ǫ":{"x_min":12,"x_max":545,"ha":575,"o":"m 315 441 l 315 441 q 434 441 488 399 l 488 399 q 545 355 545 253 l 545 253 q 545 190 524 140 q 503 89 465 56 l 465 56 q 394 -3 270 -7 l 270 -7 q 245 -24 224 -47 q 203 -71 203 -100 l 203 -100 q 203 -120 212 -129 q 221 -138 234 -138 l 234 -138 q 243 -138 256 -132 q 268 -127 286 -112 l 286 -112 l 309 -154 q 279 -179 239 -191 q 199 -204 161 -204 l 161 -204 q 75 -204 75 -130 l 75 -130 q 75 -106 84 -86 q 93 -67 108 -51 q 122 -36 140 -24 q 158 -13 177 -4 l 177 -4 q 106 5 69 39 l 69 39 q 12 88 12 186 l 12 186 q 12 251 39 304 q 65 357 115 392 l 115 392 q 188 441 315 441 m 247 60 l 247 60 q 272 60 291 88 q 309 116 320 157 q 331 197 337 241 q 342 284 342 316 l 342 316 q 342 344 337 359 q 331 373 313 373 l 313 373 q 286 373 267 344 q 247 315 235 275 q 223 235 218 193 q 212 151 212 125 l 212 125 q 212 60 247 60"},"ª":{"x_min":62,"x_max":399,"ha":393,"o":"m 62 276 l 73 325 l 351 325 l 341 276 l 62 276 m 129 569 l 139 626 q 164 640 192 646 q 219 651 256 651 l 256 651 q 297 651 325 645 q 352 639 369 628 q 385 617 392 601 q 399 585 399 565 l 399 565 q 399 554 397 543 q 395 531 393 519 l 393 519 l 365 386 l 268 386 l 258 425 l 254 425 q 242 408 215 395 q 188 381 160 381 l 160 381 q 129 381 109 400 q 89 419 89 455 l 89 455 q 89 486 105 505 q 121 523 148 533 q 174 542 208 545 q 242 548 277 548 l 277 548 q 279 554 280 561 q 281 567 281 574 l 281 574 q 281 586 276 595 q 270 604 253 604 l 253 604 q 223 604 214 569 l 214 569 l 129 569 m 264 481 l 269 510 l 259 510 q 203 510 203 479 l 203 479 q 203 467 210 458 q 217 449 230 449 l 230 449 q 243 449 253 459 q 262 469 264 481 l 264 481"},"º":{"x_min":67,"x_max":408,"ha":400,"o":"m 274 651 l 274 651 q 346 651 377 625 q 408 598 408 538 l 408 538 q 408 464 364 422 q 320 380 232 380 l 232 380 q 158 380 128 412 q 97 443 97 498 l 97 498 q 97 564 141 608 q 185 651 274 651 m 233 432 l 233 432 q 248 432 259 447 q 270 461 277 482 q 284 503 288 526 q 291 548 291 565 l 291 565 q 291 582 288 591 q 284 600 273 600 l 273 600 q 256 600 245 585 q 233 570 226 549 q 219 528 216 506 q 212 484 212 471 l 212 471 q 212 432 233 432 m 67 276 l 78 325 l 356 325 l 346 276 l 67 276"},"ø":{"x_min":12,"x_max":545,"ha":575,"o":"m 315 441 l 315 441 q 379 441 424 429 l 424 429 l 457 468 l 502 439 l 475 407 q 493 400 506 385 q 519 369 528 349 q 536 328 541 304 q 545 279 545 253 l 545 253 q 545 127 469 60 q 393 -8 245 -8 l 245 -8 q 213 -8 187 -5 q 161 -2 139 3 l 139 3 l 101 -42 l 63 -9 l 90 23 q 52 46 32 88 q 12 129 12 186 l 12 186 q 12 242 31 289 q 50 336 88 370 q 125 403 182 422 q 239 441 315 441 m 313 373 l 313 373 q 291 373 274 354 q 257 334 245 305 q 233 275 226 240 q 218 205 215 175 l 215 175 l 342 328 q 341 350 335 362 q 329 373 313 373 m 247 60 l 247 60 q 266 60 281 77 q 296 93 307 119 q 318 144 325 176 q 332 208 336 240 l 336 240 l 214 94 q 221 60 247 60"},"ǿ":{"x_min":12,"x_max":545,"ha":575,"o":"m 350 489 l 264 489 l 357 635 l 529 635 l 350 489 m 315 441 l 315 441 q 379 441 424 429 l 424 429 l 457 468 l 502 439 l 475 407 q 493 400 506 385 q 519 369 528 349 q 536 328 541 304 q 545 279 545 253 l 545 253 q 545 127 469 60 q 393 -8 245 -8 l 245 -8 q 213 -8 187 -5 q 161 -2 139 3 l 139 3 l 101 -42 l 63 -9 l 90 23 q 52 46 32 88 q 12 129 12 186 l 12 186 q 12 242 31 289 q 50 336 88 370 q 125 403 182 422 q 239 441 315 441 m 313 373 l 313 373 q 291 373 274 354 q 257 334 245 305 q 233 275 226 240 q 218 205 215 175 l 215 175 l 342 328 q 341 350 335 362 q 329 373 313 373 m 247 60 l 247 60 q 266 60 281 77 q 296 93 307 119 q 318 144 325 176 q 332 208 336 240 l 336 240 l 214 94 q 221 60 247 60"},"õ":{"x_min":12,"x_max":560,"ha":575,"o":"m 315 441 l 315 441 q 434 441 488 399 l 488 399 q 545 355 545 253 l 545 253 q 545 190 524 140 q 503 89 465 56 l 465 56 q 389 -8 245 -8 l 245 -8 q 122 -8 69 39 l 69 39 q 12 88 12 186 l 12 186 q 12 251 39 304 q 65 357 115 392 l 115 392 q 188 441 315 441 m 247 60 l 247 60 q 272 60 291 88 q 309 116 320 157 q 331 197 337 241 q 342 284 342 316 l 342 316 q 342 344 337 359 q 331 373 313 373 l 313 373 q 286 373 267 344 q 247 315 235 275 q 223 235 218 193 q 212 151 212 125 l 212 125 q 212 60 247 60 m 525 640 l 560 615 q 530 560 500 533 q 470 506 425 506 l 425 506 q 407 506 383 512 q 358 518 333 525 q 307 531 285 537 q 262 543 248 543 l 248 543 q 230 543 211 531 q 192 519 183 508 l 183 508 l 150 537 q 181 588 213 614 q 244 640 287 640 l 287 640 q 303 640 327 635 q 350 630 375 624 q 399 617 422 612 q 445 607 460 607 l 460 607 q 474 607 494 617 q 513 626 525 640 l 525 640"},"p":{"x_min":-46,"x_max":557,"ha":584,"o":"m 208 65 l 158 -168 l -46 -168 l 80 430 l 243 430 l 261 366 l 267 366 q 303 404 348 421 q 392 437 435 437 l 435 437 q 470 437 494 427 q 517 416 531 398 q 545 380 551 355 q 557 330 557 302 l 557 302 q 557 288 555 260 q 553 232 546 198 q 539 163 526 127 q 513 90 492 60 q 470 30 438 11 q 405 -8 360 -8 l 360 -8 q 335 -8 312 -2 q 288 4 269 14 q 250 24 236 38 q 221 51 214 65 l 214 65 l 208 65 m 264 89 l 264 89 q 288 89 304 115 q 320 140 330 175 q 340 209 345 244 q 349 278 349 295 l 349 295 q 349 315 343 328 q 336 341 319 341 l 319 341 q 300 341 283 328 q 266 314 258 304 l 258 304 l 219 121 q 227 110 238 100 q 249 89 264 89"},"¶":{"x_min":62,"x_max":664,"ha":615,"o":"m 247 -168 l 151 -168 l 243 235 q 154 241 113 278 l 113 278 q 62 323 62 413 l 62 413 q 62 472 86 521 q 110 569 156 600 l 156 600 q 220 645 337 645 l 337 645 l 664 645 l 648 569 l 582 569 l 424 -168 l 327 -168 l 495 569 l 406 569 l 247 -168"},"(":{"x_min":31,"x_max":375,"ha":308,"o":"m 340 718 l 375 679 q 339 637 303 580 q 267 523 239 458 q 210 392 193 321 q 175 250 175 181 l 175 181 q 175 104 195 52 q 214 -1 238 -39 l 238 -39 l 201 -70 q 163 -51 132 -21 q 101 8 79 46 q 56 84 44 129 q 31 174 31 225 l 31 225 q 31 298 57 372 q 82 445 125 511 q 167 576 223 630 q 279 684 340 718 l 340 718"},")":{"x_min":-40,"x_max":304,"ha":308,"o":"m -4 -70 l -40 -32 q -4 10 32 68 q 68 125 97 191 q 125 256 143 327 q 161 397 161 467 l 161 467 q 161 544 141 597 q 121 649 98 687 l 98 687 l 134 718 q 172 699 203 670 q 234 640 257 602 q 279 564 292 519 q 304 474 304 423 l 304 423 q 304 350 279 277 q 254 203 212 138 q 169 72 113 18 q 57 -36 -4 -70 l -4 -70"},"%":{"x_min":79,"x_max":668,"ha":724,"o":"m 226 0 l 116 0 l 528 635 l 627 635 l 226 0 m 242 645 l 242 645 q 296 645 327 621 q 357 596 357 532 l 357 532 q 357 462 317 421 q 276 380 191 380 l 191 380 q 132 380 106 404 q 79 427 79 485 l 79 485 q 79 560 121 603 q 162 645 242 645 m 199 424 l 199 424 q 211 424 221 440 q 231 455 239 477 q 246 499 251 524 q 255 549 255 568 l 255 568 q 255 601 240 601 l 240 601 q 228 601 217 586 q 206 571 199 550 q 191 528 187 504 q 182 479 182 460 l 182 460 q 182 424 199 424 m 553 257 l 553 257 q 607 257 638 233 q 668 208 668 144 l 668 144 q 668 74 628 33 q 587 -8 502 -8 l 502 -8 q 443 -8 417 16 q 390 39 390 97 l 390 97 q 390 172 432 215 q 473 257 553 257 m 510 36 l 510 36 q 522 36 532 52 q 542 67 550 89 q 557 111 562 136 q 566 161 566 180 l 566 180 q 566 213 551 213 l 551 213 q 539 213 528 198 q 517 183 510 162 q 502 140 498 116 q 493 91 493 72 l 493 72 q 493 36 510 36"},".":{"x_min":0,"x_max":203,"ha":274,"o":"m 203 88 l 203 88 q 203 65 194 47 q 184 29 169 17 q 153 5 133 -1 q 113 -8 91 -8 l 91 -8 q 53 -8 27 13 q 0 33 0 77 l 0 77 q 0 100 9 118 q 18 136 33 148 q 48 160 68 167 q 87 173 108 173 l 108 173 q 149 173 176 153 q 203 132 203 88"},"·":{"x_min":46,"x_max":249,"ha":273,"o":"m 249 320 l 249 320 q 249 297 240 279 q 230 261 215 249 q 199 237 179 231 q 159 224 137 224 l 137 224 q 99 224 73 245 q 46 265 46 309 l 46 309 q 46 332 55 350 q 64 368 79 380 q 94 392 114 399 q 133 405 154 405 l 154 405 q 195 405 222 385 q 249 364 249 320"},"‰":{"x_min":78,"x_max":999,"ha":1054,"o":"m 225 0 l 115 0 l 527 635 l 626 635 l 225 0 m 241 645 l 241 645 q 295 645 326 621 q 356 596 356 532 l 356 532 q 356 462 316 421 q 275 380 190 380 l 190 380 q 131 380 105 404 q 78 427 78 485 l 78 485 q 78 560 120 603 q 161 645 241 645 m 198 424 l 198 424 q 210 424 220 440 q 230 455 238 477 q 245 499 250 524 q 254 549 254 568 l 254 568 q 254 601 239 601 l 239 601 q 227 601 216 586 q 205 571 198 550 q 190 528 186 504 q 181 479 181 460 l 181 460 q 181 424 198 424 m 552 257 l 552 257 q 606 257 637 233 q 667 208 667 144 l 667 144 q 667 74 627 33 q 586 -8 501 -8 l 501 -8 q 442 -8 416 16 q 389 39 389 97 l 389 97 q 389 172 431 215 q 472 257 552 257 m 509 36 l 509 36 q 521 36 531 52 q 541 67 549 89 q 556 111 561 136 q 565 161 565 180 l 565 180 q 565 213 550 213 l 550 213 q 538 213 527 198 q 516 183 509 162 q 501 140 497 116 q 492 91 492 72 l 492 72 q 492 36 509 36 m 884 257 l 884 257 q 938 257 969 233 q 999 208 999 144 l 999 144 q 999 74 959 33 q 918 -8 833 -8 l 833 -8 q 774 -8 748 16 q 721 39 721 97 l 721 97 q 721 172 763 215 q 804 257 884 257 m 841 36 l 841 36 q 853 36 863 52 q 873 67 881 89 q 888 111 893 136 q 897 161 897 180 l 897 180 q 897 213 882 213 l 882 213 q 870 213 859 198 q 848 183 841 162 q 833 140 829 116 q 824 91 824 72 l 824 72 q 824 36 841 36"},"+":{"x_min":30,"x_max":453,"ha":459,"o":"m 233 522 l 333 522 l 300 364 l 453 364 l 433 273 l 281 273 l 247 109 l 141 109 l 177 273 l 30 273 l 51 364 l 198 364 l 233 522"},"±":{"x_min":-1,"x_max":481,"ha":492,"o":"m 260 603 l 361 603 l 328 445 l 481 445 l 461 354 l 309 354 l 275 190 l 169 190 l 205 354 l 58 354 l 79 445 l 225 445 l 260 603 m -1 27 l 20 119 l 422 119 l 402 27 l -1 27"},"q":{"x_min":7,"x_max":569,"ha":577,"o":"m 361 365 l 407 430 l 569 430 l 442 -168 l 237 -168 l 287 64 l 280 64 q 274 55 263 43 q 252 30 234 19 q 216 7 192 0 q 167 -8 136 -8 l 136 -8 q 101 -8 77 3 q 52 13 37 31 q 21 49 14 75 q 7 100 7 130 l 7 130 q 7 143 9 172 q 11 200 19 235 q 26 269 41 306 q 55 342 80 372 q 104 402 140 422 q 176 441 227 441 l 227 441 q 245 441 264 438 q 283 435 301 427 q 319 419 333 404 q 347 389 355 365 l 355 365 l 361 365 m 294 343 l 294 343 q 270 343 254 317 q 238 290 228 255 q 218 220 214 185 q 209 150 209 133 l 209 133 q 209 113 215 100 q 221 86 238 86 l 238 86 q 258 86 275 101 q 292 115 300 126 l 300 126 l 339 309 q 332 320 321 332 q 309 343 294 343"},"?":{"x_min":73,"x_max":549,"ha":525,"o":"m 346 304 l 327 201 l 177 201 l 202 349 q 239 358 269 379 q 298 400 319 428 q 340 456 351 489 q 362 521 362 553 l 362 553 q 362 579 355 594 q 348 609 328 609 l 328 609 q 309 609 293 597 q 277 584 264 563 q 250 542 239 515 q 228 488 220 460 l 220 460 l 73 460 l 104 610 q 155 653 211 666 q 266 679 320 679 l 320 679 q 549 679 549 516 l 549 516 q 549 469 529 434 q 509 398 479 372 q 448 346 413 330 q 377 313 346 304 l 346 304 m 137 65 l 137 65 q 137 87 147 104 q 156 120 171 131 q 186 142 206 147 q 225 152 246 152 l 246 152 q 282 152 306 134 q 330 116 330 79 l 330 79 q 330 58 321 42 q 312 26 297 15 q 282 4 263 -2 q 243 -8 223 -8 l 223 -8 q 185 -8 161 10 q 137 28 137 65"},"¿":{"x_min":-27,"x_max":449,"ha":521,"o":"m 176 207 l 195 310 l 345 310 l 320 162 q 283 153 254 132 q 224 111 203 83 q 182 55 171 23 q 160 -10 160 -42 l 160 -42 q 160 -68 167 -83 q 174 -98 194 -98 l 194 -98 q 213 -98 229 -85 q 245 -73 259 -52 q 272 -31 283 -4 q 294 23 302 51 l 302 51 l 449 51 l 418 -99 q 367 -142 312 -155 q 256 -168 202 -168 l 202 -168 q -27 -168 -27 -5 l -27 -5 q -27 41 -7 77 q 13 113 44 139 q 74 165 110 182 q 145 198 176 207 l 176 207 m 385 446 l 385 446 q 385 423 376 407 q 366 391 351 380 q 336 369 317 364 q 297 359 276 359 l 276 359 q 240 359 216 377 q 192 395 192 432 l 192 432 q 192 453 201 469 q 210 485 225 496 q 240 507 260 513 q 279 519 299 519 l 299 519 q 337 519 361 501 q 385 483 385 446"},"\"":{"x_min":84,"x_max":503,"ha":446,"o":"m 281 672 l 183 393 l 84 393 l 128 672 l 281 672 m 503 672 l 406 393 l 307 393 l 351 672 l 503 672"},"„":{"x_min":-21,"x_max":465,"ha":539,"o":"m 465 85 l 465 85 q 465 47 447 12 q 429 -23 402 -52 q 374 -82 340 -104 q 305 -127 272 -140 l 272 -140 l 244 -98 q 280 -70 299 -48 q 317 -26 317 -4 l 317 -4 q 317 31 261 72 l 261 72 q 261 96 270 115 q 279 134 295 147 q 310 160 330 167 q 350 174 371 174 l 371 174 q 411 174 438 152 q 465 130 465 85 m 201 85 l 201 85 q 201 47 183 12 q 165 -23 137 -52 q 109 -82 75 -104 q 40 -127 7 -140 l 7 -140 l -21 -98 q 15 -70 34 -48 q 52 -26 52 -4 l 52 -4 q 52 31 -3 72 l -3 72 q -3 96 6 115 q 15 134 30 147 q 45 160 65 167 q 85 174 106 174 l 106 174 q 147 174 174 152 q 201 130 201 85"},"“":{"x_min":78,"x_max":564,"ha":532,"o":"m 78 464 l 78 464 q 78 501 96 537 q 114 572 142 602 q 169 631 204 654 q 238 676 271 689 l 271 689 l 300 647 q 263 619 245 597 q 226 575 226 553 l 226 553 q 226 518 282 477 l 282 477 q 282 453 273 434 q 264 415 249 402 q 233 389 214 382 q 194 375 173 375 l 173 375 q 132 375 105 397 q 78 419 78 464 m 343 464 l 343 464 q 343 501 361 537 q 379 572 407 602 q 434 631 469 654 q 503 676 536 689 l 536 689 l 564 647 q 528 619 510 597 q 491 575 491 553 l 491 553 q 491 518 547 477 l 547 477 q 547 453 538 434 q 529 415 514 402 q 498 389 478 382 q 458 375 437 375 l 437 375 q 397 375 370 397 q 343 419 343 464"},"”":{"x_min":82,"x_max":568,"ha":528,"o":"m 568 600 l 568 600 q 568 562 550 527 q 532 492 505 463 q 477 433 443 410 q 408 387 375 375 l 375 375 l 347 417 q 383 445 402 467 q 420 489 420 510 l 420 510 q 420 546 364 587 l 364 587 q 364 611 373 630 q 382 649 398 662 q 413 675 433 682 q 453 689 474 689 l 474 689 q 514 689 541 667 q 568 645 568 600 m 304 600 l 304 600 q 304 562 286 527 q 268 492 240 463 q 212 433 178 410 q 143 387 110 375 l 110 375 l 82 417 q 118 445 137 467 q 155 489 155 510 l 155 510 q 155 546 100 587 l 100 587 q 100 611 109 630 q 118 649 133 662 q 148 675 168 682 q 188 689 209 689 l 209 689 q 250 689 277 667 q 304 645 304 600"},"‘":{"x_min":78,"x_max":300,"ha":267,"o":"m 78 464 l 78 464 q 78 501 96 537 q 114 572 142 602 q 169 631 204 654 q 238 676 271 689 l 271 689 l 300 647 q 263 619 245 597 q 226 575 226 553 l 226 553 q 226 518 282 477 l 282 477 q 282 453 273 434 q 264 415 249 402 q 233 389 214 382 q 194 375 173 375 l 173 375 q 132 375 105 397 q 78 419 78 464"},"’":{"x_min":82,"x_max":304,"ha":264,"o":"m 304 600 l 304 600 q 304 562 286 527 q 268 492 240 463 q 212 433 178 410 q 143 387 110 375 l 110 375 l 82 417 q 118 445 137 467 q 155 489 155 510 l 155 510 q 155 546 100 587 l 100 587 q 100 611 109 630 q 118 649 133 662 q 148 675 168 682 q 188 689 209 689 l 209 689 q 250 689 277 667 q 304 645 304 600"},"‚":{"x_min":-20,"x_max":201,"ha":275,"o":"m 201 85 l 201 85 q 201 47 183 12 q 165 -23 138 -52 q 110 -82 76 -104 q 41 -127 8 -140 l 8 -140 l -20 -98 q 16 -70 35 -48 q 53 -26 53 -4 l 53 -4 q 53 31 -3 72 l -3 72 q -3 96 6 115 q 15 134 31 147 q 46 160 66 167 q 86 174 107 174 l 107 174 q 147 174 174 152 q 201 130 201 85"},"'":{"x_min":84,"x_max":281,"ha":214,"o":"m 281 672 l 162 393 l 84 393 l 128 672 l 281 672"},"r":{"x_min":-10,"x_max":496,"ha":483,"o":"m -10 0 l 81 430 l 244 430 l 259 355 l 266 355 q 289 391 325 416 q 361 441 420 441 l 420 441 q 424 441 433 441 q 441 440 452 438 q 462 435 474 431 q 485 426 496 418 l 496 418 l 452 212 l 343 212 q 341 274 332 299 q 323 323 303 323 l 303 323 q 293 323 282 319 q 270 314 258 299 l 258 299 l 194 0 l -10 0"},"ŕ":{"x_min":-10,"x_max":512,"ha":483,"o":"m -10 0 l 81 430 l 244 430 l 259 355 l 266 355 q 289 391 325 416 q 361 441 420 441 l 420 441 q 424 441 433 441 q 441 440 452 438 q 462 435 474 431 q 485 426 496 418 l 496 418 l 452 212 l 343 212 q 341 274 332 299 q 323 323 303 323 l 303 323 q 293 323 282 319 q 270 314 258 299 l 258 299 l 194 0 l -10 0 m 333 489 l 247 489 l 340 635 l 512 635 l 333 489"},"ř":{"x_min":-10,"x_max":520,"ha":483,"o":"m -10 0 l 81 430 l 244 430 l 259 355 l 266 355 q 289 391 325 416 q 361 441 420 441 l 420 441 q 424 441 433 441 q 441 440 452 438 q 462 435 474 431 q 485 426 496 418 l 496 418 l 452 212 l 343 212 q 341 274 332 299 q 323 323 303 323 l 303 323 q 293 323 282 319 q 270 314 258 299 l 258 299 l 194 0 l -10 0 m 434 635 l 520 635 l 374 489 l 225 489 l 142 635 l 219 635 l 302 543 l 434 635"},"ŗ":{"x_min":-11,"x_max":496,"ha":483,"o":"m -10 0 l 81 430 l 244 430 l 259 355 l 266 355 q 289 391 325 416 q 361 441 420 441 l 420 441 q 424 441 433 441 q 441 440 452 438 q 462 435 474 431 q 485 426 496 418 l 496 418 l 452 212 l 343 212 q 341 274 332 299 q 323 323 303 323 l 303 323 q 293 323 282 319 q 270 314 258 299 l 258 299 l 194 0 l -10 0 m 147 -127 l 147 -127 q 147 -153 135 -177 q 122 -201 102 -221 q 82 -242 58 -258 q 34 -274 10 -284 l 10 -284 l -11 -254 q 14 -235 28 -219 q 41 -203 41 -187 l 41 -187 q 41 -162 1 -135 l 1 -135 q 1 -100 25 -81 q 49 -62 81 -62 l 81 -62 q 110 -62 129 -78 q 147 -94 147 -127"},"ṛ":{"x_min":-10,"x_max":496,"ha":483,"o":"m -10 0 l 81 430 l 244 430 l 259 355 l 266 355 q 289 391 325 416 q 361 441 420 441 l 420 441 q 424 441 433 441 q 441 440 452 438 q 462 435 474 431 q 485 426 496 418 l 496 418 l 452 212 l 343 212 q 341 274 332 299 q 323 323 303 323 l 303 323 q 293 323 282 319 q 270 314 258 299 l 258 299 l 194 0 l -10 0 m 157 -144 l 157 -144 q 157 -162 150 -176 q 142 -190 130 -199 q 117 -208 101 -213 q 84 -218 67 -218 l 67 -218 q 35 -218 13 -203 q -10 -188 -10 -154 l -10 -154 q -10 -118 18 -99 q 45 -81 81 -81 l 81 -81 q 113 -81 135 -96 q 157 -111 157 -144"},"®":{"x_min":45,"x_max":733,"ha":755,"o":"m 733 337 l 733 337 q 733 260 702 196 q 670 131 618 85 q 566 38 499 12 q 432 -14 360 -14 l 360 -14 q 294 -14 237 8 q 179 30 137 70 q 94 110 70 166 q 45 222 45 290 l 45 290 q 45 365 76 428 q 106 491 158 537 q 210 583 277 609 q 344 635 418 635 l 418 635 q 485 635 543 613 q 600 591 643 552 q 685 513 709 458 q 733 403 733 337 m 666 333 l 666 333 q 666 386 647 430 q 627 474 593 506 q 559 537 513 555 q 467 572 413 572 l 413 572 q 353 572 299 551 q 245 530 204 493 q 162 456 138 405 q 113 354 113 294 l 113 294 q 113 239 133 194 q 152 149 186 117 q 220 84 266 67 q 312 49 366 49 l 366 49 q 423 49 477 70 q 531 91 573 129 q 615 167 641 219 q 666 271 666 333 m 559 407 l 559 407 q 559 376 543 350 q 526 323 487 309 l 487 309 l 546 160 l 417 160 l 373 296 l 366 296 l 337 160 l 211 160 l 280 484 l 429 484 q 457 484 481 481 q 505 478 523 470 q 540 462 550 447 q 559 431 559 407 m 374 339 l 397 339 q 410 339 420 346 q 429 353 435 364 q 441 374 444 386 q 446 397 446 406 l 446 406 q 446 420 442 429 q 437 438 422 438 l 422 438 l 399 438 l 374 339"},"˚":{"x_min":37,"x_max":220,"ha":257,"o":"m 220 571 l 220 571 q 220 551 212 534 q 203 517 190 505 q 176 492 158 485 q 140 478 121 478 l 121 478 q 85 478 61 500 q 37 522 37 559 l 37 559 q 37 579 45 596 q 53 613 67 625 q 81 637 99 644 q 116 651 136 651 l 136 651 q 172 651 196 629 q 220 606 220 571 m 162 567 l 162 567 q 162 580 153 588 q 144 595 131 595 l 131 595 q 117 595 106 586 q 94 577 94 562 l 94 562 q 94 549 103 541 q 112 532 125 532 l 125 532 q 139 532 151 542 q 162 552 162 567"},"s":{"x_min":-17,"x_max":460,"ha":487,"o":"m 437 304 l 307 304 q 308 309 309 314 q 310 319 310 325 l 310 325 q 310 343 304 359 q 297 374 278 374 l 278 374 q 261 374 244 360 q 227 345 227 321 l 227 321 q 227 305 236 296 q 244 286 258 280 q 272 274 290 270 q 307 266 324 262 l 324 262 q 348 256 370 248 q 391 239 408 225 q 425 211 435 191 q 445 170 445 140 l 445 140 q 445 98 426 70 q 406 41 372 24 q 337 6 291 -1 q 244 -8 191 -8 l 191 -8 q 110 -8 57 4 q 4 16 -17 27 l -17 27 l 4 127 l 139 127 q 138 122 138 118 q 138 113 138 108 l 138 108 q 138 85 149 72 q 159 58 185 58 l 185 58 q 214 58 227 75 q 239 91 239 105 l 239 105 q 239 119 229 130 q 218 140 202 148 q 186 155 167 161 q 147 166 129 171 l 129 171 q 116 174 100 181 q 83 188 68 201 q 53 214 43 235 q 33 255 33 286 l 33 286 q 33 330 55 360 q 76 389 111 407 q 145 425 189 433 q 232 441 276 441 l 276 441 q 331 441 380 431 q 429 421 460 405 l 460 405 l 437 304"},"ﬆ":{"x_min":-17,"x_max":877,"ha":862,"o":"m 502 363 l 516 430 q 563 437 595 451 q 627 464 646 480 q 665 495 673 512 q 681 529 681 543 l 681 543 q 681 568 656 585 q 630 601 575 601 l 575 601 q 547 601 514 596 q 481 590 453 578 q 425 565 406 545 q 387 525 387 496 l 387 496 q 387 462 407 444 q 426 425 460 405 l 460 405 l 437 304 l 307 304 q 308 309 309 314 q 310 319 310 325 l 310 325 q 310 343 304 359 q 297 374 278 374 l 278 374 q 261 374 244 360 q 227 345 227 321 l 227 321 q 227 305 236 296 q 244 286 258 280 q 272 274 290 270 q 307 266 324 262 l 324 262 q 348 256 370 248 q 391 239 408 225 q 425 211 435 191 q 445 170 445 140 l 445 140 q 445 98 426 70 q 406 41 372 24 q 337 6 291 -1 q 244 -8 191 -8 l 191 -8 q 110 -8 57 4 q 4 16 -17 27 l -17 27 l 4 127 l 139 127 q 138 122 138 118 q 138 113 138 108 l 138 108 q 138 85 149 72 q 159 58 185 58 l 185 58 q 214 58 227 75 q 239 91 239 105 l 239 105 q 239 119 229 130 q 218 140 202 148 q 186 155 167 161 q 147 166 129 171 l 129 171 q 116 174 100 181 q 83 188 68 201 q 53 214 43 235 q 33 255 33 286 l 33 286 q 33 330 55 360 q 76 389 111 407 q 145 425 189 433 q 232 441 276 441 l 276 441 q 293 441 310 440 q 326 439 342 437 l 342 437 q 323 447 314 463 q 304 478 304 507 l 304 507 q 304 548 328 581 q 352 613 395 636 q 437 659 495 672 q 552 684 618 684 l 618 684 q 657 684 694 677 q 730 669 759 653 q 787 637 804 613 q 821 589 821 555 l 821 555 q 821 539 818 523 l 818 523 l 798 430 l 877 430 l 863 363 l 784 363 l 743 168 q 738 145 735 127 q 732 109 732 99 l 732 99 q 732 79 747 74 q 761 69 801 69 l 801 69 l 786 0 q 779 -2 765 -3 q 750 -4 733 -5 q 715 -7 697 -7 q 678 -8 664 -8 l 664 -8 q 639 -8 615 -4 q 591 -1 572 10 q 553 20 542 40 q 530 60 530 94 l 530 94 q 530 106 532 124 q 533 142 538 164 l 538 164 l 580 363 l 502 363"},"ś":{"x_min":-17,"x_max":499,"ha":487,"o":"m 437 304 l 307 304 q 308 309 309 314 q 310 319 310 325 l 310 325 q 310 343 304 359 q 297 374 278 374 l 278 374 q 261 374 244 360 q 227 345 227 321 l 227 321 q 227 305 236 296 q 244 286 258 280 q 272 274 290 270 q 307 266 324 262 l 324 262 q 348 256 370 248 q 391 239 408 225 q 425 211 435 191 q 445 170 445 140 l 445 140 q 445 98 426 70 q 406 41 372 24 q 337 6 291 -1 q 244 -8 191 -8 l 191 -8 q 110 -8 57 4 q 4 16 -17 27 l -17 27 l 4 127 l 139 127 q 138 122 138 118 q 138 113 138 108 l 138 108 q 138 85 149 72 q 159 58 185 58 l 185 58 q 214 58 227 75 q 239 91 239 105 l 239 105 q 239 119 229 130 q 218 140 202 148 q 186 155 167 161 q 147 166 129 171 l 129 171 q 116 174 100 181 q 83 188 68 201 q 53 214 43 235 q 33 255 33 286 l 33 286 q 33 330 55 360 q 76 389 111 407 q 145 425 189 433 q 232 441 276 441 l 276 441 q 331 441 380 431 q 429 421 460 405 l 460 405 l 437 304 m 320 489 l 234 489 l 327 635 l 499 635 l 320 489"},"š":{"x_min":-17,"x_max":509,"ha":487,"o":"m 437 304 l 307 304 q 308 309 309 314 q 310 319 310 325 l 310 325 q 310 343 304 359 q 297 374 278 374 l 278 374 q 261 374 244 360 q 227 345 227 321 l 227 321 q 227 305 236 296 q 244 286 258 280 q 272 274 290 270 q 307 266 324 262 l 324 262 q 348 256 370 248 q 391 239 408 225 q 425 211 435 191 q 445 170 445 140 l 445 140 q 445 98 426 70 q 406 41 372 24 q 337 6 291 -1 q 244 -8 191 -8 l 191 -8 q 110 -8 57 4 q 4 16 -17 27 l -17 27 l 4 127 l 139 127 q 138 122 138 118 q 138 113 138 108 l 138 108 q 138 85 149 72 q 159 58 185 58 l 185 58 q 214 58 227 75 q 239 91 239 105 l 239 105 q 239 119 229 130 q 218 140 202 148 q 186 155 167 161 q 147 166 129 171 l 129 171 q 116 174 100 181 q 83 188 68 201 q 53 214 43 235 q 33 255 33 286 l 33 286 q 33 330 55 360 q 76 389 111 407 q 145 425 189 433 q 232 441 276 441 l 276 441 q 331 441 380 431 q 429 421 460 405 l 460 405 l 437 304 m 423 635 l 509 635 l 363 489 l 214 489 l 131 635 l 208 635 l 291 543 l 423 635"}}}
